<svg width="283" height="270" viewBox="0 0 283 270" fill="none" xmlns="http://www.w3.org/2000/svg">
<g clip-path="url(#clip0_70_43)">
<rect width="282.366" height="270" fill="white"/>
<path d="M14.7707 -28.168L35.8924 -15.9733V8.416L14.7707 20.6107L-6.3511 8.416V-15.9733L14.7707 -28.168Z" fill="#7CCEC6"/>
<path d="M153.55 -28.855L174.671 -16.6603V7.72899L153.55 19.9236L132.428 7.72899V-16.6603L153.55 -28.855Z" fill="#1A8CA9"/>
<path d="M200.267 -28.168L221.389 -15.9733V8.416L200.267 20.6107L179.145 8.416V-15.9733L200.267 -28.168Z" fill="#4855A2"/>
<path d="M222.938 11.6794L244.06 23.8741V48.2634L222.938 60.4581L201.816 48.2634V23.8741L222.938 11.6794Z" fill="#2C7BBD"/>
<path d="M246.297 -28.168L267.418 -15.9733V8.416L246.297 20.6107L225.175 8.416V-15.9733L246.297 -28.168Z" fill="#382661"/>
<path d="M293.015 -28.855L314.137 -16.6603V7.72899L293.015 19.9236L271.893 7.72899V-16.6603L293.015 -28.855Z" fill="#382661"/>
<path d="M-7.9006 92.0608L13.2212 104.255V128.645L-7.9006 140.839L-29.0224 128.645V104.255L-7.9006 92.0608Z" fill="#4855A2"/>
<path d="M14.7707 131.908L35.8924 144.103V168.492L14.7707 180.687L-6.3511 168.492V144.103L14.7707 131.908Z" fill="#4855A2"/>
<path d="M38.1293 92.0608L59.2511 104.255V128.645L38.1293 140.839L17.0075 128.645V104.255L38.1293 92.0608Z" fill="#5F2A8D"/>
<path d="M-7.9006 11.6794L13.2212 23.8741V48.2634L-7.9006 60.4581L-29.0224 48.2634V23.8741L-7.9006 11.6794Z" fill="#2C7BBD"/>
<path d="M15.4582 51.5266L36.5799 63.7213V88.1106L15.4582 100.305L-5.6636 88.1106V63.7213L15.4582 51.5266Z" fill="#2C7BBD"/>
<path d="M38.1293 11.6794L59.2511 23.8741V48.2634L38.1293 60.4581L17.0075 48.2634V23.8741L38.1293 11.6794Z" fill="#5F2A8D"/>
<path d="M61.4878 51.5266L82.6096 63.7213V88.1106L61.4878 100.305L40.3661 88.1106V63.7213L61.4878 51.5266Z" fill="#4855A2"/>
<path d="M84.1601 92.0608L105.282 104.255V128.645L84.1601 140.839L63.0383 128.645V104.255L84.1601 92.0608Z" fill="#382661"/>
<path d="M107.519 51.5266L128.64 63.7213V88.1106L107.519 100.305L86.3968 88.1106V63.7213L107.519 51.5266Z" fill="#2C7BBD"/>
<path d="M61.4878 -28.855L82.6096 -16.6603V7.72899L61.4878 19.9236L40.3661 7.72899V-16.6603L61.4878 -28.855Z" fill="#7CCEC6"/>
<path d="M84.8466 11.6794L105.968 23.8741V48.2634L84.8466 60.4581L63.7248 48.2634V23.8741L84.8466 11.6794Z" fill="#1A8CA9"/>
<path d="M107.519 -28.855L128.64 -16.6603V7.72899L107.519 19.9236L86.3968 7.72899V-16.6603L107.519 -28.855Z" fill="#5F2A8D"/>
<path d="M130.877 92.0608L151.999 104.255V128.645L130.877 140.839L109.756 128.645V104.255L130.877 92.0608Z" fill="#2C7BBD"/>
<path d="M153.55 131.908L174.671 144.103V168.492L153.55 180.687L132.428 168.492V144.103L153.55 131.908Z" fill="#2C7BBD"/>
<path d="M176.908 92.0608L198.03 104.255V128.645L176.908 140.839L155.786 128.645V104.255L176.908 92.0608Z" fill="#5F2A8D"/>
<path d="M130.877 11.6794L151.999 23.8741V48.2634L130.877 60.4581L109.756 48.2634V23.8741L130.877 11.6794Z" fill="#5F2A8D"/>
<path d="M154.236 51.5266L175.358 63.7213V88.1106L154.236 100.305L133.114 88.1106V63.7213L154.236 51.5266Z" fill="#1A8CA9"/>
<path d="M176.908 11.6794L198.03 23.8741V48.2634L176.908 60.4581L155.786 48.2634V23.8741L176.908 11.6794Z" fill="#382661"/>
<path d="M200.267 131.908L221.389 144.103V168.492L200.267 180.687L179.145 168.492V144.103L200.267 131.908Z" fill="#382661"/>
<path d="M222.938 172.442L244.06 184.637V209.026L222.938 221.221L201.816 209.026V184.637L222.938 172.442Z" fill="#5F2A8D"/>
<path d="M246.297 131.908L267.418 144.103V168.492L246.297 180.687L225.175 168.492V144.103L246.297 131.908Z" fill="#5F2A8D"/>
<path d="M200.267 51.5266L221.389 63.7213V88.1106L200.267 100.305L179.145 88.1106V63.7213L200.267 51.5266Z" fill="#4855A2"/>
<path d="M223.625 92.0608L244.747 104.255V128.645L223.625 140.839L202.504 128.645V104.255L223.625 92.0608Z" fill="#2C7BBD"/>
<path d="M246.297 51.5266L267.418 63.7213V88.1106L246.297 100.305L225.175 88.1106V63.7213L246.297 51.5266Z" fill="#5F2A8D"/>
<path d="M269.655 92.0608L290.777 104.255V128.645L269.655 140.839L248.534 128.645V104.255L269.655 92.0608Z" fill="#2C7BBD"/>
<path d="M293.015 131.908L314.137 144.103V168.492L293.015 180.687L271.893 168.492V144.103L293.015 131.908Z" fill="#4855A2"/>
<path d="M269.655 11.6794L290.777 23.8741V48.2634L269.655 60.4581L248.534 48.2634V23.8741L269.655 11.6794Z" fill="#382661"/>
<path d="M293.015 51.5266L314.137 63.7213V88.1106L293.015 100.305L271.893 88.1106V63.7213L293.015 51.5266Z" fill="#7CCEC6"/>
<path d="M-7.9006 252.824L13.2212 265.018V289.408L-7.9006 301.602L-29.0224 289.408V265.018L-7.9006 252.824Z" fill="#4855A2"/>
<path d="M38.1293 252.824L59.2511 265.018V289.408L38.1293 301.602L17.0075 289.408V265.018L38.1293 252.824Z" fill="#7CCEC6"/>
<path d="M-7.9006 172.442L13.2212 184.637V209.026L-7.9006 221.221L-29.0224 209.026V184.637L-7.9006 172.442Z" fill="#382661"/>
<path d="M15.4582 212.977L36.5799 225.171V249.561L15.4582 261.755L-5.6636 249.561V225.171L15.4582 212.977Z" fill="#1A8CA9"/>
<path d="M38.1293 172.442L59.2511 184.637V209.026L38.1293 221.221L17.0075 209.026V184.637L38.1293 172.442Z" fill="#382661"/>
<path d="M61.4878 212.977L82.6096 225.171V249.561L61.4878 261.755L40.3661 249.561V225.171L61.4878 212.977Z" fill="#382661"/>
<path d="M84.1601 252.824L105.282 265.018V289.408L84.1601 301.602L63.0383 289.408V265.018L84.1601 252.824Z" fill="#1A8CA9"/>
<path d="M107.519 212.977L128.64 225.171V249.561L107.519 261.755L86.3968 249.561V225.171L107.519 212.977Z" fill="#4855A2"/>
<path d="M61.4878 132.595L82.6096 144.79V169.179L61.4878 181.374L40.3661 169.179V144.79L61.4878 132.595Z" fill="#1A8CA9"/>
<path d="M84.8466 172.442L105.968 184.637V209.026L84.8466 221.221L63.7248 209.026V184.637L84.8466 172.442Z" fill="#2C7BBD"/>
<path d="M107.519 132.595L128.64 144.79V169.179L107.519 181.374L86.3968 169.179V144.79L107.519 132.595Z" fill="#7CCEC6"/>
<path d="M130.877 252.824L151.999 265.018V289.408L130.877 301.602L109.756 289.408V265.018L130.877 252.824Z" fill="#5F2A8D"/>
<path d="M176.908 252.824L198.03 265.018V289.408L176.908 301.602L155.786 289.408V265.018L176.908 252.824Z" fill="#5F2A8D"/>
<path d="M130.877 172.442L151.999 184.637V209.026L130.877 221.221L109.756 209.026V184.637L130.877 172.442Z" fill="#7CCEC6"/>
<path d="M154.236 212.29L175.358 224.484V248.874L154.236 261.068L133.114 248.874V224.484L154.236 212.29Z" fill="#5F2A8D"/>
<path d="M176.908 172.442L198.03 184.637V209.026L176.908 221.221L155.786 209.026V184.637L176.908 172.442Z" fill="#382661"/>
<path d="M200.267 212.977L221.389 225.171V249.561L200.267 261.755L179.145 249.561V225.171L200.267 212.977Z" fill="#7CCEC6"/>
<path d="M223.625 252.824L244.747 265.018V289.408L223.625 301.602L202.504 289.408V265.018L223.625 252.824Z" fill="#7CCEC6"/>
<path d="M246.297 212.977L267.418 225.171V249.561L246.297 261.755L225.175 249.561V225.171L246.297 212.977Z" fill="#382661"/>
<path d="M269.655 252.824L290.777 265.018V289.408L269.655 301.602L248.534 289.408V265.018L269.655 252.824Z" fill="#7CCEC6"/>
<path d="M269.655 172.442L290.777 184.637V209.026L269.655 221.221L248.534 209.026V184.637L269.655 172.442Z" fill="#1A8CA9"/>
<path d="M293.015 212.29L314.137 224.484V248.874L293.015 261.068L271.893 248.874V224.484L293.015 212.29Z" fill="#7CCEC6"/>
</g>
<defs>
<clipPath id="clip0_70_43">
<rect width="282.366" height="270" fill="white"/>
</clipPath>
</defs>
</svg>
