<svg width="292" height="343" viewBox="0 0 292 343" fill="none" xmlns="http://www.w3.org/2000/svg">
<path d="M1.60981 257.176L1.12689 86.4223L145.407 0.635884L290.18 85.6033L290.654 256.357L146.373 342.144L1.60981 257.176Z" fill="#0E1923"/>
<path d="M25.6603 242.165L25.2569 99.8746L145.494 28.3834L266.126 99.1915L266.529 241.482L146.292 312.973L25.6603 242.165Z" fill="white"/>
<path d="M128.048 184.117C128.048 184.117 140.564 135.038 189.563 125.781C193.05 125.121 196.675 125.209 200.083 126.205C205.906 127.913 212.169 132.431 204.135 144.388C204.135 144.388 196.565 156.096 171.884 162.744C147.202 169.401 146.071 167.849 128.048 184.117Z" fill="#0E1923"/>
<path d="M131.576 190.678C131.576 190.678 153.283 161.778 191.29 172.466C193.999 173.226 196.607 174.539 198.83 176.392C202.631 179.563 206.022 184.789 197.107 190.112C197.107 190.112 188.601 195.419 168.943 191.377C149.284 187.335 148.855 185.899 131.576 190.669L131.576 190.678Z" fill="#0E1923"/>
<path d="M152.801 209.839C152.801 209.839 161.233 198.313 158.878 196.421C156.523 194.528 129.499 185.711 130.105 204.645C130.105 204.645 140.834 202.24 152.801 209.839Z" fill="#0E1923"/>
<path d="M131.237 208.802C131.237 208.802 138.599 205.971 149.259 214.255C149.259 214.255 141.036 227.766 127.123 232.492C127.123 232.492 132.6 220.583 131.246 208.803L131.237 208.802Z" fill="#0E1923"/>
<path d="M114.921 139.28C114.048 141.107 109.894 150.319 111.44 159.971C111.569 160.807 112.193 161.479 113.03 161.632C116.328 162.245 125.309 163.015 135.224 156.098L135.569 155.801C136.633 154.644 142.709 147.683 141.619 140.78C140.426 133.215 132.557 132.468 132.557 132.468C132.557 132.468 130.097 131.955 126.477 132.309C122.689 132.679 119.852 133.696 117.114 136.307C116.343 137.042 115.321 138.455 114.929 139.28L114.921 139.28Z" fill="#0E1923"/>
<path d="M114.642 128.562C115.875 128.17 108.295 108.326 105.886 108.607C105.533 108.65 105.321 109.399 104.898 110.897C104.282 113.074 103.749 114.942 104.628 116.843C105.04 117.736 105.249 117.525 107.546 120.139C108.618 121.361 108.834 121.706 110.463 123.717C113.11 126.984 114.443 128.623 114.642 128.562Z" fill="#0E1923"/>
<path d="M109.757 133.508C110.217 132.927 100.944 124.848 99.9057 125.719C99.7673 125.835 99.8859 126.294 100.115 127.221C100.385 128.348 100.538 128.974 101.061 129.551C101.395 129.928 101.946 130.205 103.047 130.761C103.511 130.996 103.864 131.148 104.569 131.459C105.429 131.838 106.092 132.108 106.419 132.243C108.595 133.153 109.688 133.608 109.766 133.508L109.757 133.508Z" fill="#0E1923"/>
</svg>
