<svg width="106" height="153" viewBox="0 0 106 153" fill="none" xmlns="http://www.w3.org/2000/svg">
<path d="M3.70469 72.6703L4.29749 72.9748L4.29754 72.9747L4.29778 72.9743L4.29869 72.9725L4.30234 72.9654L4.31667 72.9375L4.37203 72.8299L4.57779 72.4298L5.27553 71.073L7.06383 67.5956L9.83019 62.2164L11.6185 58.739L12.3162 57.3822L12.4196 57.1813L35.6226 56.1416L35.7431 56.3325L36.5572 57.6215L38.6437 60.9253L40.7302 64.229L41.5443 65.518L41.7843 65.8982L41.8489 66.0004L41.8656 66.0269L41.8699 66.0336L41.871 66.0353L41.8712 66.0358L41.8713 66.0359L42.435 65.6796L41.8713 66.0359L45.099 71.1466L48.1233 75.9352L45.5312 80.9756L42.7648 86.3548L39.9985 91.734L37.4091 96.7691L14.2061 97.8088L11.185 93.0252L8.76423 89.1922L7.95731 87.9145L6.3435 85.3592L4.72968 82.8039L1.70539 78.0152L4.29747 72.9749L3.70469 72.6703Z" fill="#382661" stroke="#382661" stroke-width="1.33333"/>
<path d="M41.4843 66.2468L38.7033 61.3664L10.7738 62.6179L8.5173 67.724L41.4843 66.2468Z" fill="white" stroke="#382661" stroke-width="1.33333"/>
<path d="M45.2516 81.0825L41.9132 87.2381L8.7382 88.7246L5.29814 83.023L45.2516 81.0825Z" fill="white" stroke="#382661" stroke-width="1.33333"/>
<path d="M39.6934 90.4557L37.6659 95.5516L15.1873 96.5589L12.7204 91.6644L39.6934 90.4557Z" fill="white" stroke="#382661" stroke-width="1.33333"/>
<path d="M47.4815 75.9689L44.6528 71.0888L4.47523 72.8892L2.5097 77.6407L47.4815 75.9689Z" fill="white" stroke="#382661" stroke-width="1.33333"/>
<path d="M50.894 81.6314L40.1168 101.376C43.4701 129.081 74.885 164.294 98.4905 144.396C121.51 124.992 72.7813 89.4419 50.894 81.6314Z" fill="#382661"/>
<path d="M50.4599 72.6419L37.9921 53.9389C38.9004 26.0428 67.1011 -11.8411 92.3602 5.86717C116.993 23.1361 71.5756 62.9045 50.4599 72.6419Z" fill="#382661"/>
</svg>
