<svg width="1766" height="175" viewBox="0 0 1766 175" fill="none" xmlns="http://www.w3.org/2000/svg">
<path d="M442.001 172C340.001 172 300.334 14.9999 221 14.9999C141.667 14.9999 102 172 -0.000127072 172" stroke="#382661" stroke-width="2.49912"/>
<path d="M451.001 -9.15527e-05L463.125 6.99993V21L451.001 28L438.876 21V6.99993L451.001 -9.15527e-05Z" fill="#2C7BBD"/>
<path d="M409.001 7.99991L421.125 14.9999V29L409.001 36L396.877 29V14.9999L409.001 7.99991Z" fill="#2C7BBD"/>
<path d="M381.001 35.9999L393.125 42.9999V57L381.001 64L368.877 57V42.9999L381.001 35.9999Z" fill="#2C7BBD"/>
<path d="M341.543 70.3849L353.001 63.7697L364.458 70.3849V83.6151L353.001 90.2302L341.543 83.6151V70.3849Z" fill="#2C7BBD" stroke="#0E1923" stroke-width="1.33333"/>
<path d="M313.543 98.3849L325.001 91.7697L336.458 98.3849V111.615L325.001 118.23L313.543 111.615V98.3849Z" fill="#2C7BBD" stroke="#0E1923" stroke-width="1.33333"/>
<path d="M283.543 125.385L295.001 118.77L306.458 125.385V138.615L295.001 145.23L283.543 138.615V125.385Z" fill="#2C7BBD" stroke="#0E1923" stroke-width="1.33333"/>
<path d="M250.544 150.385L262.001 143.77L273.459 150.385V163.615L262.001 170.23L250.544 163.615V150.385Z" fill="#2C7BBD" stroke="#0E1923" stroke-width="1.33333"/>
<path d="M215.543 154.385L227.001 147.77L238.458 154.385V167.615L227.001 174.23L215.543 167.615V154.385Z" fill="#2C7BBD" stroke="#0E1923" stroke-width="1.33333"/>
<path d="M181.543 150.385L193.001 143.77L204.458 150.385V163.615L193.001 170.23L181.543 163.615V150.385Z" fill="#2C7BBD" stroke="#0E1923" stroke-width="1.33333"/>
<path d="M147.543 125.385L159.001 118.77L170.459 125.385V138.615L159.001 145.23L147.543 138.615V125.385Z" fill="#2C7BBD" stroke="#0E1923" stroke-width="1.33333"/>
<path d="M119.543 98.3849L131.001 91.7697L142.458 98.3849V111.615L131.001 118.23L119.543 111.615V98.3849Z" fill="#2C7BBD" stroke="#0E1923" stroke-width="1.33333"/>
<path d="M91.5428 70.385L103.001 63.7699L114.458 70.385V83.6152L103.001 90.2304L91.5428 83.6152V70.385Z" fill="#2C7BBD" stroke="#0E1923" stroke-width="1.33333"/>
<path d="M69.5438 43.385L81.0015 36.7699L92.4592 43.385V56.6152L81.0015 63.2303L69.5438 56.6152V43.385Z" fill="#2C7BBD" stroke="#0E1923" stroke-width="1.33333"/>
<path d="M39.5438 15.3848L51.0015 8.76971L62.4592 15.3848V28.6151L51.0015 35.2302L39.5438 28.6151V15.3848Z" fill="#2C7BBD" stroke="#0E1923" stroke-width="1.33333"/>
<path d="M5.54256 15.3848L17.0003 8.76971L28.458 15.3848V28.6151L17.0003 35.2302L5.54256 28.6151V15.3848Z" fill="#2C7BBD" stroke="#0E1923" stroke-width="1.33333"/>
<path d="M884.001 172C782.001 172 742.334 14.9999 663.001 14.9999C583.667 14.9999 544 172 442 172" stroke="#382661" stroke-width="2.49912"/>
<path d="M892 -9.15527e-05L904.125 6.99993V21L892 28L879.876 21V6.99993L892 -9.15527e-05Z" fill="#2C7BBD"/>
<path d="M850.001 7.99991L862.125 14.9999V29L850.001 36L837.876 29V14.9999L850.001 7.99991Z" fill="#2C7BBD"/>
<path d="M822 35.9999L834.125 42.9999V57L822 64L809.876 57V42.9999L822 35.9999Z" fill="#2C7BBD"/>
<path d="M794 62.9999L806.125 70V84L794 91L781.876 84V70L794 62.9999Z" fill="#2C7BBD"/>
<path d="M766.002 90.9999L778.126 98V112L766.002 119L753.877 112V98L766.002 90.9999Z" fill="#2C7BBD"/>
<path d="M736.002 118L748.126 125V139L736.002 146L723.877 139V125L736.002 118Z" fill="#2C7BBD"/>
<path d="M703.001 143L715.125 150V164L703.001 171L690.876 164V150L703.001 143Z" fill="#2C7BBD"/>
<path d="M669.001 147L681.125 154V168L669.001 175L656.876 168V154L669.001 147Z" fill="#2C7BBD"/>
<path d="M634 143L646.125 150V164L634 171L621.876 164V150L634 143Z" fill="#2C7BBD"/>
<path d="M601.001 118L613.125 125V139L601.001 146L588.877 139V125L601.001 118Z" fill="#2C7BBD"/>
<path d="M573.001 90.9999L585.125 98V112L573.001 119L560.877 112V98L573.001 90.9999Z" fill="#2C7BBD"/>
<path d="M545.001 62.9999L557.125 70V84L545.001 91L532.876 84V70L545.001 62.9999Z" fill="#2C7BBD"/>
<path d="M522.001 35.9999L534.125 42.9999V57L522.001 64L509.877 57V42.9999L522.001 35.9999Z" fill="#2C7BBD"/>
<path d="M493 7.99991L505.125 14.9999V29L493 36L480.876 29V14.9999L493 7.99991Z" fill="#2C7BBD"/>
<path d="M1325 172C1223 172 1183.33 14.9999 1104 14.9999C1024.67 14.9999 985 172 883 172" stroke="#382661" stroke-width="2.49912"/>
<path d="M1322.54 7.38483L1334 0.769709L1345.46 7.38483V20.6151L1334 27.2302L1322.54 20.6151V7.38483Z" fill="#2C7BBD" stroke="#0E1923" stroke-width="1.33333"/>
<path d="M1279.54 15.385L1291 8.76989L1302.46 15.385V28.6152L1291 35.2304L1279.54 28.6152V15.385Z" fill="#2C7BBD" stroke="#0E1923" stroke-width="1.33333"/>
<path d="M1251.54 43.385L1263 36.7699L1274.46 43.385V56.6152L1263 63.2303L1251.54 56.6152V43.385Z" fill="#2C7BBD" stroke="#0E1923" stroke-width="1.33333"/>
<path d="M1223.54 70.385L1235 63.7699L1246.46 70.385V83.6152L1235 90.2304L1223.54 83.6152V70.385Z" fill="#2C7BBD" stroke="#0E1923" stroke-width="1.33333"/>
<path d="M1195.54 98.385L1207 91.7699L1218.46 98.385V111.615L1207 118.23L1195.54 111.615V98.385Z" fill="#2C7BBD" stroke="#0E1923" stroke-width="1.33333"/>
<path d="M1166.54 125.385L1178 118.77L1189.46 125.385V138.615L1178 145.23L1166.54 138.615V125.385Z" fill="#2C7BBD" stroke="#0E1923" stroke-width="1.33333"/>
<path d="M1132.54 150.385L1144 143.77L1155.46 150.385V163.615L1144 170.231L1132.54 163.615V150.385Z" fill="#2C7BBD" stroke="#0E1923" stroke-width="1.33333"/>
<path d="M1110 147L1122.12 154V168L1110 175L1097.88 168V154L1110 147Z" fill="#2C7BBD"/>
<path d="M1075 143L1087.13 150V164L1075 171L1062.88 164V150L1075 143Z" fill="#2C7BBD"/>
<path d="M1042 118L1054.12 125V139L1042 146L1029.88 139V125L1042 118Z" fill="#2C7BBD"/>
<path d="M1014 91.0001L1026.12 98.0001V112L1014 119L1001.88 112V98.0001L1014 91.0001Z" fill="#2C7BBD"/>
<path d="M986 63.0001L998.125 70.0001V84.0001L986 91.0002L973.876 84.0001V70.0001L986 63.0001Z" fill="#2C7BBD"/>
<path d="M963.001 36.0001L975.125 43.0001V57.0001L963.001 64.0001L950.876 57.0001V43.0001L963.001 36.0001Z" fill="#2C7BBD"/>
<path d="M934.001 8.00009L946.125 15.0001V29.0001L934.001 36.0002L921.877 29.0001V15.0001L934.001 8.00009Z" fill="#2C7BBD"/>
<path d="M1766 172.001C1664 172.001 1624.33 15.0001 1545 15.0001C1465.67 15.0001 1426 172.001 1324 172.001" stroke="#0E1923" stroke-width="2.49912"/>
<path d="M1720.54 15.385L1732 8.76989L1743.46 15.385V28.6152L1732 35.2304L1720.54 28.6152V15.385Z" fill="#2C7BBD" stroke="#0E1923" stroke-width="1.33333"/>
<path d="M1692.54 43.385L1704 36.7699L1715.46 43.385V56.6152L1704 63.2303L1692.54 56.6152V43.385Z" fill="#2C7BBD" stroke="#0E1923" stroke-width="1.33333"/>
<path d="M1664.54 70.385L1676 63.7699L1687.46 70.385V83.6152L1676 90.2304L1664.54 83.6152V70.385Z" fill="#2C7BBD" stroke="#0E1923" stroke-width="1.33333"/>
<path d="M1636.54 98.385L1648 91.7699L1659.46 98.385V111.615L1648 118.23L1636.54 111.615V98.385Z" fill="#2C7BBD" stroke="#0E1923" stroke-width="1.33333"/>
<path d="M1607.54 125.385L1619 118.77L1630.46 125.385V138.615L1619 145.23L1607.54 138.615V125.385Z" fill="#2C7BBD" stroke="#0E1923" stroke-width="1.33333"/>
<path d="M1574.54 150.385L1586 143.77L1597.46 150.385V163.615L1586 170.231L1574.54 163.615V150.385Z" fill="#2C7BBD" stroke="#0E1923" stroke-width="1.33333"/>
<path d="M1539.54 154.385L1551 147.77L1562.46 154.385V167.615L1551 174.23L1539.54 167.615V154.385Z" fill="#2C7BBD" stroke="#0E1923" stroke-width="1.33333"/>
<path d="M1504.54 150.385L1516 143.77L1527.46 150.385V163.615L1516 170.231L1504.54 163.615V150.385Z" fill="#2C7BBD" stroke="#0E1923" stroke-width="1.33333"/>
<path d="M1471.54 125.385L1483 118.77L1494.46 125.385V138.615L1483 145.23L1471.54 138.615V125.385Z" fill="#2C7BBD" stroke="#0E1923" stroke-width="1.33333"/>
<path d="M1443.54 98.385L1455 91.7699L1466.46 98.385V111.615L1455 118.23L1443.54 111.615V98.385Z" fill="#2C7BBD" stroke="#0E1923" stroke-width="1.33333"/>
<path d="M1415.54 70.385L1427 63.7699L1438.46 70.385V83.6152L1427 90.2304L1415.54 83.6152V70.385Z" fill="#2C7BBD" stroke="#0E1923" stroke-width="1.33333"/>
<path d="M1392.54 43.385L1404 36.7699L1415.46 43.385V56.6152L1404 63.2303L1392.54 56.6152V43.385Z" fill="#2C7BBD" stroke="#0E1923" stroke-width="1.33333"/>
<path d="M1363.54 15.385L1375 8.76989L1386.46 15.385V28.6152L1375 35.2304L1363.54 28.6152V15.385Z" fill="#2C7BBD" stroke="#0E1923" stroke-width="1.33333"/>
</svg>
