<svg width="253" height="999" viewBox="0 0 253 999" fill="none" xmlns="http://www.w3.org/2000/svg">
<g clip-path="url(#clip0_234_2005)">
<rect width="253" height="999" fill="#0E1923"/>
<path d="M126.603 -16.0001C152.716 26.9404 189.274 113.21 126.603 114.763C63.9319 116.317 100.49 28.2351 126.603 -16.0001Z" fill="white"/>
<path d="M126.603 495.401C152.716 538.342 189.274 624.611 126.603 626.165C63.9319 627.718 100.49 539.636 126.603 495.401Z" fill="white"/>
<path d="M126.603 670.183C152.716 713.123 189.274 799.392 126.603 800.946C63.9319 802.5 100.49 714.418 126.603 670.183Z" fill="white"/>
<path d="M126.603 145.836C152.716 188.776 189.274 275.045 126.603 276.599C63.9319 278.153 100.49 190.071 126.603 145.836Z" fill="white"/>
<path d="M126.603 320.62C152.716 363.56 189.274 449.829 126.603 451.383C63.9319 452.937 100.49 364.855 126.603 320.62Z" fill="white"/>
<path d="M126.603 844.967C152.716 887.907 189.274 974.177 126.603 975.73C63.9319 977.284 100.49 889.202 126.603 844.967Z" fill="white"/>
</g>
<defs>
<clipPath id="clip0_234_2005">
<rect width="253" height="999" fill="white"/>
</clipPath>
</defs>
</svg>
