<svg width="180" height="711" viewBox="0 0 180 711" fill="none" xmlns="http://www.w3.org/2000/svg">
<g clip-path="url(#clip0_188_1435)">
<rect width="179.999" height="710.745" fill="#0E1923"/>
<path d="M90.0731 -11.3834C108.651 19.1669 134.661 80.5438 90.0731 81.6492C45.4853 82.7545 71.4949 20.088 90.0731 -11.3834Z" fill="white"/>
<path d="M90.0731 352.456C108.651 383.007 134.661 444.383 90.0731 445.489C45.4853 446.594 71.4949 383.928 90.0731 352.456Z" fill="white"/>
<path d="M90.0731 476.806C108.651 507.356 134.661 568.733 90.0731 569.838C45.4853 570.944 71.4949 508.277 90.0731 476.806Z" fill="white"/>
<path d="M90.0731 103.756C108.651 134.306 134.661 195.683 90.0731 196.788C45.4853 197.894 71.4949 135.227 90.0731 103.756Z" fill="white"/>
<path d="M90.0731 228.107C108.651 258.657 134.661 320.034 90.0731 321.139C45.4853 322.245 71.4949 259.578 90.0731 228.107Z" fill="white"/>
<path d="M90.0731 601.157C108.651 631.707 134.661 693.084 90.0731 694.19C45.4853 695.295 71.4949 632.629 90.0731 601.157Z" fill="white"/>
</g>
<defs>
<clipPath id="clip0_188_1435">
<rect width="179.999" height="710.745" fill="white"/>
</clipPath>
</defs>
</svg>
