<svg width="95" height="92" viewBox="0 0 95 92" fill="none" xmlns="http://www.w3.org/2000/svg">
<path d="M27.621 61.5471L27.9685 61.4509L27.9685 61.4508L27.9684 61.4506L27.9681 61.4495L27.9669 61.4455L27.9623 61.4298L27.9443 61.3692L27.8776 61.1436L27.6515 60.3787L27.0717 58.4182L26.1749 55.3855L25.5952 53.425L25.369 52.6601L25.3364 52.5498L34.0173 44.0971L34.1315 44.1279L34.9239 44.3414L36.9548 44.8889L38.9858 45.4363L39.7782 45.6498L40.0118 45.7128L40.0747 45.7298L40.091 45.7342L40.0951 45.7353L40.0962 45.7356L40.0964 45.7356L40.0965 45.7356L40.1936 45.3989L40.0965 45.7357L43.2382 46.5825L46.1851 47.3767L47.0263 50.2214L47.9231 53.2541L48.8199 56.2868L49.6584 59.1225L40.9775 67.5752L38.04 66.7834L35.6837 66.1483L34.8983 65.9366L33.3275 65.5132L31.7566 65.0898L28.8097 64.2956L27.9685 61.4509L27.621 61.5471Z" fill="#0E1923" stroke="white" stroke-width="0.711111"/>
<path d="M39.7897 45.9812L36.9165 45.0589L26.5575 55.1457L27.5621 57.8874L39.7897 45.9812Z" fill="white"/>
<path d="M47.2923 49.9169L48.0916 53.6025L35.5216 65.8422L32.0078 64.7997L47.2923 49.9169Z" fill="white"/>
<path d="M48.7437 56.6863L49.8072 59.3707L41.2093 67.7426L38.4267 66.7322L48.7437 56.6863Z" fill="white"/>
<path d="M46.1897 47.5813L43.1116 46.8585L28.078 61.4971L28.9947 64.3244L46.1897 47.5813Z" fill="white"/>
<path d="M48.4175 48.008L51.3378 59.2761C62.6899 68.6298 87.7799 71.028 89.8411 55.2181C91.8512 39.8005 59.8408 43.3256 48.4175 48.008Z" fill="white" stroke="#0E1923" stroke-width="0.711111"/>
<path d="M45.2174 44.8083L33.5472 42.0603C23.7993 31.1446 21.1499 6.89545 37.4823 4.79495C53.4095 2.74656 49.9815 33.7288 45.2174 44.8083Z" fill="white" stroke="#0E1923" stroke-width="0.711111"/>
</svg>
