<svg width="1145" height="1044" viewBox="0 0 1145 1044" fill="none" xmlns="http://www.w3.org/2000/svg">
<rect width="1145" height="1044" fill="#0E1923"/>
<path d="M0 73.5371V0H1145V46.5803C1118.99 47.325 1110.11 86.569 1113.82 125.665C1118.47 157.314 1111.97 228.989 1117.54 237.367C1126.83 250.399 1124.41 267.712 1122.18 273.67C1119.95 279.627 1110.48 287.446 1100.82 282.978C1091.16 278.51 1093.7 246.365 1096.17 230.851L1100.82 183.377C1101.75 170.656 1102.12 137.021 1096.17 104.255C1090.23 71.4892 1067.38 69.8137 1059.01 77.2605C1044.15 88.4307 1027.12 148.936 1018.14 186.17C1012.57 202.925 982.282 226.383 954.042 208.51C918.741 186.17 928.96 147.074 909.452 132.181C877.541 107.818 860.217 133.111 858.359 140.558C856.409 148.373 847.831 203.546 845.354 230.851C844.511 240.14 831.773 250.671 826.046 264.074C820.319 277.477 828.432 313.006 833.205 329.095C839.17 350.237 840.976 357.017 838.189 365.395C830.014 383.267 815.607 377.652 813.717 368.985C810.933 356.22 817.535 343.056 816.898 335.078C816.262 327.1 808.679 308.618 804.967 300.374C797.535 280.267 793.26 269.659 789.854 258.489C781.493 240.803 766.392 239.228 745.955 230.851C729.605 224.149 724.279 193.927 723.66 179.654C721.43 153.59 706.629 137.145 699.507 132.181C689.908 125.665 669.223 119.893 663.277 148.936C657.332 177.978 642.221 184.618 635.409 184.308C608.469 179.654 621.474 185.239 596.392 151.728C576.327 124.92 560.163 138.697 554.589 148.936C539.726 178.723 548.486 209.075 543.442 212.234C528.578 221.542 534.771 254.122 532.294 272.739L529.507 321.143L532.294 400.265C533.223 417.951 527.835 446.249 532.294 455.185C536.753 464.122 536.939 477.991 526.72 482.18C510.371 488.882 507.522 470.7 508.141 460.771L509.999 426.329V372.34C508.76 342.242 506.655 278.696 508.141 265.292C509.627 251.888 503.187 229.92 499.78 220.611L485.846 188.962C482.44 181.516 476.371 164.016 479.343 153.59C482.316 143.165 477.485 133.111 469.125 128.457C450.546 120.266 442.185 138.697 425.464 138.697C412.087 140.186 409.362 177.172 409.671 195.478V332.313C408.928 344.973 396.746 349.999 397.595 359.308C398.09 364.736 400.963 376.827 390.163 378.856C375.3 381.648 378.087 352.792 379.016 344.414C379.759 337.712 368.487 322.074 367.868 309.973C366.382 233.271 348.36 215.957 339.999 210.372C311.202 195.478 289.836 210.372 284.262 216.888C277.75 224.5 267.54 254.122 266.612 282.047V389.095C266.612 397.473 261.967 419.813 264.754 426.329C265.679 428.494 267.85 435.948 267.54 440.292C266.612 449.29 260.109 453.59 246.174 449.6C239.059 447.563 239.151 438.543 243.388 430.052C245.245 426.329 249.89 419.813 249.89 419.813C254.535 414.228 245.245 375.753 244.316 363.031C243.387 337.898 239.672 317.42 235.956 309.973C222.021 278.324 181.147 295.079 172.787 311.835C163.097 331.253 156.065 346.276 152.349 366.755C148.634 387.233 152.349 433.776 152.349 441.223C152.349 447.18 153.588 460.46 154.207 466.356C155.136 472.872 159.038 476.223 159.781 485.903C160.524 495.584 157.923 500.797 156.065 503.59C153.898 506.692 145.661 512.34 137.486 506.382C129.311 500.425 130.364 486.524 131.912 480.318C135.628 470.638 135.938 440.292 135.628 426.329L134.699 363.031C134.699 333.244 126.648 305.008 121.694 294.148C115.191 281.427 100.699 252.074 94.7539 236.436C88.8086 220.798 87.3222 207.579 87.3222 202.925C84.5354 175.931 77.1037 192.686 73.3878 168.484C55.7376 157.314 46.448 171.276 47.377 187.101L48.3059 228.058C48.3059 236.436 49.7634 250.07 48.3059 252.26C42.7322 260.638 49.2349 269.946 50.1638 279.255C50.4687 282.31 50.309 294.861 48.3059 297.872C40.8742 309.042 26.2532 306.25 24.153 294.148C22.9143 287.012 21.1803 269.946 24.153 258.776C27.1256 247.606 22.9143 208.2 20.4371 189.893C19.1985 179.033 16.9071 151.915 17.6502 130.319C18.3934 108.723 6.19307 83.4662 0 73.5371Z" fill="white"/>
<path d="M742.309 120.707C739.111 91.8101 781.297 79.7006 790.581 113.253L793.366 191.517C790.581 221.325 773.871 199.903 768.301 198.039C762.731 196.176 761.803 174.738 751.592 162.633C746.401 156.48 743.546 131.887 742.309 120.707Z" fill="white"/>
<path d="M808.219 125.364C816.388 103.747 822.143 116.357 824 125.364V225.991C815.088 238.663 809.766 226.923 808.219 219.469C804.815 197.107 800.05 146.98 808.219 125.364Z" fill="white"/>
<path d="M202.959 137.476C191.819 136.731 181.608 143.059 181.608 156.111V206.425C181.608 215.121 182.722 234.004 187.178 239.968C192.748 247.421 202.959 240.899 206.672 225.06C209.643 212.388 212.861 176.299 214.099 159.838C215.027 152.695 214.099 138.222 202.959 137.476Z" fill="white"/>
<path d="M142.619 120.705C121.825 111.015 110.437 125.985 107.343 134.681C102.159 142.88 113.228 194.002 119.411 218.537C123.434 230.029 133.707 254.689 142.619 261.398C153.759 269.783 164.705 256.642 168.612 239.968C172.324 224.121 170.778 181.268 168.612 159.838C168.612 150.831 163.413 130.395 142.619 120.705Z" fill="white"/>
</svg>
