<svg width="1176" height="1003" viewBox="0 0 1176 1003" fill="none" xmlns="http://www.w3.org/2000/svg">
<rect x="1175" y="3" width="982" height="1172" transform="rotate(90 1175 3)" fill="#0E1923"/>
<path d="M602 985L1174 495L710 600.827" stroke="#7CCEC6" stroke-width="4" stroke-dasharray="13.33 13.33"/>
<path d="M1055.84 897.425L1056.18 896.846L1056.18 896.846L1056.18 896.846L1056.17 896.845L1056.17 896.841L1056.14 896.826L1056.04 896.766L1055.65 896.545L1054.34 895.794L1050.99 893.869L1045.8 890.892L1042.44 888.967L1041.14 888.216L1040.95 888.111L1041.42 865.906L1041.6 865.808L1042.94 865.109L1046.38 863.317L1049.81 861.526L1051.15 860.826L1051.54 860.62L1051.65 860.565L1051.68 860.551L1051.68 860.547L1051.68 860.546L1051.69 860.546L1051.69 860.546L1051.38 859.955L1051.69 860.546L1056.99 857.774L1061.98 855.172L1066.85 857.967L1072.04 860.945L1077.23 863.922L1082.08 866.703L1081.61 888.908L1076.65 891.496L1072.67 893.575L1071.34 894.268L1068.69 895.654L1066.03 897.039L1061.05 899.642L1056.18 896.846L1055.84 897.425Z" fill="#0E1923" stroke="white" stroke-width="1.33333"/>
<path d="M1052 861.098L1046.95 863.486L1046.38 890.59L1051.33 893.091L1052 861.098Z" fill="white"/>
<path d="M1067 857.883L1072.92 861.848L1072.25 893.915L1066.18 896.874L1067 857.883Z" fill="white"/>
<path d="M1077 864.902L1081.95 867.166L1081.5 888.829L1076.46 890.897L1077 864.902Z" fill="white"/>
<path d="M1062 855.098L1056.94 857.955L1056.13 896.416L1061.08 899.089L1062 855.098Z" fill="white"/>
<path d="M1065.96 853.725L1084.96 865.364C1112.83 863.845 1150.01 835.677 1131.69 811.633C1113.82 788.186 1075.18 833.062 1065.96 853.725Z" fill="white" stroke="#0E1923" stroke-width="1.33333"/>
<path d="M1057.96 852.725L1038.48 863.61C1010.7 861 974.734 831.399 994.047 808.092C1012.88 785.364 1049.61 831.717 1057.96 852.725Z" fill="white" stroke="#0E1923" stroke-width="1.33333"/>
<path d="M6 546L1057.57 985L1061 901.171" stroke="#2C7BBD" stroke-width="2.66667" stroke-dasharray="13.33 13.33"/>
<path d="M909.071 191.592L914.596 193.081L916.173 198.415L917.855 204.101L919.536 209.788L921.109 215.104L904.832 230.953L899.324 229.469L894.906 228.278L893.433 227.881L890.488 227.087L887.543 226.293L882.017 224.804L880.44 219.47L879.788 219.651L880.44 219.47L880.44 219.47L880.44 219.47L880.439 219.468L880.437 219.46L880.428 219.431L880.395 219.317L880.27 218.894L879.845 217.46L878.758 213.784L877.077 208.098L875.99 204.422L875.566 202.987L875.505 202.781L891.781 186.932L891.995 186.989L893.481 187.39L897.289 188.416L901.097 189.443L902.583 189.843L903.021 189.961L903.139 189.993L903.17 190.001L903.177 190.003L903.179 190.004L903.18 190.004L903.18 190.004L903.362 189.373L903.18 190.004L909.071 191.592Z" fill="#0E1923" stroke="white" stroke-width="1.33333"/>
<path d="M902.604 190.464L897.217 188.734L877.794 207.647L879.677 212.788L902.604 190.464Z" fill="white"/>
<path d="M916.672 197.843L918.17 204.754L894.602 227.703L888.013 225.749L916.672 197.843Z" fill="white"/>
<path d="M919.393 210.536L921.387 215.569L905.266 231.267L900.048 229.372L919.393 210.536Z" fill="white"/>
<path d="M914.605 193.464L908.833 192.109L880.645 219.556L882.364 224.857L914.605 193.464Z" fill="white"/>
<path d="M918.783 194.266L924.258 215.394C945.544 232.932 992.587 237.428 996.452 207.785C1000.22 178.877 940.201 185.486 918.783 194.266Z" fill="white" stroke="#0E1923" stroke-width="1.33333"/>
<path d="M912.783 188.266L890.901 183.113C872.624 162.646 867.656 117.179 898.28 113.241C928.143 109.4 921.716 167.492 912.783 188.266Z" fill="white" stroke="#0E1923" stroke-width="1.33333"/>
<line y1="-1.33333" x2="1107" y2="-1.33333" transform="matrix(-0.77868 0.627421 -0.652651 -0.757659 865 242)" stroke="#7CCEC6" stroke-width="2.66667" stroke-dasharray="13.33 13.33"/>
<path d="M708.727 605.294L708.082 605.107L708.082 605.107L708.082 605.108L708.082 605.11L708.08 605.117L708.071 605.146L708.039 605.26L707.921 605.682L707.518 607.114L706.486 610.784L705.688 613.622L704.889 616.46L703.857 620.13L703.455 621.561L703.396 621.771L680.845 627.371L680.689 627.215L679.623 626.148L676.89 623.413L674.158 620.678L673.092 619.611L672.778 619.297L672.693 619.212L672.671 619.19L672.666 619.185L672.664 619.183L672.664 619.183L672.664 619.183L672.192 619.647L672.664 619.183L668.437 614.952L664.488 611L665.98 605.696L667.576 600.02L669.173 594.344L670.667 589.032L693.217 583.432L697.172 587.39L700.342 590.563L701.398 591.621L703.512 593.736L705.625 595.851L709.574 599.804L708.082 605.107L708.727 605.294Z" fill="#0E1923" stroke="white" stroke-width="1.33333"/>
<path d="M673.972 620.134L677.487 623.382L704.62 616.644L706 612.18L673.972 620.134Z" fill="white"/>
<path d="M665.538 605.799L667.83 599.048L699.756 591.12L704.359 596.158L665.538 605.799Z" fill="white"/>
<path d="M670.027 592.866L671.183 588.458L693.021 583.035L696.231 586.359L670.027 592.866Z" fill="white"/>
<path d="M664.972 612.134L668.997 615.255L708.029 605.562L709.616 601.047L664.972 612.134Z" fill="white"/>
<path d="M663.061 607.817L669.377 586.99C660.403 561.369 622.786 534.098 604.118 557.57C585.914 580.46 640.315 604.676 663.061 607.817Z" fill="white" stroke="#0E1923" stroke-width="1.33333"/>
<path d="M665.061 615.817L680.97 631.124C685.869 657.757 666.489 699.183 638.439 687.312C611.084 675.736 646.693 629.168 665.061 615.817Z" fill="white" stroke="#0E1923" stroke-width="1.33333"/>
<path d="M496.865 137.734L496.322 143.156L491.232 145.491L485.791 147.988L480.35 150.484L475.264 152.817L456.463 140.047L457.007 134.629L457.443 130.281L457.588 128.831L457.879 125.933L458.17 123.034L458.713 117.611L463.803 115.276L463.519 114.683L463.803 115.276L463.803 115.276L463.803 115.276L463.805 115.275L463.812 115.272L463.84 115.259L463.949 115.209L464.354 115.023L465.726 114.394L469.244 112.78L474.685 110.284L478.203 108.67L479.575 108.04L479.771 107.95L498.571 120.72L498.551 120.929L498.404 122.391L498.028 126.139L497.652 129.886L497.506 131.349L497.462 131.78L497.451 131.896L497.448 131.926L497.447 131.934L497.447 131.936L497.447 131.936L497.447 131.936L498.12 131.993L497.447 131.936L496.865 137.734Z" fill="#0E1923" stroke="white" stroke-width="1.33333"/>
<path d="M497.652 130.236L497.946 125.603L475.52 110.371L471.182 112.256L497.652 130.236Z" fill="white"/>
<path d="M491.528 145.146L484.737 147.782L457.525 129.299L458.439 122.671L491.528 145.146Z" fill="white"/>
<path d="M479.353 150.764L475.142 152.736L456.529 140.093L457.018 135.593L479.353 150.764Z" fill="white"/>
<path d="M496.653 142.236L496.503 137.302L463.957 115.196L459.428 116.952L496.653 142.236Z" fill="white"/>
<path d="M495.186 147.597L474.731 156.289C460.584 179.342 463.993 224.598 494.646 223.327C524.539 222.088 507.695 166.402 495.186 147.597Z" fill="white" stroke="#0E1923" stroke-width="1.33333"/>
<path d="M500.185 141.597L501.697 120.038C519.317 99.3438 564.489 87.0864 573.656 115.404C582.596 143.02 522.72 146.595 500.185 141.597Z" fill="white" stroke="#0E1923" stroke-width="1.33333"/>
<path d="M211.026 918.622L216.546 920.13L218.105 925.469L219.768 931.161L221.43 936.853L222.984 942.176L206.654 957.969L201.151 956.466L196.737 955.26L195.266 954.859L192.323 954.055L189.381 953.251L183.86 951.743L182.301 946.404L181.649 946.582L182.301 946.404L182.301 946.404L182.301 946.403L182.3 946.401L182.298 946.394L182.289 946.364L182.256 946.25L182.133 945.827L181.713 944.391L180.639 940.712L178.976 935.02L177.902 931.34L177.483 929.905L177.422 929.698L193.752 913.904L193.966 913.962L195.451 914.368L199.255 915.407L203.06 916.446L204.544 916.852L204.982 916.971L205.1 917.004L205.13 917.012L205.138 917.014L205.14 917.015L205.14 917.015L205.141 917.015L205.325 916.384L205.141 917.015L211.026 918.622Z" fill="#0E1923" stroke="white" stroke-width="1.33333"/>
<path d="M204.594 917.476L199.213 915.728L179.725 934.576L181.592 939.723L204.594 917.476Z" fill="white"/>
<path d="M217.688 924.829L219.163 931.744L195.517 954.614L188.935 952.637L217.688 924.829Z" fill="white"/>
<path d="M221.406 937.524L223.383 942.564L207.209 958.207L201.998 956.295L221.406 937.524Z" fill="white"/>
<path d="M216.595 920.476L210.828 919.101L182.547 946.453L184.248 951.76L216.595 920.476Z" fill="white"/>
<path d="M220.665 921.143L226.069 942.289C247.295 959.899 294.323 964.555 298.288 934.925C302.155 906.029 242.113 912.436 220.665 921.143Z" fill="white" stroke="#0E1923" stroke-width="1.33333"/>
<path d="M214.665 916.143L192.801 910.916C174.593 890.388 169.779 844.904 200.416 841.069C230.292 837.329 223.668 895.399 214.665 916.143Z" fill="white" stroke="#0E1923" stroke-width="1.33333"/>
<path d="M149.317 319.346L147.996 324.749L142.548 326.5L136.74 328.367L130.932 330.234L125.502 331.98L108.489 316.924L109.806 311.538L110.862 307.218L111.214 305.778L111.918 302.898L112.622 300.017L113.943 294.614L119.391 292.863L119.179 292.241L119.391 292.863L119.391 292.863L119.391 292.863L119.393 292.862L119.401 292.859L119.431 292.85L119.547 292.812L119.979 292.674L121.444 292.203L125.199 290.996L131.006 289.129L134.761 287.922L136.226 287.451L136.437 287.383L153.45 302.439L153.399 302.648L153.044 304.101L152.133 307.825L151.223 311.549L150.868 313.001L150.763 313.43L150.735 313.545L150.728 313.575L150.726 313.583L150.725 313.585L150.725 313.585L150.725 313.585L151.384 313.734L150.725 313.585L149.317 319.346Z" fill="#0E1923" stroke="white" stroke-width="1.33333"/>
<path d="M150.564 312.632L152.138 307.353L131.835 289.386L126.599 291.425L150.564 312.632Z" fill="white"/>
<path d="M143.123 326.642L136.043 328.384L111.408 306.583L113.167 300.133L143.123 326.642Z" fill="white"/>
<path d="M130.436 329.368L125.316 331.509L108.465 316.597L110.216 311.475L130.436 329.368Z" fill="white"/>
<path d="M147.563 324.632L148.736 318.997L119.271 292.923L113.863 294.81L147.563 324.632Z" fill="white"/>
<path d="M146.144 328.5L124.534 334.691C107.255 356.007 104.463 401.663 135.237 404.136C165.248 406.549 156.057 348.826 146.144 328.5Z" fill="white" stroke="#0E1923" stroke-width="1.33333"/>
<path d="M152.144 323.5L156.605 302.134C177.028 283.599 223.801 276.863 229.075 306.291C234.218 334.988 173.955 331.248 152.144 323.5Z" fill="white" stroke="#0E1923" stroke-width="1.33333"/>
<path d="M112.07 293.001L3.99946 203.823L223 4" stroke="#5F2A8D" stroke-width="4" stroke-dasharray="13.33 13.33"/>
<path d="M4.99955 681L124.518 986.001L182 952.296" stroke="#2C7BBD" stroke-width="4" stroke-dasharray="13.33 13.33"/>
<path d="M475 986L339 4L457.211 117.159" stroke="#5F2A8D" stroke-width="2.66667" stroke-dasharray="13.33 13.33"/>
<path d="M149.317 319.346L147.996 324.749L142.548 326.5L136.74 328.367L130.932 330.234L125.502 331.98L108.489 316.924L109.806 311.538L110.862 307.218L111.214 305.778L111.918 302.898L112.622 300.017L113.943 294.614L119.391 292.863L119.179 292.241L119.391 292.863L119.391 292.863L119.391 292.863L119.393 292.862L119.401 292.859L119.431 292.85L119.547 292.812L119.979 292.674L121.444 292.203L125.199 290.996L131.006 289.129L134.761 287.922L136.226 287.451L136.437 287.383L153.45 302.439L153.399 302.648L153.044 304.101L152.133 307.825L151.223 311.549L150.868 313.001L150.763 313.43L150.735 313.545L150.728 313.575L150.726 313.583L150.725 313.585L150.725 313.585L150.725 313.585L151.384 313.734L150.725 313.585L149.317 319.346Z" fill="#0E1923" stroke="white" stroke-width="1.33333"/>
<path d="M150.564 312.632L152.138 307.353L131.835 289.386L126.599 291.425L150.564 312.632Z" fill="white"/>
<path d="M143.123 326.642L136.043 328.384L111.408 306.583L113.167 300.133L143.123 326.642Z" fill="white"/>
<path d="M130.436 329.368L125.316 331.509L108.465 316.597L110.216 311.475L130.436 329.368Z" fill="white"/>
<path d="M147.563 324.632L148.736 318.997L119.271 292.923L113.863 294.81L147.563 324.632Z" fill="white"/>
<path d="M146.144 328.5L124.534 334.691C107.255 356.007 104.463 401.663 135.237 404.136C165.248 406.549 156.057 348.826 146.144 328.5Z" fill="white" stroke="#0E1923" stroke-width="1.33333"/>
<path d="M152.144 323.5L156.605 302.134C177.028 283.599 223.801 276.863 229.075 306.291C234.218 334.988 173.955 331.248 152.144 323.5Z" fill="white" stroke="#0E1923" stroke-width="1.33333"/>
</svg>
