<svg width="1257" height="125" viewBox="0 0 1257 125" fill="none" xmlns="http://www.w3.org/2000/svg">
<path d="M314.465 122.371C241.896 122.371 213.675 10.6719 157.233 10.6719C100.79 10.6719 72.569 122.371 0.000266863 122.371" stroke="#382661" stroke-width="1.77802"/>
<path d="M320.868 0L329.494 4.98021V14.9406L320.868 19.9208L312.242 14.9406V4.98021L320.868 0Z" fill="#2C7BBD"/>
<path d="M290.987 5.69165L299.613 10.6719V20.6323L290.987 25.6125L282.361 20.6323V10.6719L290.987 5.69165Z" fill="#2C7BBD"/>
<path d="M271.066 25.6125L279.692 30.5928V40.5532L271.066 45.5334L262.44 40.5532V30.5928L271.066 25.6125Z" fill="#2C7BBD"/>
<path d="M242.993 50.0758L251.145 45.3695L259.297 50.0758V59.4886L251.145 64.1949L242.993 59.4886V50.0758Z" fill="#2C7BBD" stroke="#0E1923" stroke-width="0.948609"/>
<path d="M223.072 69.9965L231.224 65.2901L239.376 69.9965V79.4092L231.224 84.1156L223.072 79.4092V69.9965Z" fill="#2C7BBD" stroke="#0E1923" stroke-width="0.948609"/>
<path d="M201.729 89.206L209.88 84.4996L218.032 89.206V98.6187L209.88 103.325L201.729 98.6187V89.206Z" fill="#2C7BBD" stroke="#0E1923" stroke-width="0.948609"/>
<path d="M178.251 106.992L186.403 102.286L194.554 106.992V116.405L186.403 121.111L178.251 116.405V106.992Z" fill="#2C7BBD" stroke="#0E1923" stroke-width="0.948609"/>
<path d="M153.35 109.838L161.501 105.132L169.653 109.838V119.251L161.501 123.957L153.35 119.251V109.838Z" fill="#2C7BBD" stroke="#0E1923" stroke-width="0.948609"/>
<path d="M129.16 106.992L137.312 102.286L145.464 106.992V116.405L137.312 121.111L129.16 116.405V106.992Z" fill="#2C7BBD" stroke="#0E1923" stroke-width="0.948609"/>
<path d="M104.971 89.206L113.123 84.4996L121.274 89.206V98.6187L113.123 103.325L104.971 98.6187V89.206Z" fill="#2C7BBD" stroke="#0E1923" stroke-width="0.948609"/>
<path d="M85.05 69.9965L93.2016 65.2901L101.353 69.9965V79.4092L93.2016 84.1156L85.05 79.4092V69.9965Z" fill="#2C7BBD" stroke="#0E1923" stroke-width="0.948609"/>
<path d="M65.1291 50.0761L73.2807 45.3697L81.4324 50.0761V59.4888L73.2807 64.1952L65.1291 59.4888V50.0761Z" fill="#2C7BBD" stroke="#0E1923" stroke-width="0.948609"/>
<path d="M49.4777 30.8666L57.6294 26.1602L65.781 30.8666V40.2793L57.6294 44.9857L49.4777 40.2793V30.8666Z" fill="#2C7BBD" stroke="#0E1923" stroke-width="0.948609"/>
<path d="M28.1339 10.9457L36.2856 6.23933L44.4373 10.9457V20.3584L36.2856 25.0648L28.1339 20.3584V10.9457Z" fill="#2C7BBD" stroke="#0E1923" stroke-width="0.948609"/>
<path d="M3.94351 10.9457L12.0952 6.23933L20.2469 10.9457V20.3584L12.0952 25.0648L3.94351 20.3584V10.9457Z" fill="#2C7BBD" stroke="#0E1923" stroke-width="0.948609"/>
<path d="M628.929 122.371C556.36 122.371 528.139 10.6719 471.696 10.6719C415.254 10.6719 387.033 122.371 314.464 122.371" stroke="#382661" stroke-width="1.77802"/>
<path d="M634.621 0L643.247 4.98021V14.9406L634.621 19.9208L625.995 14.9406V4.98021L634.621 0Z" fill="#2C7BBD"/>
<path d="M604.739 5.69165L613.365 10.6719V20.6323L604.739 25.6125L596.113 20.6323V10.6719L604.739 5.69165Z" fill="#2C7BBD"/>
<path d="M584.818 25.6125L593.444 30.5928V40.5532L584.818 45.5334L576.192 40.5532V30.5928L584.818 25.6125Z" fill="#2C7BBD"/>
<path d="M564.897 44.8218L573.523 49.802V59.7624L564.897 64.7426L556.271 59.7624V49.802L564.897 44.8218Z" fill="#2C7BBD"/>
<path d="M544.977 64.7424L553.603 69.7226V79.6831L544.977 84.6633L536.351 79.6831V69.7226L544.977 64.7424Z" fill="#2C7BBD"/>
<path d="M523.633 83.9519L532.259 88.9321V98.8925L523.633 103.873L515.007 98.8925V88.9321L523.633 83.9519Z" fill="#2C7BBD"/>
<path d="M500.155 101.738L508.781 106.718V116.679L500.155 121.659L491.529 116.679V106.718L500.155 101.738Z" fill="#2C7BBD"/>
<path d="M475.965 104.584L484.591 109.564V119.525L475.965 124.505L467.339 119.525V109.564L475.965 104.584Z" fill="#2C7BBD"/>
<path d="M451.064 101.738L459.69 106.718V116.679L451.064 121.659L442.438 116.679V106.718L451.064 101.738Z" fill="#2C7BBD"/>
<path d="M427.586 83.9519L436.212 88.9321V98.8925L427.586 103.873L418.96 98.8925V88.9321L427.586 83.9519Z" fill="#2C7BBD"/>
<path d="M407.665 64.7424L416.291 69.7226V79.6831L407.665 84.6633L399.04 79.6831V69.7226L407.665 64.7424Z" fill="#2C7BBD"/>
<path d="M387.745 44.8218L396.371 49.802V59.7624L387.745 64.7426L379.119 59.7624V49.802L387.745 44.8218Z" fill="#2C7BBD"/>
<path d="M371.381 25.6125L380.007 30.5928V40.5532L371.381 45.5334L362.755 40.5532V30.5928L371.381 25.6125Z" fill="#2C7BBD"/>
<path d="M350.749 5.69165L359.374 10.6719V20.6323L350.749 25.6125L342.123 20.6323V10.6719L350.749 5.69165Z" fill="#2C7BBD"/>
<path d="M942.681 122.371C870.112 122.371 841.891 10.6719 785.448 10.6719C729.006 10.6719 700.785 122.371 628.216 122.371" stroke="#382661" stroke-width="1.77802"/>
<path d="M940.932 5.25405L949.083 0.547679L957.235 5.25405V14.6668L949.083 19.3732L940.932 14.6668V5.25405Z" fill="#2C7BBD" stroke="#0E1923" stroke-width="0.948609"/>
<path d="M910.34 10.9459L918.492 6.23957L926.643 10.9459V20.3587L918.492 25.0651L910.34 20.3587V10.9459Z" fill="#2C7BBD" stroke="#0E1923" stroke-width="0.948609"/>
<path d="M890.419 30.8666L898.571 26.1602L906.722 30.8666V40.2793L898.571 44.9857L890.419 40.2793V30.8666Z" fill="#2C7BBD" stroke="#0E1923" stroke-width="0.948609"/>
<path d="M870.498 50.0761L878.65 45.3697L886.802 50.0761V59.4888L878.65 64.1952L870.498 59.4888V50.0761Z" fill="#2C7BBD" stroke="#0E1923" stroke-width="0.948609"/>
<path d="M850.577 69.9967L858.729 65.2904L866.881 69.9967V79.4095L858.729 84.1158L850.577 79.4095V69.9967Z" fill="#2C7BBD" stroke="#0E1923" stroke-width="0.948609"/>
<path d="M829.945 89.2062L838.097 84.4998L846.249 89.2062V98.6189L838.097 103.325L829.945 98.6189V89.2062Z" fill="#2C7BBD" stroke="#0E1923" stroke-width="0.948609"/>
<path d="M805.755 106.993L813.907 102.286L822.058 106.993V116.405L813.907 121.112L805.755 116.405V106.993Z" fill="#2C7BBD" stroke="#0E1923" stroke-width="0.948609"/>
<path d="M789.717 104.584L798.343 109.564V119.525L789.717 124.505L781.091 119.525V109.564L789.717 104.584Z" fill="#2C7BBD"/>
<path d="M764.817 101.739L773.443 106.719V116.679L764.817 121.659L756.191 116.679V106.719L764.817 101.739Z" fill="#2C7BBD"/>
<path d="M741.338 83.9521L749.964 88.9324V98.8928L741.338 103.873L732.712 98.8928V88.9324L741.338 83.9521Z" fill="#2C7BBD"/>
<path d="M721.417 64.7427L730.043 69.7229V79.6833L721.417 84.6635L712.791 79.6833V69.7229L721.417 64.7427Z" fill="#2C7BBD"/>
<path d="M701.497 44.822L710.123 49.8022V59.7626L701.497 64.7429L692.871 59.7626V49.8022L701.497 44.822Z" fill="#2C7BBD"/>
<path d="M685.133 25.6125L693.759 30.5928V40.5532L685.133 45.5334L676.507 40.5532V30.5928L685.133 25.6125Z" fill="#2C7BBD"/>
<path d="M664.501 5.69189L673.127 10.6721V20.6325L664.501 25.6127L655.875 20.6325V10.6721L664.501 5.69189Z" fill="#2C7BBD"/>
<path d="M1256.43 122.371C1183.86 122.371 1155.64 10.6721 1099.2 10.6721C1042.76 10.6721 1014.54 122.371 941.968 122.371" stroke="#0E1923" stroke-width="1.77802"/>
<path d="M1224.09 10.9459L1232.24 6.23957L1240.4 10.9459V20.3587L1232.24 25.0651L1224.09 20.3587V10.9459Z" fill="#2C7BBD" stroke="#0E1923" stroke-width="0.948609"/>
<path d="M1204.17 30.8666L1212.32 26.1602L1220.47 30.8666V40.2793L1212.32 44.9857L1204.17 40.2793V30.8666Z" fill="#2C7BBD" stroke="#0E1923" stroke-width="0.948609"/>
<path d="M1184.25 50.0761L1192.4 45.3697L1200.55 50.0761V59.4888L1192.4 64.1952L1184.25 59.4888V50.0761Z" fill="#2C7BBD" stroke="#0E1923" stroke-width="0.948609"/>
<path d="M1164.33 69.9967L1172.48 65.2904L1180.63 69.9967V79.4095L1172.48 84.1158L1164.33 79.4095V69.9967Z" fill="#2C7BBD" stroke="#0E1923" stroke-width="0.948609"/>
<path d="M1143.7 89.2062L1151.85 84.4998L1160 89.2062V98.6189L1151.85 103.325L1143.7 98.6189V89.2062Z" fill="#2C7BBD" stroke="#0E1923" stroke-width="0.948609"/>
<path d="M1120.22 106.993L1128.37 102.286L1136.52 106.993V116.405L1128.37 121.112L1120.22 116.405V106.993Z" fill="#2C7BBD" stroke="#0E1923" stroke-width="0.948609"/>
<path d="M1095.32 109.838L1103.47 105.132L1111.62 109.838V119.251L1103.47 123.957L1095.32 119.251V109.838Z" fill="#2C7BBD" stroke="#0E1923" stroke-width="0.948609"/>
<path d="M1070.42 106.993L1078.57 102.286L1086.72 106.993V116.405L1078.57 121.112L1070.42 116.405V106.993Z" fill="#2C7BBD" stroke="#0E1923" stroke-width="0.948609"/>
<path d="M1046.94 89.2062L1055.09 84.4998L1063.24 89.2062V98.6189L1055.09 103.325L1046.94 98.6189V89.2062Z" fill="#2C7BBD" stroke="#0E1923" stroke-width="0.948609"/>
<path d="M1027.02 69.9967L1035.17 65.2904L1043.32 69.9967V79.4095L1035.17 84.1158L1027.02 79.4095V69.9967Z" fill="#2C7BBD" stroke="#0E1923" stroke-width="0.948609"/>
<path d="M1007.1 50.0761L1015.25 45.3697L1023.4 50.0761V59.4888L1015.25 64.1952L1007.1 59.4888V50.0761Z" fill="#2C7BBD" stroke="#0E1923" stroke-width="0.948609"/>
<path d="M990.735 30.8666L998.886 26.1602L1007.04 30.8666V40.2793L998.886 44.9857L990.735 40.2793V30.8666Z" fill="#2C7BBD" stroke="#0E1923" stroke-width="0.948609"/>
<path d="M970.102 10.9459L978.253 6.23957L986.405 10.9459V20.3587L978.253 25.0651L970.102 20.3587V10.9459Z" fill="#2C7BBD" stroke="#0E1923" stroke-width="0.948609"/>
</svg>
