<svg width="588" height="639" viewBox="0 0 588 639" fill="none" xmlns="http://www.w3.org/2000/svg">
<path d="M17.8182 0H565.727L588 39.5L565.727 79H17.8182L0 39.5L17.8182 0Z" fill="#382661"/>
<path d="M17.8182 93H565.727L588 132.5L565.727 172H17.8182L0 132.5L17.8182 93Z" fill="#5F2A8D"/>
<path d="M17.8182 186H565.727L588 225.5L565.727 265H17.8182L0 225.5L17.8182 186Z" fill="#4855A2"/>
<path d="M17.8182 280H565.727L588 319.5L565.727 359H17.8182L0 319.5L17.8182 280Z" fill="#2C7BBD"/>
<path d="M17.8182 373H565.727L588 412.5L565.727 452H17.8182L0 412.5L17.8182 373Z" fill="#1A8CA9"/>
<path d="M17.8182 466H565.727L588 505.5L565.727 545H17.8182L0 505.5L17.8182 466Z" fill="#382661"/>
<path d="M17.8182 560H565.727L588 599.5L565.727 639H17.8182L0 599.5L17.8182 560Z" fill="#5F2A8D"/>
</svg>
