<svg width="763" height="108" viewBox="0 0 763 108" fill="none" xmlns="http://www.w3.org/2000/svg">
<line x1="543.553" y1="52.4696" x2="762.682" y2="52.4696" stroke="#382661" stroke-width="1.77864" stroke-dasharray="18.97 18.97"/>
<path d="M521.188 46.3471L522.769 49.1392L494.522 49.0406L494.874 48.4309L496.126 46.2597L496.146 46.2597L496.205 46.2599L496.265 46.2601L496.324 46.2603L496.384 46.2606L496.443 46.2608L496.503 46.261L496.563 46.2612L496.624 46.2614L496.684 46.2616L496.744 46.2618L496.805 46.262L496.865 46.2622L496.926 46.2624L496.987 46.2627L497.048 46.2629L497.109 46.2631L497.17 46.2633L497.231 46.2635L497.293 46.2637L497.354 46.2639L497.416 46.2642L497.477 46.2644L497.539 46.2646L497.601 46.2648L497.663 46.265L497.725 46.2652L497.787 46.2655L497.849 46.2657L497.912 46.2659L497.974 46.2661L498.037 46.2663L498.099 46.2665L498.162 46.2668L498.225 46.267L498.288 46.2672L498.351 46.2674L498.414 46.2676L498.477 46.2679L498.541 46.2681L498.604 46.2683L498.667 46.2685L498.731 46.2687L498.795 46.269L498.858 46.2692L498.922 46.2694L498.986 46.2696L499.05 46.2699L499.114 46.2701L499.178 46.2703L499.242 46.2705L499.307 46.2708L499.371 46.271L499.435 46.2712L499.5 46.2714L499.564 46.2717L499.629 46.2719L499.694 46.2721L499.759 46.2723L499.823 46.2726L499.888 46.2728L499.953 46.273L500.018 46.2732L500.083 46.2735L500.149 46.2737L500.214 46.2739L500.279 46.2742L500.345 46.2744L500.41 46.2746L500.475 46.2748L500.541 46.2751L500.607 46.2753L500.672 46.2755L500.738 46.2758L500.804 46.276L500.87 46.2762L500.935 46.2764L501.001 46.2767L501.067 46.2769L501.133 46.2771L501.199 46.2774L501.265 46.2776L501.332 46.2778L501.398 46.2781L501.464 46.2783L501.53 46.2785L501.597 46.2788L501.663 46.279L501.73 46.2792L501.796 46.2794L501.862 46.2797L501.929 46.2799L501.996 46.2801L502.062 46.2804L502.129 46.2806L502.196 46.2808L502.262 46.2811L502.329 46.2813L502.396 46.2815L502.463 46.2818L502.529 46.282L502.596 46.2822L502.663 46.2825L502.73 46.2827L502.797 46.2829L502.864 46.2832L502.931 46.2834L502.998 46.2836L503.065 46.2839L503.132 46.2841L503.199 46.2843L503.266 46.2846L503.333 46.2848L503.401 46.285L503.468 46.2853L503.535 46.2855L503.602 46.2858L503.669 46.286L503.737 46.2862L503.804 46.2865L503.871 46.2867L503.938 46.2869L504.006 46.2872L504.073 46.2874L504.14 46.2876L504.207 46.2879L504.275 46.2881L504.342 46.2883L504.409 46.2886L504.476 46.2888L504.544 46.289L504.611 46.2893L504.678 46.2895L504.746 46.2897L504.813 46.29L504.88 46.2902L504.947 46.2904L505.015 46.2907L505.082 46.2909L505.149 46.2912L505.217 46.2914L505.284 46.2916L505.351 46.2919L505.418 46.2921L505.485 46.2923L505.553 46.2926L505.62 46.2928L505.687 46.293L505.754 46.2933L505.821 46.2935L505.888 46.2937L505.955 46.294L506.023 46.2942L506.09 46.2944L506.157 46.2947L506.224 46.2949L506.291 46.2951L506.358 46.2954L506.425 46.2956L506.491 46.2958L506.558 46.2961L506.625 46.2963L506.692 46.2965L506.759 46.2968L506.826 46.297L506.892 46.2972L506.959 46.2975L507.026 46.2977L507.092 46.2979L507.159 46.2982L507.226 46.2984L507.292 46.2986L507.359 46.2989L507.425 46.2991L507.491 46.2993L507.558 46.2996L507.624 46.2998L507.69 46.3L507.757 46.3003L507.823 46.3005L507.889 46.3007L507.955 46.3009L508.021 46.3012L508.087 46.3014L508.153 46.3016L508.219 46.3019L508.285 46.3021L508.351 46.3023L508.416 46.3026L508.482 46.3028L508.548 46.303L508.613 46.3032L508.679 46.3035L508.744 46.3037L508.81 46.3039L508.875 46.3042L508.94 46.3044L509.005 46.3046L509.071 46.3048L509.136 46.3051L509.201 46.3053L509.266 46.3055L509.331 46.3057L509.395 46.306L509.46 46.3062L509.525 46.3064L509.589 46.3067L509.654 46.3069L509.718 46.3071L509.783 46.3073L509.847 46.3076L509.911 46.3078L509.976 46.308L510.04 46.3082L510.104 46.3084L510.168 46.3087L510.231 46.3089L510.295 46.3091L510.359 46.3093L510.422 46.3096L510.486 46.3098L510.549 46.31L510.613 46.3102L510.676 46.3104L510.739 46.3107L510.802 46.3109L510.865 46.3111L510.928 46.3113L510.991 46.3115L511.054 46.3118L511.116 46.312L511.179 46.3122L511.241 46.3124L511.304 46.3126L511.366 46.3129L511.428 46.3131L511.49 46.3133L511.552 46.3135L511.614 46.3137L511.676 46.3139L511.737 46.3141L511.799 46.3144L511.86 46.3146L511.922 46.3148L511.983 46.315L512.044 46.3152L512.105 46.3154L512.166 46.3156L512.227 46.3159L512.287 46.3161L512.348 46.3163L512.408 46.3165L512.469 46.3167L512.529 46.3169L512.589 46.3171L512.649 46.3173L512.709 46.3175L512.768 46.3177L512.828 46.318L512.888 46.3182L512.947 46.3184L513.006 46.3186L513.065 46.3188L513.124 46.319L513.183 46.3192L513.242 46.3194L513.301 46.3196L513.359 46.3198L513.417 46.32L513.476 46.3202L513.534 46.3204L513.592 46.3206L513.65 46.3208L513.707 46.321L513.765 46.3212L513.822 46.3214L513.88 46.3216L513.937 46.3218L513.994 46.322L514.051 46.3222L514.107 46.3224L514.164 46.3226L514.22 46.3228L514.277 46.323L514.333 46.3232L514.389 46.3234L514.445 46.3236L514.5 46.3238L514.556 46.324L514.611 46.3242L514.667 46.3244L514.722 46.3246L514.777 46.3248L514.832 46.3249L514.886 46.3251L514.941 46.3253L514.995 46.3255L515.049 46.3257L515.103 46.3259L515.157 46.3261L515.211 46.3263L515.265 46.3265L515.318 46.3266L515.371 46.3268L515.424 46.327L515.477 46.3272L515.53 46.3274L515.582 46.3276L515.635 46.3278L515.687 46.3279L515.739 46.3281L515.791 46.3283L515.843 46.3285L515.894 46.3287L515.946 46.3288L515.997 46.329L516.048 46.3292L516.099 46.3294L516.149 46.3295L516.2 46.3297L516.25 46.3299L516.3 46.3301L516.35 46.3303L516.4 46.3304L516.45 46.3306L516.499 46.3308L516.548 46.3309L516.597 46.3311L516.646 46.3313L516.695 46.3315L516.743 46.3316L516.792 46.3318L516.84 46.332L516.888 46.3321L516.935 46.3323L516.983 46.3325L517.03 46.3326L517.077 46.3328L517.124 46.333L517.171 46.3331L517.218 46.3333L517.264 46.3334L517.31 46.3336L517.356 46.3338L517.402 46.3339L517.447 46.3341L517.493 46.3342L517.538 46.3344L517.583 46.3346L517.627 46.3347L517.672 46.3349L517.716 46.335L517.76 46.3352L517.804 46.3353L517.848 46.3355L517.891 46.3356L517.935 46.3358L517.978 46.3359L518.02 46.3361L518.063 46.3362L518.105 46.3364L518.148 46.3365L518.189 46.3367L518.231 46.3368L518.273 46.337L518.314 46.3371L518.355 46.3372L518.396 46.3374L518.437 46.3375L518.477 46.3377L518.517 46.3378L518.557 46.338L518.597 46.3381L518.636 46.3382L518.675 46.3384L518.714 46.3385L518.753 46.3386L518.792 46.3388L518.83 46.3389L518.868 46.339L518.906 46.3392L518.944 46.3393L518.981 46.3394L519.018 46.3396L519.055 46.3397L519.092 46.3398L519.128 46.3399L519.164 46.3401L519.2 46.3402L519.236 46.3403L519.271 46.3404L519.306 46.3406L519.341 46.3407L519.376 46.3408L519.411 46.3409L519.445 46.3411L519.479 46.3412L519.512 46.3413L519.546 46.3414L519.579 46.3415L519.612 46.3416L519.645 46.3417L519.677 46.3419L519.709 46.342L519.741 46.3421L519.773 46.3422L519.804 46.3423L519.835 46.3424L519.866 46.3425L519.897 46.3426L519.927 46.3427L519.957 46.3428L519.987 46.3429L520.016 46.343L520.046 46.3431L520.075 46.3433L520.103 46.3434L520.132 46.3435L520.16 46.3435L520.188 46.3436L520.215 46.3437L520.243 46.3438L520.27 46.3439L520.297 46.344L520.323 46.3441L520.349 46.3442L520.375 46.3443L520.401 46.3444L520.427 46.3445L520.452 46.3446L520.477 46.3447L520.501 46.3447L520.525 46.3448L520.549 46.3449L520.573 46.345L520.596 46.3451L520.62 46.3452L520.642 46.3452L520.665 46.3453L520.687 46.3454L520.709 46.3455L520.731 46.3455L520.752 46.3456L520.773 46.3457L520.794 46.3458L520.814 46.3458L520.835 46.3459L520.855 46.346L520.874 46.346L520.893 46.3461L520.912 46.3462L520.931 46.3462L520.949 46.3463L520.967 46.3464L520.985 46.3464L521.003 46.3465L521.02 46.3466L521.037 46.3466L521.053 46.3467L521.069 46.3467L521.085 46.3468L521.101 46.3468L521.116 46.3469L521.131 46.3469L521.146 46.347L521.16 46.347L521.174 46.3471L521.188 46.3471L521.188 46.3471ZM500.302 67.7367L498.722 64.9446L518.431 65.0134L516.827 67.7944L500.302 67.7367ZM518.977 64.0667L498.184 63.9941L496.731 61.4266L496.604 61.202L520.582 61.2857L518.977 64.0667ZM521.128 60.339L496.066 60.2515L495.142 58.6197L494.486 57.4595L522.732 57.5581L521.128 60.339ZM523.278 56.6113L493.948 56.509L492.367 53.7169L524.883 53.8304L523.278 56.6113ZM523.306 50.0897L524.887 52.8818L492.372 52.7683L493.976 49.9873L523.306 50.0897ZM496.673 45.3129L497.339 44.1573L498.277 42.532L498.293 42.532L498.342 42.5322L498.39 42.5324L498.438 42.5325L498.486 42.5327L498.534 42.5329L498.582 42.5331L498.63 42.5332L498.677 42.5334L498.725 42.5336L498.773 42.5337L498.82 42.5339L498.868 42.534L498.915 42.5342L498.962 42.5344L499.009 42.5345L499.056 42.5347L499.103 42.5349L499.15 42.535L499.197 42.5352L499.244 42.5354L499.291 42.5355L499.338 42.5357L499.384 42.5359L499.431 42.536L499.477 42.5362L499.523 42.5363L499.57 42.5365L499.616 42.5367L499.662 42.5368L499.708 42.537L499.754 42.5371L499.8 42.5373L499.846 42.5375L499.892 42.5376L499.937 42.5378L499.983 42.5379L500.029 42.5381L500.074 42.5383L500.12 42.5384L500.165 42.5386L500.21 42.5387L500.255 42.5389L500.301 42.539L500.346 42.5392L500.391 42.5394L500.436 42.5395L500.481 42.5397L500.525 42.5398L500.57 42.54L500.615 42.5401L500.659 42.5403L500.704 42.5405L500.749 42.5406L500.793 42.5408L500.837 42.5409L500.882 42.5411L500.926 42.5412L500.97 42.5414L501.014 42.5415L501.058 42.5417L501.102 42.5418L501.146 42.542L501.19 42.5422L501.234 42.5423L501.278 42.5425L501.321 42.5426L501.365 42.5428L501.408 42.5429L501.452 42.5431L501.495 42.5432L501.539 42.5434L501.582 42.5435L501.625 42.5437L501.669 42.5438L501.712 42.544L501.755 42.5441L501.798 42.5443L501.841 42.5444L501.884 42.5446L501.927 42.5447L501.969 42.5449L502.012 42.545L502.055 42.5452L502.098 42.5453L502.14 42.5455L502.183 42.5456L502.225 42.5458L502.268 42.5459L502.31 42.5461L502.352 42.5462L502.395 42.5464L502.437 42.5465L502.479 42.5467L502.521 42.5468L502.563 42.5469L502.605 42.5471L502.647 42.5472L502.689 42.5474L502.731 42.5475L502.773 42.5477L502.815 42.5478L502.856 42.548L502.898 42.5481L502.94 42.5483L502.981 42.5484L503.023 42.5486L503.064 42.5487L503.106 42.5488L503.147 42.549L503.188 42.5491L503.23 42.5493L503.271 42.5494L503.312 42.5496L503.353 42.5497L503.394 42.5498L503.435 42.55L503.476 42.5501L503.517 42.5503L503.558 42.5504L503.599 42.5506L503.64 42.5507L503.681 42.5508L503.722 42.551L503.762 42.5511L503.803 42.5513L503.844 42.5514L503.884 42.5516L503.925 42.5517L503.965 42.5518L504.006 42.552L504.046 42.5521L504.087 42.5523L504.127 42.5524L504.167 42.5525L504.208 42.5527L504.248 42.5528L504.288 42.553L504.328 42.5531L504.369 42.5532L504.409 42.5534L504.449 42.5535L504.489 42.5537L504.529 42.5538L504.569 42.5539L504.609 42.5541L504.649 42.5542L504.688 42.5544L504.728 42.5545L504.768 42.5546L504.808 42.5548L504.848 42.5549L504.887 42.5551L504.927 42.5552L504.967 42.5553L505.006 42.5555L505.046 42.5556L505.085 42.5558L505.125 42.5559L505.164 42.556L505.204 42.5562L505.243 42.5563L505.283 42.5564L505.322 42.5566L505.361 42.5567L505.401 42.5569L505.44 42.557L505.479 42.5571L505.518 42.5573L505.558 42.5574L505.597 42.5575L505.636 42.5577L505.675 42.5578L505.714 42.5579L505.753 42.5581L505.792 42.5582L505.831 42.5584L505.87 42.5585L505.909 42.5586L505.948 42.5588L505.987 42.5589L506.026 42.559L506.065 42.5592L506.104 42.5593L506.143 42.5594L506.181 42.5596L506.22 42.5597L506.259 42.5598L506.298 42.56L506.336 42.5601L506.375 42.5603L506.414 42.5604L506.452 42.5605L506.491 42.5607L506.53 42.5608L506.568 42.5609L506.607 42.5611L506.646 42.5612L506.684 42.5613L506.723 42.5615L506.761 42.5616L506.8 42.5617L506.838 42.5619L506.877 42.562L506.915 42.5621L506.954 42.5623L506.992 42.5624L507.03 42.5625L507.069 42.5627L507.107 42.5628L507.146 42.5629L507.184 42.5631L507.222 42.5632L507.261 42.5633L507.299 42.5635L507.337 42.5636L507.376 42.5637L507.414 42.5639L507.452 42.564L507.49 42.5641L507.529 42.5643L507.567 42.5644L507.605 42.5645L507.643 42.5647L507.682 42.5648L507.72 42.5649L507.758 42.5651L507.796 42.5652L507.834 42.5653L507.873 42.5655L507.911 42.5656L507.949 42.5657L507.987 42.5659L508.025 42.566L508.064 42.5661L508.102 42.5663L508.14 42.5664L508.178 42.5665L508.216 42.5667L508.254 42.5668L508.292 42.5669L508.33 42.5671L508.369 42.5672L508.407 42.5673L508.445 42.5675L508.483 42.5676L508.521 42.5677L508.559 42.5679L508.597 42.568L508.635 42.5681L508.673 42.5683L508.712 42.5684L508.75 42.5685L508.788 42.5687L508.826 42.5688L508.864 42.5689L508.902 42.5691L508.94 42.5692L508.978 42.5693L509.017 42.5695L509.055 42.5696L509.093 42.5697L509.131 42.5699L509.169 42.57L509.207 42.5701L509.245 42.5703L509.283 42.5704L509.322 42.5705L509.36 42.5707L509.398 42.5708L509.436 42.5709L509.474 42.5711L509.513 42.5712L509.551 42.5713L509.589 42.5715L509.627 42.5716L509.665 42.5717L509.704 42.5719L509.742 42.572L509.78 42.5721L509.818 42.5723L509.857 42.5724L509.895 42.5725L509.933 42.5727L509.971 42.5728L510.01 42.5729L510.048 42.5731L510.086 42.5732L510.125 42.5733L510.163 42.5735L510.201 42.5736L510.24 42.5737L510.278 42.5739L510.317 42.574L510.355 42.5741L510.393 42.5743L510.432 42.5744L510.47 42.5745L510.509 42.5747L510.547 42.5748L510.586 42.575L510.624 42.5751L510.663 42.5752L510.701 42.5754L510.74 42.5755L510.779 42.5756L510.817 42.5758L510.856 42.5759L510.895 42.576L510.933 42.5762L510.972 42.5763L511.011 42.5764L511.049 42.5766L511.088 42.5767L511.127 42.5768L511.166 42.577L511.204 42.5771L511.243 42.5772L511.282 42.5774L511.321 42.5775L511.36 42.5777L511.399 42.5778L511.438 42.5779L511.477 42.5781L511.516 42.5782L511.555 42.5783L511.594 42.5785L511.633 42.5786L511.672 42.5787L511.711 42.5789L511.75 42.579L511.789 42.5792L511.829 42.5793L511.868 42.5794L511.907 42.5796L511.946 42.5797L511.986 42.5798L512.025 42.58L512.064 42.5801L512.104 42.5803L512.143 42.5804L512.183 42.5805L512.222 42.5807L512.262 42.5808L512.301 42.5809L512.341 42.5811L512.38 42.5812L512.42 42.5814L512.46 42.5815L512.499 42.5816L512.539 42.5818L512.579 42.5819L512.619 42.582L512.659 42.5822L512.698 42.5823L512.738 42.5825L512.778 42.5826L512.818 42.5827L512.858 42.5829L512.898 42.583L512.938 42.5832L512.978 42.5833L513.019 42.5834L513.059 42.5836L513.099 42.5837L513.139 42.5839L513.18 42.584L513.22 42.5841L513.26 42.5843L513.301 42.5844L513.341 42.5846L513.382 42.5847L513.422 42.5849L513.463 42.585L513.503 42.5851L513.544 42.5853L513.585 42.5854L513.625 42.5856L513.666 42.5857L513.707 42.5858L513.748 42.586L513.789 42.5861L513.83 42.5863L513.871 42.5864L513.912 42.5866L513.953 42.5867L513.994 42.5868L514.035 42.587L514.076 42.5871L514.117 42.5873L514.159 42.5874L514.2 42.5876L514.241 42.5877L514.283 42.5879L514.324 42.588L514.366 42.5881L514.407 42.5883L514.449 42.5884L514.491 42.5886L514.532 42.5887L514.574 42.5889L514.616 42.589L514.658 42.5892L514.7 42.5893L514.742 42.5895L514.784 42.5896L514.826 42.5898L514.868 42.5899L514.91 42.59L514.952 42.5902L514.995 42.5903L515.037 42.5905L515.079 42.5906L515.122 42.5908L515.164 42.5909L515.207 42.5911L515.249 42.5912L515.292 42.5914L515.335 42.5915L515.378 42.5917L515.42 42.5918L515.463 42.592L515.506 42.5921L515.549 42.5923L515.592 42.5924L515.635 42.5926L515.678 42.5927L515.722 42.5929L515.765 42.593L515.808 42.5932L515.852 42.5933L515.895 42.5935L515.939 42.5936L515.982 42.5938L516.026 42.5939L516.069 42.5941L516.113 42.5942L516.157 42.5944L516.201 42.5946L516.245 42.5947L516.289 42.5949L516.333 42.595L516.377 42.5952L516.421 42.5953L516.465 42.5955L516.51 42.5956L516.554 42.5958L516.598 42.5959L516.643 42.5961L516.688 42.5963L516.732 42.5964L516.777 42.5966L516.822 42.5967L516.866 42.5969L516.911 42.597L516.956 42.5972L517.001 42.5973L517.046 42.5975L517.092 42.5977L517.137 42.5978L517.182 42.598L517.227 42.5981L517.273 42.5983L517.318 42.5985L517.364 42.5986L517.41 42.5988L517.455 42.5989L517.501 42.5991L517.547 42.5993L517.593 42.5994L517.639 42.5996L517.685 42.5997L517.731 42.5999L517.777 42.6001L517.824 42.6002L517.87 42.6004L517.916 42.6005L517.963 42.6007L518.009 42.6009L518.056 42.601L518.103 42.6012L518.15 42.6014L518.197 42.6015L518.244 42.6017L518.291 42.6018L518.338 42.602L518.385 42.6022L518.432 42.6023L518.479 42.6025L518.527 42.6027L518.574 42.6028L518.622 42.603L518.67 42.6032L518.717 42.6033L518.765 42.6035L518.813 42.6037L518.861 42.6038L518.909 42.604L518.957 42.6042L519.005 42.6043L519.054 42.6045L519.07 42.6046L520.304 44.7845L520.65 45.3966L520.646 45.3966L520.624 45.3966L520.601 45.3965L520.577 45.3964L520.553 45.3963L520.529 45.3962L520.505 45.3961L520.481 45.3961L520.456 45.396L520.431 45.3959L520.405 45.3958L520.38 45.3957L520.354 45.3956L520.327 45.3955L520.301 45.3954L520.274 45.3953L520.247 45.3952L520.22 45.3951L520.192 45.395L520.164 45.3949L520.136 45.3949L520.107 45.3948L520.079 45.3947L520.05 45.3945L520.02 45.3944L519.991 45.3943L519.961 45.3942L519.931 45.3941L519.901 45.394L519.87 45.3939L519.839 45.3938L519.808 45.3937L519.777 45.3936L519.745 45.3935L519.713 45.3934L519.681 45.3933L519.649 45.3931L519.616 45.393L519.583 45.3929L519.55 45.3928L519.516 45.3927L519.483 45.3926L519.449 45.3925L519.415 45.3923L519.38 45.3922L519.345 45.3921L519.311 45.392L519.275 45.3918L519.24 45.3917L519.204 45.3916L519.168 45.3915L519.132 45.3913L519.096 45.3912L519.059 45.3911L519.022 45.391L518.985 45.3908L518.948 45.3907L518.91 45.3906L518.872 45.3904L518.834 45.3903L518.796 45.3902L518.757 45.39L518.719 45.3899L518.68 45.3898L518.64 45.3896L518.601 45.3895L518.561 45.3894L518.521 45.3892L518.481 45.3891L518.441 45.3889L518.4 45.3888L518.359 45.3886L518.318 45.3885L518.277 45.3884L518.235 45.3882L518.194 45.3881L518.152 45.3879L518.109 45.3878L518.067 45.3876L518.024 45.3875L517.982 45.3873L517.939 45.3872L517.895 45.387L517.852 45.3869L517.808 45.3867L517.764 45.3866L517.72 45.3864L517.676 45.3863L517.632 45.3861L517.587 45.386L517.542 45.3858L517.497 45.3856L517.451 45.3855L517.406 45.3853L517.36 45.3852L517.314 45.385L517.268 45.3848L517.222 45.3847L517.175 45.3845L517.128 45.3844L517.081 45.3842L517.034 45.384L516.987 45.3839L516.94 45.3837L516.892 45.3835L516.844 45.3834L516.796 45.3832L516.748 45.383L516.699 45.3829L516.65 45.3827L516.602 45.3825L516.552 45.3823L516.503 45.3822L516.454 45.382L516.404 45.3818L516.354 45.3817L516.305 45.3815L516.254 45.3813L516.204 45.3811L516.154 45.3809L516.103 45.3808L516.052 45.3806L516.001 45.3804L515.95 45.3802L515.898 45.3801L515.847 45.3799L515.795 45.3797L515.743 45.3795L515.691 45.3793L515.639 45.3792L515.587 45.379L515.534 45.3788L515.481 45.3786L515.428 45.3784L515.375 45.3782L515.322 45.378L515.269 45.3779L515.215 45.3777L515.161 45.3775L515.108 45.3773L515.053 45.3771L514.999 45.3769L514.945 45.3767L514.89 45.3765L514.836 45.3763L514.781 45.3762L514.726 45.376L514.671 45.3758L514.616 45.3756L514.56 45.3754L514.505 45.3752L514.449 45.375L514.393 45.3748L514.337 45.3746L514.281 45.3744L514.224 45.3742L514.168 45.374L514.111 45.3738L514.055 45.3736L513.998 45.3734L513.941 45.3732L513.884 45.373L513.826 45.3728L513.769 45.3726L513.711 45.3724L513.654 45.3722L513.596 45.372L513.538 45.3718L513.48 45.3716L513.422 45.3714L513.363 45.3712L513.305 45.371L513.246 45.3708L513.187 45.3706L513.128 45.3704L513.069 45.3702L513.01 45.37L512.951 45.3698L512.892 45.3696L512.832 45.3694L512.772 45.3691L512.713 45.3689L512.653 45.3687L512.593 45.3685L512.533 45.3683L512.473 45.3681L512.412 45.3679L512.352 45.3677L512.291 45.3675L512.231 45.3673L512.17 45.367L512.109 45.3668L512.048 45.3666L511.987 45.3664L511.926 45.3662L511.864 45.366L511.803 45.3658L511.741 45.3655L511.68 45.3653L511.618 45.3651L511.556 45.3649L511.494 45.3647L511.432 45.3645L511.37 45.3643L511.308 45.364L511.245 45.3638L511.183 45.3636L511.12 45.3634L511.058 45.3632L510.995 45.3629L510.932 45.3627L510.869 45.3625L510.806 45.3623L510.743 45.3621L510.68 45.3618L510.617 45.3616L510.554 45.3614L510.49 45.3612L510.427 45.361L510.363 45.3607L510.299 45.3605L510.235 45.3603L510.172 45.3601L510.108 45.3598L510.044 45.3596L509.98 45.3594L509.915 45.3592L509.851 45.359L509.787 45.3587L509.722 45.3585L509.658 45.3583L509.593 45.3581L509.529 45.3578L509.464 45.3576L509.399 45.3574L509.335 45.3571L509.27 45.3569L509.205 45.3567L509.14 45.3565L509.075 45.3562L509.01 45.356L508.944 45.3558L508.879 45.3556L508.814 45.3553L508.748 45.3551L508.683 45.3549L508.617 45.3546L508.552 45.3544L508.486 45.3542L508.42 45.354L508.355 45.3537L508.289 45.3535L508.223 45.3533L508.157 45.353L508.091 45.3528L508.025 45.3526L507.959 45.3523L507.893 45.3521L507.827 45.3519L507.761 45.3517L507.694 45.3514L507.628 45.3512L507.562 45.351L507.496 45.3507L507.429 45.3505L507.363 45.3503L507.296 45.35L507.23 45.3498L507.163 45.3496L507.096 45.3493L507.03 45.3491L506.963 45.3489L506.896 45.3486L506.83 45.3484L506.763 45.3482L506.696 45.3479L506.629 45.3477L506.562 45.3475L506.496 45.3472L506.429 45.347L506.362 45.3468L506.295 45.3465L506.228 45.3463L506.161 45.3461L506.094 45.3458L506.027 45.3456L505.96 45.3454L505.892 45.3451L505.825 45.3449L505.758 45.3447L505.691 45.3444L505.624 45.3442L505.557 45.344L505.49 45.3437L505.422 45.3435L505.355 45.3433L505.288 45.343L505.221 45.3428L505.153 45.3426L505.086 45.3423L505.019 45.3421L504.952 45.3418L504.884 45.3416L504.817 45.3414L504.75 45.3411L504.682 45.3409L504.615 45.3407L504.548 45.3404L504.481 45.3402L504.413 45.34L504.346 45.3397L504.279 45.3395L504.211 45.3393L504.144 45.339L504.077 45.3388L504.01 45.3386L503.942 45.3383L503.875 45.3381L503.808 45.3379L503.741 45.3376L503.673 45.3374L503.606 45.3372L503.539 45.3369L503.472 45.3367L503.405 45.3364L503.338 45.3362L503.27 45.336L503.203 45.3357L503.136 45.3355L503.069 45.3353L503.002 45.335L502.935 45.3348L502.868 45.3346L502.801 45.3343L502.734 45.3341L502.667 45.3339L502.6 45.3336L502.534 45.3334L502.467 45.3332L502.4 45.3329L502.333 45.3327L502.266 45.3325L502.2 45.3322L502.133 45.332L502.066 45.3318L502 45.3315L501.933 45.3313L501.867 45.3311L501.8 45.3308L501.734 45.3306L501.667 45.3304L501.601 45.3302L501.534 45.3299L501.468 45.3297L501.402 45.3295L501.336 45.3292L501.27 45.329L501.203 45.3288L501.137 45.3285L501.071 45.3283L501.005 45.3281L500.939 45.3278L500.874 45.3276L500.808 45.3274L500.742 45.3272L500.676 45.3269L500.611 45.3267L500.545 45.3265L500.48 45.3262L500.414 45.326L500.349 45.3258L500.283 45.3256L500.218 45.3253L500.153 45.3251L500.088 45.3249L500.022 45.3246L499.957 45.3244L499.892 45.3242L499.828 45.324L499.763 45.3237L499.698 45.3235L499.633 45.3233L499.569 45.3231L499.504 45.3228L499.44 45.3226L499.375 45.3224L499.311 45.3222L499.246 45.3219L499.182 45.3217L499.118 45.3215L499.054 45.3213L498.99 45.321L498.926 45.3208L498.863 45.3206L498.799 45.3204L498.735 45.3201L498.672 45.3199L498.608 45.3197L498.545 45.3195L498.481 45.3193L498.418 45.319L498.355 45.3188L498.292 45.3186L498.229 45.3184L498.166 45.3182L498.104 45.3179L498.041 45.3177L497.978 45.3175L497.916 45.3173L497.854 45.3171L497.791 45.3169L497.729 45.3166L497.667 45.3164L497.605 45.3162L497.543 45.316L497.481 45.3158L497.42 45.3156L497.358 45.3153L497.297 45.3151L497.235 45.3149L497.174 45.3147L497.113 45.3145L497.052 45.3143L496.991 45.3141L496.93 45.3138L496.869 45.3136L496.809 45.3134L496.748 45.3132L496.688 45.313L496.673 45.3129ZM498.823 41.5853L499.805 39.8837L500.347 38.9435L500.427 38.8043L516.952 38.862L517.031 39.0018L517.565 39.9457L518.532 41.6541L518.531 41.6541L518.484 41.6539L518.436 41.6537L518.389 41.6536L518.342 41.6534L518.295 41.6532L518.248 41.6531L518.201 41.6529L518.154 41.6528L518.107 41.6526L518.06 41.6524L518.014 41.6523L517.967 41.6521L517.92 41.6519L517.874 41.6518L517.828 41.6516L517.781 41.6515L517.735 41.6513L517.689 41.6511L517.643 41.651L517.597 41.6508L517.551 41.6507L517.505 41.6505L517.459 41.6503L517.414 41.6502L517.368 41.65L517.322 41.6499L517.277 41.6497L517.232 41.6495L517.186 41.6494L517.141 41.6492L517.096 41.6491L517.05 41.6489L517.005 41.6487L516.96 41.6486L516.915 41.6484L516.871 41.6483L516.826 41.6481L516.781 41.648L516.736 41.6478L516.692 41.6477L516.647 41.6475L516.603 41.6473L516.558 41.6472L516.514 41.647L516.469 41.6469L516.425 41.6467L516.381 41.6466L516.337 41.6464L516.293 41.6463L516.249 41.6461L516.205 41.646L516.161 41.6458L516.117 41.6456L516.074 41.6455L516.03 41.6453L515.986 41.6452L515.943 41.645L515.899 41.6449L515.856 41.6447L515.812 41.6446L515.769 41.6444L515.726 41.6443L515.683 41.6441L515.639 41.644L515.596 41.6438L515.553 41.6437L515.51 41.6435L515.467 41.6434L515.424 41.6432L515.382 41.6431L515.339 41.6429L515.296 41.6428L515.254 41.6426L515.211 41.6425L515.168 41.6423L515.126 41.6422L515.084 41.642L515.041 41.6419L514.999 41.6417L514.957 41.6416L514.914 41.6414L514.872 41.6413L514.83 41.6412L514.788 41.641L514.746 41.6409L514.704 41.6407L514.662 41.6406L514.62 41.6404L514.578 41.6403L514.537 41.6401L514.495 41.64L514.453 41.6398L514.412 41.6397L514.37 41.6395L514.328 41.6394L514.287 41.6393L514.246 41.6391L514.204 41.639L514.163 41.6388L514.122 41.6387L514.08 41.6385L514.039 41.6384L513.998 41.6382L513.957 41.6381L513.916 41.638L513.875 41.6378L513.834 41.6377L513.793 41.6375L513.752 41.6374L513.711 41.6372L513.67 41.6371L513.629 41.637L513.589 41.6368L513.548 41.6367L513.507 41.6365L513.467 41.6364L513.426 41.6363L513.386 41.6361L513.345 41.636L513.305 41.6358L513.264 41.6357L513.224 41.6355L513.184 41.6354L513.143 41.6353L513.103 41.6351L513.063 41.635L513.023 41.6348L512.983 41.6347L512.942 41.6346L512.902 41.6344L512.862 41.6343L512.822 41.6341L512.782 41.634L512.742 41.6339L512.702 41.6337L512.663 41.6336L512.623 41.6334L512.583 41.6333L512.543 41.6332L512.503 41.633L512.464 41.6329L512.424 41.6328L512.384 41.6326L512.345 41.6325L512.305 41.6323L512.266 41.6322L512.226 41.6321L512.187 41.6319L512.147 41.6318L512.108 41.6317L512.069 41.6315L512.029 41.6314L511.99 41.6312L511.951 41.6311L511.911 41.631L511.872 41.6308L511.833 41.6307L511.794 41.6306L511.754 41.6304L511.715 41.6303L511.676 41.6301L511.637 41.63L511.598 41.6299L511.559 41.6297L511.52 41.6296L511.481 41.6295L511.442 41.6293L511.403 41.6292L511.364 41.6291L511.325 41.6289L511.286 41.6288L511.247 41.6286L511.209 41.6285L511.17 41.6284L511.131 41.6282L511.092 41.6281L511.053 41.628L511.015 41.6278L510.976 41.6277L510.937 41.6276L510.899 41.6274L510.86 41.6273L510.821 41.6272L510.783 41.627L510.744 41.6269L510.706 41.6268L510.667 41.6266L510.628 41.6265L510.59 41.6264L510.551 41.6262L510.513 41.6261L510.474 41.6259L510.436 41.6258L510.398 41.6257L510.359 41.6255L510.321 41.6254L510.282 41.6253L510.244 41.6251L510.206 41.625L510.167 41.6249L510.129 41.6247L510.09 41.6246L510.052 41.6245L510.014 41.6243L509.976 41.6242L509.937 41.6241L509.899 41.6239L509.861 41.6238L509.822 41.6237L509.784 41.6235L509.746 41.6234L509.708 41.6233L509.669 41.6231L509.631 41.623L509.593 41.6229L509.555 41.6227L509.517 41.6226L509.478 41.6225L509.44 41.6223L509.402 41.6222L509.364 41.6221L509.326 41.6219L509.288 41.6218L509.249 41.6217L509.211 41.6215L509.173 41.6214L509.135 41.6213L509.097 41.6211L509.059 41.621L509.021 41.6209L508.983 41.6207L508.944 41.6206L508.906 41.6205L508.868 41.6203L508.83 41.6202L508.792 41.6201L508.754 41.6199L508.716 41.6198L508.678 41.6197L508.639 41.6195L508.601 41.6194L508.563 41.6193L508.525 41.6191L508.487 41.619L508.449 41.6189L508.411 41.6187L508.373 41.6186L508.335 41.6185L508.296 41.6183L508.258 41.6182L508.22 41.6181L508.182 41.6179L508.144 41.6178L508.106 41.6177L508.068 41.6175L508.029 41.6174L507.991 41.6173L507.953 41.6171L507.915 41.617L507.877 41.6169L507.839 41.6167L507.8 41.6166L507.762 41.6165L507.724 41.6163L507.686 41.6162L507.648 41.6161L507.609 41.6159L507.571 41.6158L507.533 41.6157L507.495 41.6155L507.456 41.6154L507.418 41.6153L507.38 41.6151L507.341 41.615L507.303 41.6149L507.265 41.6147L507.226 41.6146L507.188 41.6145L507.15 41.6143L507.111 41.6142L507.073 41.6141L507.035 41.6139L506.996 41.6138L506.958 41.6137L506.919 41.6135L506.881 41.6134L506.842 41.6133L506.804 41.6131L506.765 41.613L506.727 41.6129L506.688 41.6127L506.65 41.6126L506.611 41.6125L506.572 41.6123L506.534 41.6122L506.495 41.6121L506.457 41.6119L506.418 41.6118L506.379 41.6117L506.34 41.6115L506.302 41.6114L506.263 41.6112L506.224 41.6111L506.185 41.611L506.147 41.6108L506.108 41.6107L506.069 41.6106L506.03 41.6104L505.991 41.6103L505.952 41.6102L505.913 41.61L505.874 41.6099L505.835 41.6098L505.796 41.6096L505.757 41.6095L505.718 41.6093L505.679 41.6092L505.64 41.6091L505.601 41.6089L505.562 41.6088L505.522 41.6087L505.483 41.6085L505.444 41.6084L505.405 41.6083L505.365 41.6081L505.326 41.608L505.287 41.6078L505.247 41.6077L505.208 41.6076L505.168 41.6074L505.129 41.6073L505.089 41.6072L505.05 41.607L505.01 41.6069L504.971 41.6067L504.931 41.6066L504.891 41.6065L504.852 41.6063L504.812 41.6062L504.772 41.606L504.732 41.6059L504.693 41.6058L504.653 41.6056L504.613 41.6055L504.573 41.6053L504.533 41.6052L504.493 41.6051L504.453 41.6049L504.413 41.6048L504.373 41.6046L504.333 41.6045L504.292 41.6044L504.252 41.6042L504.212 41.6041L504.172 41.6039L504.131 41.6038L504.091 41.6037L504.05 41.6035L504.01 41.6034L503.97 41.6032L503.929 41.6031L503.888 41.603L503.848 41.6028L503.807 41.6027L503.767 41.6025L503.726 41.6024L503.685 41.6022L503.644 41.6021L503.603 41.602L503.562 41.6018L503.521 41.6017L503.481 41.6015L503.439 41.6014L503.398 41.6012L503.357 41.6011L503.316 41.601L503.275 41.6008L503.234 41.6007L503.192 41.6005L503.151 41.6004L503.11 41.6002L503.068 41.6001L503.027 41.6L502.985 41.5998L502.944 41.5997L502.902 41.5995L502.86 41.5994L502.819 41.5992L502.777 41.5991L502.735 41.5989L502.693 41.5988L502.651 41.5986L502.609 41.5985L502.567 41.5983L502.525 41.5982L502.483 41.5981L502.441 41.5979L502.399 41.5978L502.356 41.5976L502.314 41.5975L502.272 41.5973L502.229 41.5972L502.187 41.597L502.144 41.5969L502.102 41.5967L502.059 41.5966L502.016 41.5964L501.974 41.5963L501.931 41.5961L501.888 41.596L501.845 41.5958L501.802 41.5957L501.759 41.5955L501.716 41.5954L501.673 41.5952L501.629 41.5951L501.586 41.5949L501.543 41.5948L501.499 41.5946L501.456 41.5945L501.413 41.5943L501.369 41.5942L501.325 41.594L501.282 41.5939L501.238 41.5937L501.194 41.5936L501.15 41.5934L501.106 41.5932L501.062 41.5931L501.018 41.5929L500.974 41.5928L500.93 41.5926L500.886 41.5925L500.841 41.5923L500.797 41.5922L500.753 41.592L500.708 41.5919L500.664 41.5917L500.619 41.5915L500.574 41.5914L500.529 41.5912L500.485 41.5911L500.44 41.5909L500.395 41.5908L500.35 41.5906L500.305 41.5904L500.26 41.5903L500.214 41.5901L500.169 41.59L500.124 41.5898L500.078 41.5897L500.033 41.5895L499.987 41.5893L499.942 41.5892L499.896 41.589L499.85 41.5889L499.804 41.5887L499.758 41.5885L499.712 41.5884L499.666 41.5882L499.62 41.5881L499.574 41.5879L499.528 41.5877L499.481 41.5876L499.435 41.5874L499.388 41.5873L499.342 41.5871L499.295 41.5869L499.248 41.5868L499.201 41.5866L499.155 41.5864L499.108 41.5863L499.061 41.5861L499.013 41.5859L498.966 41.5858L498.919 41.5856L498.872 41.5854L498.824 41.5853L498.823 41.5853Z" fill="#382661" stroke="#382661" stroke-width="0.948609"/>
<path d="M520.771 46.2443L518.962 42.6806L499.072 42.6112L497.293 46.1623L520.771 46.2443Z" fill="white" stroke="#382661" stroke-width="0.948609"/>
<path d="M522.938 56.9161L520.355 61.1759L496.729 61.0934L494.48 56.9235L522.938 56.9161Z" fill="white" stroke="#382661" stroke-width="0.948609"/>
<path d="M518.667 63.3863L517.051 66.938L501.043 66.8821L499.457 63.3193L518.667 63.3863Z" fill="white" stroke="#382661" stroke-width="0.948609"/>
<path d="M524.698 53.359L522.856 49.7941L494.243 49.6942L492.683 53.0033L524.698 53.359Z" fill="white" stroke="#382661" stroke-width="0.948609"/>
<path d="M526.929 57.5001L518.593 71.1613C520.025 90.9644 541.14 117.066 558.598 103.736C575.623 90.7373 542.215 63.8018 526.929 57.5001Z" fill="#382661"/>
<path d="M526.929 51.0968L518.711 37.3779C520.314 17.5853 541.655 -8.36794 558.997 5.0832C575.909 18.2006 542.269 44.902 526.929 51.0968Z" fill="#382661"/>
<line x1="272.488" y1="53.181" x2="491.617" y2="53.181" stroke="#382661" stroke-width="1.77864" stroke-dasharray="18.97 18.97"/>
<path d="M251.618 45.6729L253.223 48.4518L224.976 48.5857L225.323 47.9731L226.556 45.7916L226.575 45.7915L226.635 45.7912L226.694 45.791L226.753 45.7907L226.813 45.7904L226.873 45.7901L226.933 45.7898L226.993 45.7895L227.053 45.7893L227.113 45.789L227.174 45.7887L227.234 45.7884L227.295 45.7881L227.355 45.7878L227.416 45.7875L227.477 45.7873L227.538 45.787L227.599 45.7867L227.661 45.7864L227.722 45.7861L227.783 45.7858L227.845 45.7855L227.907 45.7852L227.968 45.7849L228.03 45.7846L228.092 45.7843L228.154 45.784L228.217 45.7837L228.279 45.7835L228.341 45.7832L228.404 45.7829L228.466 45.7826L228.529 45.7823L228.592 45.782L228.654 45.7817L228.717 45.7814L228.78 45.7811L228.844 45.7808L228.907 45.7805L228.97 45.7802L229.033 45.7799L229.097 45.7796L229.16 45.7793L229.224 45.779L229.288 45.7787L229.352 45.7784L229.415 45.7781L229.479 45.7778L229.543 45.7775L229.608 45.7772L229.672 45.7769L229.736 45.7765L229.8 45.7762L229.865 45.7759L229.929 45.7756L229.994 45.7753L230.059 45.775L230.123 45.7747L230.188 45.7744L230.253 45.7741L230.318 45.7738L230.383 45.7735L230.448 45.7732L230.513 45.7729L230.578 45.7726L230.643 45.7722L230.709 45.7719L230.774 45.7716L230.839 45.7713L230.905 45.771L230.97 45.7707L231.036 45.7704L231.102 45.7701L231.167 45.7698L231.233 45.7695L231.299 45.7691L231.365 45.7688L231.431 45.7685L231.497 45.7682L231.563 45.7679L231.629 45.7676L231.695 45.7673L231.761 45.767L231.827 45.7666L231.893 45.7663L231.96 45.766L232.026 45.7657L232.093 45.7654L232.159 45.7651L232.225 45.7648L232.292 45.7644L232.358 45.7641L232.425 45.7638L232.492 45.7635L232.558 45.7632L232.625 45.7629L232.692 45.7625L232.758 45.7622L232.825 45.7619L232.892 45.7616L232.959 45.7613L233.026 45.761L233.093 45.7606L233.16 45.7603L233.226 45.76L233.293 45.7597L233.36 45.7594L233.427 45.7591L233.495 45.7587L233.562 45.7584L233.629 45.7581L233.696 45.7578L233.763 45.7575L233.83 45.7571L233.897 45.7568L233.964 45.7565L234.032 45.7562L234.099 45.7559L234.166 45.7556L234.233 45.7552L234.3 45.7549L234.368 45.7546L234.435 45.7543L234.502 45.754L234.569 45.7536L234.637 45.7533L234.704 45.753L234.771 45.7527L234.839 45.7524L234.906 45.752L234.973 45.7517L235.04 45.7514L235.108 45.7511L235.175 45.7508L235.242 45.7505L235.31 45.7501L235.377 45.7498L235.444 45.7495L235.511 45.7492L235.579 45.7489L235.646 45.7485L235.713 45.7482L235.78 45.7479L235.848 45.7476L235.915 45.7473L235.982 45.7469L236.049 45.7466L236.116 45.7463L236.184 45.746L236.251 45.7457L236.318 45.7454L236.385 45.745L236.452 45.7447L236.519 45.7444L236.586 45.7441L236.653 45.7438L236.72 45.7435L236.787 45.7431L236.854 45.7428L236.921 45.7425L236.988 45.7422L237.055 45.7419L237.121 45.7415L237.188 45.7412L237.255 45.7409L237.322 45.7406L237.388 45.7403L237.455 45.74L237.522 45.7397L237.588 45.7393L237.655 45.739L237.721 45.7387L237.788 45.7384L237.854 45.7381L237.921 45.7378L237.987 45.7374L238.053 45.7371L238.12 45.7368L238.186 45.7365L238.252 45.7362L238.318 45.7359L238.384 45.7356L238.45 45.7353L238.516 45.7349L238.582 45.7346L238.648 45.7343L238.714 45.734L238.78 45.7337L238.846 45.7334L238.911 45.7331L238.977 45.7328L239.043 45.7324L239.108 45.7321L239.174 45.7318L239.239 45.7315L239.304 45.7312L239.37 45.7309L239.435 45.7306L239.5 45.7303L239.565 45.73L239.63 45.7297L239.695 45.7294L239.76 45.729L239.825 45.7287L239.889 45.7284L239.954 45.7281L240.019 45.7278L240.083 45.7275L240.148 45.7272L240.212 45.7269L240.276 45.7266L240.341 45.7263L240.405 45.726L240.469 45.7257L240.533 45.7254L240.597 45.7251L240.661 45.7248L240.725 45.7245L240.788 45.7242L240.852 45.7239L240.915 45.7236L240.979 45.7233L241.042 45.723L241.105 45.7227L241.169 45.7224L241.232 45.7221L241.295 45.7218L241.358 45.7215L241.42 45.7212L241.483 45.7209L241.546 45.7206L241.608 45.7203L241.671 45.72L241.733 45.7197L241.795 45.7194L241.857 45.7191L241.919 45.7188L241.981 45.7185L242.043 45.7182L242.105 45.7179L242.167 45.7176L242.228 45.7173L242.29 45.7171L242.351 45.7168L242.412 45.7165L242.473 45.7162L242.534 45.7159L242.595 45.7156L242.656 45.7153L242.717 45.715L242.777 45.7147L242.838 45.7145L242.898 45.7142L242.958 45.7139L243.018 45.7136L243.078 45.7133L243.138 45.713L243.198 45.7128L243.257 45.7125L243.317 45.7122L243.376 45.7119L243.435 45.7116L243.495 45.7113L243.554 45.7111L243.613 45.7108L243.671 45.7105L243.73 45.7102L243.788 45.71L243.847 45.7097L243.905 45.7094L243.963 45.7091L244.021 45.7089L244.079 45.7086L244.137 45.7083L244.194 45.708L244.252 45.7078L244.309 45.7075L244.366 45.7072L244.423 45.7069L244.48 45.7067L244.537 45.7064L244.593 45.7061L244.65 45.7059L244.706 45.7056L244.762 45.7053L244.818 45.7051L244.874 45.7048L244.93 45.7045L244.985 45.7043L245.041 45.704L245.096 45.7038L245.151 45.7035L245.206 45.7032L245.261 45.703L245.316 45.7027L245.37 45.7025L245.425 45.7022L245.479 45.7019L245.533 45.7017L245.587 45.7014L245.64 45.7012L245.694 45.7009L245.747 45.7007L245.801 45.7004L245.854 45.7002L245.906 45.6999L245.959 45.6997L246.012 45.6994L246.064 45.6992L246.116 45.6989L246.169 45.6987L246.22 45.6984L246.272 45.6982L246.324 45.6979L246.375 45.6977L246.426 45.6975L246.477 45.6972L246.528 45.697L246.579 45.6967L246.629 45.6965L246.68 45.6963L246.73 45.696L246.78 45.6958L246.829 45.6955L246.879 45.6953L246.928 45.6951L246.978 45.6948L247.027 45.6946L247.076 45.6944L247.124 45.6941L247.173 45.6939L247.221 45.6937L247.269 45.6935L247.317 45.6932L247.365 45.693L247.412 45.6928L247.46 45.6926L247.507 45.6923L247.554 45.6921L247.6 45.6919L247.647 45.6917L247.693 45.6915L247.739 45.6912L247.785 45.691L247.831 45.6908L247.877 45.6906L247.922 45.6904L247.967 45.6902L248.012 45.6899L248.057 45.6897L248.101 45.6895L248.146 45.6893L248.19 45.6891L248.234 45.6889L248.277 45.6887L248.321 45.6885L248.364 45.6883L248.407 45.6881L248.45 45.6879L248.492 45.6877L248.535 45.6875L248.577 45.6873L248.619 45.6871L248.661 45.6869L248.702 45.6867L248.743 45.6865L248.784 45.6863L248.825 45.6861L248.866 45.6859L248.906 45.6857L248.946 45.6855L248.986 45.6853L249.026 45.6851L249.065 45.6849L249.105 45.6848L249.144 45.6846L249.183 45.6844L249.221 45.6842L249.259 45.684L249.297 45.6838L249.335 45.6837L249.373 45.6835L249.41 45.6833L249.447 45.6831L249.484 45.683L249.521 45.6828L249.557 45.6826L249.594 45.6824L249.629 45.6823L249.665 45.6821L249.701 45.6819L249.736 45.6818L249.771 45.6816L249.805 45.6814L249.84 45.6813L249.874 45.6811L249.908 45.681L249.942 45.6808L249.975 45.6806L250.008 45.6805L250.041 45.6803L250.074 45.6802L250.106 45.68L250.138 45.6799L250.17 45.6797L250.202 45.6796L250.233 45.6794L250.264 45.6793L250.295 45.6791L250.326 45.679L250.356 45.6788L250.386 45.6787L250.416 45.6785L250.446 45.6784L250.475 45.6783L250.504 45.6781L250.533 45.678L250.561 45.6779L250.589 45.6777L250.617 45.6776L250.645 45.6775L250.672 45.6773L250.699 45.6772L250.726 45.6771L250.753 45.677L250.779 45.6768L250.805 45.6767L250.83 45.6766L250.856 45.6765L250.881 45.6763L250.906 45.6762L250.93 45.6761L250.955 45.676L250.979 45.6759L251.002 45.6758L251.026 45.6757L251.049 45.6755L251.072 45.6754L251.094 45.6753L251.116 45.6752L251.138 45.6751L251.16 45.675L251.181 45.6749L251.203 45.6748L251.223 45.6747L251.244 45.6746L251.264 45.6745L251.284 45.6744L251.303 45.6743L251.323 45.6743L251.342 45.6742L251.36 45.6741L251.379 45.674L251.397 45.6739L251.415 45.6738L251.432 45.6737L251.449 45.6737L251.466 45.6736L251.482 45.6735L251.499 45.6734L251.515 45.6733L251.53 45.6733L251.545 45.6732L251.56 45.6731L251.575 45.6731L251.589 45.673L251.603 45.6729L251.617 45.6729L251.618 45.6729ZM227.094 44.8405L227.75 43.6794L228.673 42.0464L228.689 42.0463L228.738 42.0461L228.786 42.0459L228.834 42.0456L228.882 42.0454L228.93 42.0452L228.978 42.0449L229.026 42.0447L229.073 42.0445L229.121 42.0443L229.169 42.044L229.216 42.0438L229.264 42.0436L229.311 42.0434L229.358 42.0431L229.405 42.0429L229.453 42.0427L229.5 42.0425L229.547 42.0422L229.593 42.042L229.64 42.0418L229.687 42.0416L229.734 42.0414L229.78 42.0411L229.827 42.0409L229.873 42.0407L229.92 42.0405L229.966 42.0403L230.012 42.04L230.058 42.0398L230.104 42.0396L230.15 42.0394L230.196 42.0392L230.242 42.039L230.288 42.0387L230.333 42.0385L230.379 42.0383L230.425 42.0381L230.47 42.0379L230.516 42.0377L230.561 42.0374L230.606 42.0372L230.652 42.037L230.697 42.0368L230.742 42.0366L230.787 42.0364L230.832 42.0362L230.877 42.0359L230.921 42.0357L230.966 42.0355L231.011 42.0353L231.056 42.0351L231.1 42.0349L231.145 42.0347L231.189 42.0345L231.233 42.0343L231.278 42.034L231.322 42.0338L231.366 42.0336L231.41 42.0334L231.454 42.0332L231.498 42.033L231.542 42.0328L231.586 42.0326L231.63 42.0324L231.674 42.0322L231.717 42.032L231.761 42.0318L231.804 42.0315L231.848 42.0313L231.891 42.0311L231.935 42.0309L231.978 42.0307L232.021 42.0305L232.065 42.0303L232.108 42.0301L232.151 42.0299L232.194 42.0297L232.237 42.0295L232.28 42.0293L232.323 42.0291L232.365 42.0289L232.408 42.0287L232.451 42.0285L232.494 42.0283L232.536 42.0281L232.579 42.0279L232.621 42.0277L232.664 42.0275L232.706 42.0273L232.748 42.0271L232.791 42.0269L232.833 42.0267L232.875 42.0265L232.917 42.0263L232.959 42.0261L233.001 42.0259L233.043 42.0257L233.085 42.0255L233.127 42.0253L233.169 42.0251L233.211 42.0249L233.252 42.0247L233.294 42.0245L233.336 42.0243L233.377 42.0241L233.419 42.0239L233.46 42.0237L233.502 42.0235L233.543 42.0233L233.584 42.0231L233.626 42.0229L233.667 42.0227L233.708 42.0225L233.749 42.0223L233.79 42.0221L233.831 42.0219L233.872 42.0217L233.913 42.0216L233.954 42.0214L233.995 42.0212L234.036 42.021L234.077 42.0208L234.118 42.0206L234.158 42.0204L234.199 42.0202L234.24 42.02L234.28 42.0198L234.321 42.0196L234.362 42.0194L234.402 42.0192L234.442 42.019L234.483 42.0189L234.523 42.0187L234.564 42.0185L234.604 42.0183L234.644 42.0181L234.684 42.0179L234.725 42.0177L234.765 42.0175L234.805 42.0173L234.845 42.0171L234.885 42.0169L234.925 42.0168L234.965 42.0166L235.005 42.0164L235.045 42.0162L235.085 42.016L235.124 42.0158L235.164 42.0156L235.204 42.0154L235.244 42.0152L235.283 42.0151L235.323 42.0149L235.363 42.0147L235.402 42.0145L235.442 42.0143L235.481 42.0141L235.521 42.0139L235.56 42.0137L235.6 42.0136L235.639 42.0134L235.679 42.0132L235.718 42.013L235.757 42.0128L235.797 42.0126L235.836 42.0124L235.875 42.0123L235.914 42.0121L235.954 42.0119L235.993 42.0117L236.032 42.0115L236.071 42.0113L236.11 42.0111L236.149 42.011L236.188 42.0108L236.227 42.0106L236.266 42.0104L236.305 42.0102L236.344 42.01L236.383 42.0098L236.422 42.0097L236.461 42.0095L236.5 42.0093L236.539 42.0091L236.577 42.0089L236.616 42.0087L236.655 42.0086L236.694 42.0084L236.732 42.0082L236.771 42.008L236.81 42.0078L236.848 42.0076L236.887 42.0075L236.926 42.0073L236.964 42.0071L237.003 42.0069L237.042 42.0067L237.08 42.0065L237.119 42.0064L237.157 42.0062L237.196 42.006L237.234 42.0058L237.273 42.0056L237.311 42.0055L237.35 42.0053L237.388 42.0051L237.426 42.0049L237.465 42.0047L237.503 42.0045L237.542 42.0044L237.58 42.0042L237.618 42.004L237.657 42.0038L237.695 42.0036L237.733 42.0035L237.772 42.0033L237.81 42.0031L237.848 42.0029L237.886 42.0027L237.925 42.0025L237.963 42.0024L238.001 42.0022L238.039 42.002L238.078 42.0018L238.116 42.0016L238.154 42.0015L238.192 42.0013L238.231 42.0011L238.269 42.0009L238.307 42.0007L238.345 42.0006L238.383 42.0004L238.421 42.0002L238.46 42L238.498 41.9998L238.536 41.9996L238.574 41.9995L238.612 41.9993L238.65 41.9991L238.688 41.9989L238.727 41.9987L238.765 41.9986L238.803 41.9984L238.841 41.9982L238.879 41.998L238.917 41.9978L238.955 41.9977L238.993 41.9975L239.031 41.9973L239.07 41.9971L239.108 41.9969L239.146 41.9968L239.184 41.9966L239.222 41.9964L239.26 41.9962L239.298 41.996L239.336 41.9959L239.374 41.9957L239.413 41.9955L239.451 41.9953L239.489 41.9951L239.527 41.995L239.565 41.9948L239.603 41.9946L239.641 41.9944L239.68 41.9942L239.718 41.994L239.756 41.9939L239.794 41.9937L239.832 41.9935L239.87 41.9933L239.909 41.9931L239.947 41.993L239.985 41.9928L240.023 41.9926L240.061 41.9924L240.1 41.9922L240.138 41.9921L240.176 41.9919L240.214 41.9917L240.253 41.9915L240.291 41.9913L240.329 41.9911L240.367 41.991L240.406 41.9908L240.444 41.9906L240.482 41.9904L240.521 41.9902L240.559 41.9901L240.597 41.9899L240.636 41.9897L240.674 41.9895L240.713 41.9893L240.751 41.9892L240.789 41.989L240.828 41.9888L240.866 41.9886L240.905 41.9884L240.943 41.9882L240.982 41.9881L241.02 41.9879L241.059 41.9877L241.098 41.9875L241.136 41.9873L241.175 41.9871L241.213 41.987L241.252 41.9868L241.291 41.9866L241.329 41.9864L241.368 41.9862L241.407 41.986L241.445 41.9859L241.484 41.9857L241.523 41.9855L241.562 41.9853L241.601 41.9851L241.639 41.9849L241.678 41.9848L241.717 41.9846L241.756 41.9844L241.795 41.9842L241.834 41.984L241.873 41.9838L241.912 41.9836L241.951 41.9835L241.99 41.9833L242.029 41.9831L242.068 41.9829L242.107 41.9827L242.146 41.9825L242.185 41.9824L242.225 41.9822L242.264 41.982L242.303 41.9818L242.342 41.9816L242.382 41.9814L242.421 41.9812L242.46 41.981L242.5 41.9809L242.539 41.9807L242.579 41.9805L242.618 41.9803L242.658 41.9801L242.697 41.9799L242.737 41.9797L242.776 41.9796L242.816 41.9794L242.856 41.9792L242.895 41.979L242.935 41.9788L242.975 41.9786L243.015 41.9784L243.055 41.9782L243.094 41.978L243.134 41.9779L243.174 41.9777L243.214 41.9775L243.254 41.9773L243.294 41.9771L243.334 41.9769L243.374 41.9767L243.415 41.9765L243.455 41.9763L243.495 41.9761L243.535 41.976L243.576 41.9758L243.616 41.9756L243.656 41.9754L243.697 41.9752L243.737 41.975L243.778 41.9748L243.818 41.9746L243.859 41.9744L243.899 41.9742L243.94 41.974L243.981 41.9738L244.021 41.9737L244.062 41.9735L244.103 41.9733L244.144 41.9731L244.185 41.9729L244.226 41.9727L244.267 41.9725L244.308 41.9723L244.349 41.9721L244.39 41.9719L244.431 41.9717L244.472 41.9715L244.513 41.9713L244.555 41.9711L244.596 41.9709L244.637 41.9707L244.679 41.9705L244.72 41.9703L244.762 41.9701L244.803 41.9699L244.845 41.9697L244.887 41.9696L244.928 41.9694L244.97 41.9692L245.012 41.969L245.054 41.9688L245.096 41.9686L245.138 41.9684L245.18 41.9682L245.222 41.968L245.264 41.9678L245.306 41.9676L245.348 41.9674L245.391 41.9672L245.433 41.967L245.475 41.9668L245.518 41.9666L245.56 41.9664L245.603 41.9662L245.645 41.966L245.688 41.9658L245.731 41.9656L245.774 41.9653L245.816 41.9651L245.859 41.9649L245.902 41.9647L245.945 41.9645L245.988 41.9643L246.031 41.9641L246.074 41.9639L246.118 41.9637L246.161 41.9635L246.204 41.9633L246.248 41.9631L246.291 41.9629L246.335 41.9627L246.378 41.9625L246.422 41.9623L246.465 41.9621L246.509 41.9619L246.553 41.9617L246.597 41.9614L246.641 41.9612L246.685 41.961L246.729 41.9608L246.773 41.9606L246.817 41.9604L246.861 41.9602L246.906 41.96L246.95 41.9598L246.994 41.9596L247.039 41.9594L247.084 41.9591L247.128 41.9589L247.173 41.9587L247.218 41.9585L247.262 41.9583L247.307 41.9581L247.352 41.9579L247.397 41.9577L247.442 41.9574L247.488 41.9572L247.533 41.957L247.578 41.9568L247.623 41.9566L247.669 41.9564L247.714 41.9562L247.76 41.9559L247.806 41.9557L247.851 41.9555L247.897 41.9553L247.943 41.9551L247.989 41.9549L248.035 41.9546L248.081 41.9544L248.127 41.9542L248.173 41.954L248.22 41.9538L248.266 41.9535L248.312 41.9533L248.359 41.9531L248.405 41.9529L248.452 41.9527L248.499 41.9524L248.546 41.9522L248.593 41.952L248.64 41.9518L248.687 41.9515L248.734 41.9513L248.781 41.9511L248.828 41.9509L248.875 41.9506L248.923 41.9504L248.97 41.9502L249.018 41.95L249.066 41.9497L249.113 41.9495L249.161 41.9493L249.209 41.9491L249.257 41.9488L249.305 41.9486L249.353 41.9484L249.401 41.9482L249.45 41.9479L249.466 41.9479L250.719 44.1175L251.071 44.7268L251.067 44.7268L251.045 44.7269L251.021 44.7271L250.998 44.7272L250.974 44.7273L250.95 44.7274L250.926 44.7275L250.901 44.7276L250.877 44.7277L250.851 44.7279L250.826 44.728L250.8 44.7281L250.774 44.7282L250.748 44.7284L250.722 44.7285L250.695 44.7286L250.668 44.7287L250.64 44.7289L250.613 44.729L250.585 44.7291L250.557 44.7293L250.528 44.7294L250.5 44.7295L250.471 44.7297L250.441 44.7298L250.412 44.7299L250.382 44.7301L250.352 44.7302L250.322 44.7304L250.291 44.7305L250.26 44.7307L250.229 44.7308L250.198 44.731L250.166 44.7311L250.134 44.7313L250.102 44.7314L250.07 44.7316L250.037 44.7317L250.004 44.7319L249.971 44.732L249.937 44.7322L249.904 44.7324L249.87 44.7325L249.835 44.7327L249.801 44.7328L249.766 44.733L249.731 44.7332L249.696 44.7333L249.661 44.7335L249.625 44.7337L249.589 44.7338L249.553 44.734L249.517 44.7342L249.48 44.7344L249.443 44.7345L249.406 44.7347L249.369 44.7349L249.331 44.7351L249.293 44.7352L249.255 44.7354L249.217 44.7356L249.178 44.7358L249.139 44.736L249.1 44.7362L249.061 44.7363L249.022 44.7365L248.982 44.7367L248.942 44.7369L248.902 44.7371L248.861 44.7373L248.821 44.7375L248.78 44.7377L248.739 44.7379L248.698 44.7381L248.656 44.7383L248.614 44.7385L248.572 44.7387L248.53 44.7389L248.488 44.7391L248.445 44.7393L248.403 44.7395L248.36 44.7397L248.316 44.7399L248.273 44.7401L248.229 44.7403L248.185 44.7405L248.141 44.7407L248.097 44.7409L248.052 44.7411L248.008 44.7413L247.963 44.7416L247.918 44.7418L247.872 44.742L247.827 44.7422L247.781 44.7424L247.735 44.7426L247.689 44.7429L247.643 44.7431L247.596 44.7433L247.549 44.7435L247.502 44.7437L247.455 44.744L247.408 44.7442L247.36 44.7444L247.313 44.7446L247.265 44.7449L247.217 44.7451L247.168 44.7453L247.12 44.7455L247.071 44.7458L247.022 44.746L246.973 44.7462L246.924 44.7465L246.875 44.7467L246.825 44.7469L246.775 44.7472L246.725 44.7474L246.675 44.7477L246.625 44.7479L246.574 44.7481L246.524 44.7484L246.473 44.7486L246.422 44.7489L246.371 44.7491L246.319 44.7493L246.268 44.7496L246.216 44.7498L246.164 44.7501L246.112 44.7503L246.06 44.7506L246.007 44.7508L245.955 44.7511L245.902 44.7513L245.849 44.7516L245.796 44.7518L245.743 44.7521L245.69 44.7523L245.636 44.7526L245.582 44.7528L245.528 44.7531L245.474 44.7533L245.42 44.7536L245.366 44.7539L245.311 44.7541L245.257 44.7544L245.202 44.7546L245.147 44.7549L245.092 44.7552L245.036 44.7554L244.981 44.7557L244.925 44.7559L244.87 44.7562L244.814 44.7565L244.758 44.7567L244.702 44.757L244.645 44.7573L244.589 44.7575L244.532 44.7578L244.476 44.7581L244.419 44.7583L244.362 44.7586L244.305 44.7589L244.247 44.7592L244.19 44.7594L244.132 44.7597L244.075 44.76L244.017 44.7603L243.959 44.7605L243.901 44.7608L243.842 44.7611L243.784 44.7614L243.726 44.7616L243.667 44.7619L243.608 44.7622L243.549 44.7625L243.49 44.7627L243.431 44.763L243.372 44.7633L243.313 44.7636L243.253 44.7639L243.193 44.7642L243.134 44.7644L243.074 44.7647L243.014 44.765L242.954 44.7653L242.894 44.7656L242.833 44.7659L242.773 44.7661L242.712 44.7664L242.652 44.7667L242.591 44.767L242.53 44.7673L242.469 44.7676L242.408 44.7679L242.347 44.7682L242.285 44.7685L242.224 44.7687L242.162 44.769L242.101 44.7693L242.039 44.7696L241.977 44.7699L241.915 44.7702L241.853 44.7705L241.791 44.7708L241.729 44.7711L241.666 44.7714L241.604 44.7717L241.541 44.772L241.479 44.7723L241.416 44.7726L241.353 44.7729L241.29 44.7732L241.227 44.7735L241.164 44.7738L241.101 44.7741L241.038 44.7744L240.974 44.7747L240.911 44.775L240.847 44.7753L240.784 44.7756L240.72 44.7759L240.656 44.7762L240.593 44.7765L240.529 44.7768L240.465 44.7771L240.401 44.7774L240.336 44.7777L240.272 44.778L240.208 44.7783L240.143 44.7786L240.079 44.7789L240.014 44.7792L239.95 44.7795L239.885 44.7798L239.82 44.7801L239.756 44.7804L239.691 44.7808L239.626 44.7811L239.561 44.7814L239.496 44.7817L239.43 44.782L239.365 44.7823L239.3 44.7826L239.235 44.7829L239.169 44.7832L239.104 44.7835L239.038 44.7838L238.973 44.7842L238.907 44.7845L238.841 44.7848L238.776 44.7851L238.71 44.7854L238.644 44.7857L238.578 44.786L238.512 44.7863L238.446 44.7867L238.38 44.787L238.314 44.7873L238.248 44.7876L238.182 44.7879L238.115 44.7882L238.049 44.7885L237.983 44.7888L237.916 44.7892L237.85 44.7895L237.784 44.7898L237.717 44.7901L237.651 44.7904L237.584 44.7907L237.517 44.7911L237.451 44.7914L237.384 44.7917L237.317 44.792L237.251 44.7923L237.184 44.7926L237.117 44.7929L237.05 44.7933L236.983 44.7936L236.917 44.7939L236.85 44.7942L236.783 44.7945L236.716 44.7949L236.649 44.7952L236.582 44.7955L236.515 44.7958L236.448 44.7961L236.381 44.7964L236.313 44.7968L236.246 44.7971L236.179 44.7974L236.112 44.7977L236.045 44.798L235.978 44.7983L235.91 44.7987L235.843 44.799L235.776 44.7993L235.709 44.7996L235.642 44.7999L235.574 44.8003L235.507 44.8006L235.44 44.8009L235.373 44.8012L235.305 44.8015L235.238 44.8019L235.171 44.8022L235.103 44.8025L235.036 44.8028L234.969 44.8031L234.902 44.8034L234.834 44.8038L234.767 44.8041L234.7 44.8044L234.632 44.8047L234.565 44.805L234.498 44.8054L234.431 44.8057L234.363 44.806L234.296 44.8063L234.229 44.8066L234.162 44.807L234.094 44.8073L234.027 44.8076L233.96 44.8079L233.893 44.8082L233.826 44.8085L233.759 44.8089L233.691 44.8092L233.624 44.8095L233.557 44.8098L233.49 44.8101L233.423 44.8105L233.356 44.8108L233.289 44.8111L233.222 44.8114L233.155 44.8117L233.088 44.812L233.021 44.8124L232.954 44.8127L232.888 44.813L232.821 44.8133L232.754 44.8136L232.687 44.8139L232.621 44.8143L232.554 44.8146L232.487 44.8149L232.421 44.8152L232.354 44.8155L232.288 44.8158L232.221 44.8162L232.155 44.8165L232.088 44.8168L232.022 44.8171L231.955 44.8174L231.889 44.8177L231.823 44.818L231.757 44.8184L231.691 44.8187L231.624 44.819L231.558 44.8193L231.492 44.8196L231.426 44.8199L231.36 44.8202L231.295 44.8205L231.229 44.8209L231.163 44.8212L231.097 44.8215L231.032 44.8218L230.966 44.8221L230.901 44.8224L230.835 44.8227L230.77 44.823L230.704 44.8233L230.639 44.8236L230.574 44.824L230.509 44.8243L230.443 44.8246L230.378 44.8249L230.313 44.8252L230.248 44.8255L230.184 44.8258L230.119 44.8261L230.054 44.8264L229.99 44.8267L229.925 44.827L229.86 44.8273L229.796 44.8276L229.732 44.8279L229.667 44.8283L229.603 44.8286L229.539 44.8289L229.475 44.8292L229.411 44.8295L229.347 44.8298L229.283 44.8301L229.22 44.8304L229.156 44.8307L229.093 44.831L229.029 44.8313L228.966 44.8316L228.902 44.8319L228.839 44.8322L228.776 44.8325L228.713 44.8328L228.65 44.8331L228.587 44.8334L228.525 44.8337L228.462 44.834L228.399 44.8343L228.337 44.8346L228.274 44.8349L228.212 44.8351L228.15 44.8354L228.088 44.8357L228.026 44.836L227.964 44.8363L227.902 44.8366L227.841 44.8369L227.779 44.8372L227.718 44.8375L227.656 44.8378L227.595 44.8381L227.534 44.8384L227.473 44.8387L227.412 44.8389L227.351 44.8392L227.29 44.8395L227.23 44.8398L227.169 44.8401L227.109 44.8404L227.094 44.8405ZM229.211 41.0952L230.177 39.3857L230.711 38.441L230.79 38.3012L247.315 38.2228L247.395 38.362L247.938 39.3015L248.92 41.0018L248.919 41.0018L248.871 41.0021L248.824 41.0023L248.776 41.0025L248.729 41.0027L248.682 41.0029L248.635 41.0032L248.588 41.0034L248.541 41.0036L248.494 41.0038L248.448 41.0041L248.401 41.0043L248.355 41.0045L248.308 41.0047L248.262 41.0049L248.215 41.0052L248.169 41.0054L248.123 41.0056L248.077 41.0058L248.031 41.006L247.985 41.0063L247.939 41.0065L247.893 41.0067L247.847 41.0069L247.801 41.0071L247.756 41.0073L247.71 41.0076L247.665 41.0078L247.619 41.008L247.574 41.0082L247.528 41.0084L247.483 41.0086L247.438 41.0088L247.393 41.0091L247.348 41.0093L247.303 41.0095L247.258 41.0097L247.213 41.0099L247.168 41.0101L247.124 41.0103L247.079 41.0105L247.035 41.0108L246.99 41.011L246.946 41.0112L246.901 41.0114L246.857 41.0116L246.813 41.0118L246.769 41.012L246.724 41.0122L246.68 41.0124L246.636 41.0126L246.593 41.0128L246.549 41.0131L246.505 41.0133L246.461 41.0135L246.417 41.0137L246.374 41.0139L246.33 41.0141L246.287 41.0143L246.243 41.0145L246.2 41.0147L246.157 41.0149L246.113 41.0151L246.07 41.0153L246.027 41.0155L245.984 41.0157L245.941 41.0159L245.898 41.0161L245.855 41.0163L245.812 41.0165L245.769 41.0168L245.726 41.017L245.684 41.0172L245.641 41.0174L245.599 41.0176L245.556 41.0178L245.513 41.018L245.471 41.0182L245.429 41.0184L245.386 41.0186L245.344 41.0188L245.302 41.019L245.26 41.0192L245.218 41.0194L245.175 41.0196L245.133 41.0198L245.092 41.02L245.05 41.0202L245.008 41.0204L244.966 41.0206L244.924 41.0208L244.882 41.021L244.841 41.0212L244.799 41.0213L244.758 41.0215L244.716 41.0217L244.675 41.0219L244.633 41.0221L244.592 41.0223L244.55 41.0225L244.509 41.0227L244.468 41.0229L244.427 41.0231L244.385 41.0233L244.344 41.0235L244.303 41.0237L244.262 41.0239L244.221 41.0241L244.18 41.0243L244.139 41.0245L244.099 41.0247L244.058 41.0249L244.017 41.0251L243.976 41.0252L243.936 41.0254L243.895 41.0256L243.854 41.0258L243.814 41.026L243.773 41.0262L243.733 41.0264L243.692 41.0266L243.652 41.0268L243.611 41.027L243.571 41.0272L243.531 41.0274L243.491 41.0275L243.45 41.0277L243.41 41.0279L243.37 41.0281L243.33 41.0283L243.29 41.0285L243.25 41.0287L243.21 41.0289L243.17 41.0291L243.13 41.0293L243.09 41.0294L243.05 41.0296L243.01 41.0298L242.971 41.03L242.931 41.0302L242.891 41.0304L242.851 41.0306L242.812 41.0308L242.772 41.031L242.732 41.0311L242.693 41.0313L242.653 41.0315L242.614 41.0317L242.574 41.0319L242.535 41.0321L242.495 41.0323L242.456 41.0325L242.417 41.0326L242.377 41.0328L242.338 41.033L242.299 41.0332L242.26 41.0334L242.22 41.0336L242.181 41.0338L242.142 41.0339L242.103 41.0341L242.064 41.0343L242.025 41.0345L241.986 41.0347L241.946 41.0349L241.907 41.0351L241.868 41.0352L241.829 41.0354L241.791 41.0356L241.752 41.0358L241.713 41.036L241.674 41.0362L241.635 41.0363L241.596 41.0365L241.557 41.0367L241.519 41.0369L241.48 41.0371L241.441 41.0373L241.402 41.0374L241.364 41.0376L241.325 41.0378L241.286 41.038L241.248 41.0382L241.209 41.0384L241.17 41.0385L241.132 41.0387L241.093 41.0389L241.055 41.0391L241.016 41.0393L240.978 41.0395L240.939 41.0396L240.901 41.0398L240.862 41.04L240.824 41.0402L240.785 41.0404L240.747 41.0406L240.708 41.0407L240.67 41.0409L240.631 41.0411L240.593 41.0413L240.555 41.0415L240.516 41.0416L240.478 41.0418L240.44 41.042L240.401 41.0422L240.363 41.0424L240.325 41.0426L240.287 41.0427L240.248 41.0429L240.21 41.0431L240.172 41.0433L240.133 41.0435L240.095 41.0436L240.057 41.0438L240.019 41.044L239.981 41.0442L239.942 41.0444L239.904 41.0445L239.866 41.0447L239.828 41.0449L239.79 41.0451L239.751 41.0453L239.713 41.0454L239.675 41.0456L239.637 41.0458L239.599 41.046L239.561 41.0462L239.523 41.0464L239.484 41.0465L239.446 41.0467L239.408 41.0469L239.37 41.0471L239.332 41.0473L239.294 41.0474L239.256 41.0476L239.218 41.0478L239.18 41.048L239.141 41.0482L239.103 41.0483L239.065 41.0485L239.027 41.0487L238.989 41.0489L238.951 41.0491L238.913 41.0492L238.875 41.0494L238.837 41.0496L238.798 41.0498L238.76 41.05L238.722 41.0501L238.684 41.0503L238.646 41.0505L238.608 41.0507L238.57 41.0509L238.531 41.051L238.493 41.0512L238.455 41.0514L238.417 41.0516L238.379 41.0518L238.341 41.052L238.303 41.0521L238.264 41.0523L238.226 41.0525L238.188 41.0527L238.15 41.0529L238.112 41.053L238.073 41.0532L238.035 41.0534L237.997 41.0536L237.959 41.0538L237.92 41.0539L237.882 41.0541L237.844 41.0543L237.806 41.0545L237.767 41.0547L237.729 41.0549L237.691 41.055L237.652 41.0552L237.614 41.0554L237.576 41.0556L237.537 41.0558L237.499 41.0559L237.46 41.0561L237.422 41.0563L237.384 41.0565L237.345 41.0567L237.307 41.0569L237.268 41.057L237.23 41.0572L237.191 41.0574L237.153 41.0576L237.114 41.0578L237.076 41.0579L237.037 41.0581L236.999 41.0583L236.96 41.0585L236.921 41.0587L236.883 41.0589L236.844 41.059L236.805 41.0592L236.767 41.0594L236.728 41.0596L236.689 41.0598L236.651 41.06L236.612 41.0601L236.573 41.0603L236.534 41.0605L236.495 41.0607L236.457 41.0609L236.418 41.0611L236.379 41.0613L236.34 41.0614L236.301 41.0616L236.262 41.0618L236.223 41.062L236.184 41.0622L236.145 41.0624L236.106 41.0625L236.067 41.0627L236.028 41.0629L235.988 41.0631L235.949 41.0633L235.91 41.0635L235.871 41.0637L235.832 41.0638L235.792 41.064L235.753 41.0642L235.714 41.0644L235.674 41.0646L235.635 41.0648L235.595 41.065L235.556 41.0651L235.517 41.0653L235.477 41.0655L235.437 41.0657L235.398 41.0659L235.358 41.0661L235.319 41.0663L235.279 41.0665L235.239 41.0667L235.2 41.0668L235.16 41.067L235.12 41.0672L235.08 41.0674L235.04 41.0676L235 41.0678L234.96 41.068L234.921 41.0682L234.881 41.0684L234.84 41.0685L234.8 41.0687L234.76 41.0689L234.72 41.0691L234.68 41.0693L234.64 41.0695L234.599 41.0697L234.559 41.0699L234.519 41.0701L234.478 41.0703L234.438 41.0704L234.398 41.0706L234.357 41.0708L234.317 41.071L234.276 41.0712L234.235 41.0714L234.195 41.0716L234.154 41.0718L234.113 41.072L234.073 41.0722L234.032 41.0724L233.991 41.0726L233.95 41.0728L233.909 41.073L233.868 41.0731L233.827 41.0733L233.786 41.0735L233.745 41.0737L233.704 41.0739L233.663 41.0741L233.621 41.0743L233.58 41.0745L233.539 41.0747L233.497 41.0749L233.456 41.0751L233.414 41.0753L233.373 41.0755L233.331 41.0757L233.29 41.0759L233.248 41.0761L233.206 41.0763L233.164 41.0765L233.123 41.0767L233.081 41.0769L233.039 41.0771L232.997 41.0773L232.955 41.0775L232.913 41.0777L232.871 41.0779L232.829 41.0781L232.786 41.0783L232.744 41.0785L232.702 41.0787L232.659 41.0789L232.617 41.0791L232.574 41.0793L232.532 41.0795L232.489 41.0797L232.447 41.0799L232.404 41.0801L232.361 41.0803L232.318 41.0805L232.275 41.0807L232.233 41.0809L232.19 41.0811L232.147 41.0813L232.103 41.0815L232.06 41.0817L232.017 41.0819L231.974 41.0821L231.93 41.0823L231.887 41.0825L231.844 41.0827L231.8 41.0829L231.757 41.0832L231.713 41.0834L231.669 41.0836L231.626 41.0838L231.582 41.084L231.538 41.0842L231.494 41.0844L231.45 41.0846L231.406 41.0848L231.362 41.085L231.318 41.0852L231.273 41.0854L231.229 41.0857L231.185 41.0859L231.14 41.0861L231.096 41.0863L231.051 41.0865L231.007 41.0867L230.962 41.0869L230.917 41.0871L230.872 41.0873L230.827 41.0876L230.782 41.0878L230.737 41.088L230.692 41.0882L230.647 41.0884L230.602 41.0886L230.557 41.0888L230.511 41.0891L230.466 41.0893L230.42 41.0895L230.375 41.0897L230.329 41.0899L230.283 41.0901L230.238 41.0904L230.192 41.0906L230.146 41.0908L230.1 41.091L230.054 41.0912L230.008 41.0914L229.961 41.0917L229.915 41.0919L229.869 41.0921L229.822 41.0923L229.776 41.0925L229.729 41.0928L229.683 41.093L229.636 41.0932L229.589 41.0934L229.542 41.0936L229.495 41.0939L229.448 41.0941L229.401 41.0943L229.354 41.0945L229.307 41.0948L229.259 41.095L229.212 41.0952L229.211 41.0952ZM230.923 67.2335L229.318 64.4545L249.027 64.3611L247.448 67.1552L230.923 67.2335ZM249.565 63.41L228.772 63.5085L227.296 60.9531L227.167 60.7295L251.144 60.6159L249.565 63.41ZM251.682 59.6647L226.62 59.7835L225.682 58.1593L225.015 57.0045L253.261 56.8707L251.682 59.6647ZM253.799 55.9195L224.469 56.0585L222.864 53.2795L255.379 53.1254L253.799 55.9195ZM253.769 49.3979L255.374 52.1768L222.859 52.3309L224.439 49.5368L253.769 49.3979Z" fill="#382661" stroke="#382661" stroke-width="0.948609"/>
<path d="M250.45 44.8212L248.609 41.2726L229.09 41.6197L227.311 45.177L250.45 44.8212Z" fill="white" stroke="#382661" stroke-width="0.948609"/>
<path d="M253.26 56.2047L250.944 60.4845L227.089 60.4856L224.803 56.6073L253.26 56.2047Z" fill="white" stroke="#382661" stroke-width="0.948609"/>
<path d="M248.994 63.3192L247.351 66.8843L230.75 66.963L229.074 63.4136L248.994 63.3192Z" fill="white" stroke="#382661" stroke-width="0.948609"/>
<path d="M255.058 52.2919L253.215 49.1007L224.602 49.2363L223.042 52.2919L255.058 52.2919Z" fill="white" stroke="#382661" stroke-width="0.948609"/>
<path d="M257.288 55.6663L249.074 69.3956C250.682 89.1862 272.03 115.113 289.368 101.64C306.276 88.5015 272.629 61.842 257.288 55.6663Z" fill="#382661"/>
<path d="M257.288 49.9747L248.948 36.3239C250.374 16.5189 271.483 -9.60905 288.944 3.69888C305.972 16.6766 272.572 43.6539 257.288 49.9747Z" fill="#382661"/>
<path d="M0 53.3513H219.129" stroke="#382661" stroke-width="1.77864" stroke-dasharray="18.97 18.97"/>
</svg>
