<svg width="179" height="700" viewBox="0 0 179 700" fill="none" xmlns="http://www.w3.org/2000/svg">
<g clip-path="url(#clip0_70_2)">
<rect width="178.679" height="700" fill="#0E1923"/>
<path d="M194.761 19.1864L155.947 19.1864L136.54 -12.8838L155.947 -44.9541L194.761 -44.9541L214.168 -12.8838L194.761 19.1864Z" fill="white"/>
<path d="M72.8385 19.1864L34.9376 19.1864L15.9871 -12.8838L34.9376 -44.9541L72.8385 -44.9541L91.7891 -12.8838L72.8385 19.1864Z" fill="white"/>
<path d="M72.8385 88.6726L34.9376 88.6726L15.9871 56.599L34.9376 24.5321L72.8385 24.5321L91.7891 56.599L72.8385 88.6726Z" fill="white"/>
<path d="M72.8385 159.049L34.9376 159.049L15.9871 125.642L34.9376 92.2357L72.8385 92.2357L91.7891 125.642L72.8385 159.049Z" fill="#ADE0DB"/>
<path d="M72.8385 226.751L34.9376 226.751L15.9871 194.678L34.9376 162.611L72.8385 162.611L91.7891 194.678L72.8385 226.751Z" fill="white"/>
<path d="M72.8385 296.237L34.9376 296.237L15.9871 264.17L34.9376 232.097L72.8385 232.097L91.7891 264.17L72.8385 296.237Z" fill="#1A8CA9"/>
<path d="M133.338 54.8199L95.8973 54.8199L77.1767 22.7529L95.8973 -9.32056L133.338 -9.32056L152.065 22.7529L133.338 54.8199Z" fill="white"/>
<path d="M133.338 123.414L95.8973 123.414L77.1767 90.8986L95.8973 58.3831L133.338 58.3831L152.065 90.8986L133.338 123.414Z" fill="white"/>
<path d="M133.338 192.901L95.8973 192.901L77.1767 160.388L95.8973 127.869L133.338 127.869L152.065 160.388L133.338 192.901Z" fill="white"/>
<path d="M133.338 260.604L95.8973 260.604L77.1767 228.534L95.8973 196.463L133.338 196.463L152.065 228.534L133.338 260.604Z" fill="white"/>
<path d="M194.761 88.6726L155.947 88.6726L136.54 56.599L155.947 24.5321L194.761 24.5321L214.168 56.599L194.761 88.6726Z" fill="#5F2A8D"/>
<path d="M194.761 159.049L155.947 159.049L136.54 125.642L155.947 92.2357L194.761 92.2357L214.168 125.642L194.761 159.049Z" fill="white"/>
<path d="M194.761 226.751L155.947 226.751L136.54 194.678L155.947 162.611L194.761 162.611L214.168 194.678L194.761 226.751Z" fill="white"/>
<path d="M194.761 296.237L155.947 296.237L136.54 264.167L155.947 232.097L194.761 232.097L214.168 264.167L194.761 296.237Z" fill="white"/>
<path d="M72.8385 365.722L34.9376 365.722L15.9871 332.765L34.9376 299.8L72.8385 299.8L91.7891 332.765L72.8385 365.722Z" fill="white"/>
<path d="M72.8385 432.535L34.9376 432.535L15.9871 400.91L34.9376 369.285L72.8385 369.285L91.7891 400.91L72.8385 432.535Z" fill="white"/>
<path d="M72.8385 502.912L34.9376 502.912L15.9871 470.393L34.9376 437.881L72.8385 437.881L91.7891 470.393L72.8385 502.912Z" fill="white"/>
<path d="M133.338 330.98L95.8973 330.98L77.1767 297.573L95.8973 264.167L133.338 264.167L152.065 297.573L133.338 330.98Z" fill="white"/>
<path d="M133.338 398.684L95.8973 398.684L77.1767 366.61L95.8973 334.543L133.338 334.543L152.065 366.61L133.338 398.684Z" fill="white"/>
<path d="M133.338 468.169L95.8973 468.169L77.1767 435.212L95.8973 402.247L133.338 402.247L152.065 435.212L133.338 468.169Z" fill="#5F2A8D"/>
<path d="M133.338 536.763L95.8973 536.763L77.1767 504.244L95.8973 471.731L133.338 471.731L152.065 504.244L133.338 536.763Z" fill="white"/>
<path d="M194.761 365.722L155.947 365.722L136.54 332.765L155.947 299.8L194.761 299.8L214.168 332.765L194.761 365.722Z" fill="white"/>
<path d="M194.761 432.535L155.947 432.535L136.54 400.91L155.947 369.285L194.761 369.285L214.168 400.91L194.761 432.535Z" fill="#382661"/>
<path d="M194.761 502.912L155.947 502.912L136.54 470.393L155.947 437.881L194.761 437.881L214.168 470.393L194.761 502.912Z" fill="white"/>
<path d="M194.761 570.615L155.947 570.615L136.54 538.545L155.947 506.475L194.761 506.475L214.168 538.545L194.761 570.615Z" fill="white"/>
<path d="M72.8385 570.615L34.9376 570.615L15.9871 538.545L34.9376 506.475L72.8385 506.475L91.7891 538.545L72.8385 570.615Z" fill="white"/>
<path d="M72.8385 640.101L34.9376 640.101L15.9871 608.028L34.9376 575.961L72.8385 575.961L91.7891 608.028L72.8385 640.101Z" fill="#2C7BBD"/>
<path d="M72.8385 710.478L34.9376 710.478L15.9871 677.071L34.9376 643.665L72.8385 643.665L91.7891 677.071L72.8385 710.478Z" fill="white"/>
<path d="M133.338 606.249L95.8973 606.249L77.1767 574.182L95.8973 542.108L133.338 542.108L152.065 574.182L133.338 606.249Z" fill="white"/>
<path d="M133.338 674.843L95.8973 674.843L77.1767 642.327L95.8973 609.812L133.338 609.812L152.065 642.327L133.338 674.843Z" fill="#2C7BBD"/>
<path d="M133.338 744.329L95.8973 744.329L77.1767 711.817L95.8973 679.298L133.338 679.298L152.065 711.817L133.338 744.329Z" fill="white"/>
<path d="M194.761 640.101L155.947 640.101L136.54 608.028L155.947 575.961L194.761 575.961L214.168 608.028L194.761 640.101Z" fill="white"/>
<path d="M194.761 710.478L155.947 710.478L136.54 677.071L155.947 643.665L194.761 643.665L214.168 677.071L194.761 710.478Z" fill="white"/>
</g>
<defs>
<clipPath id="clip0_70_2">
<rect width="178.679" height="700" fill="white"/>
</clipPath>
</defs>
</svg>
