<svg width="255" height="999" viewBox="0 0 255 999" fill="none" xmlns="http://www.w3.org/2000/svg">
<g clip-path="url(#clip0_234_1969)">
<rect width="255" height="999" fill="#0E1923"/>
<path d="M277.954 27.3818L222.56 27.3818L194.863 -18.3869L222.56 -64.1559L277.954 -64.1559L305.65 -18.3869L277.954 27.3818Z" fill="white"/>
<path d="M103.952 27.3818L49.8615 27.3818L22.8164 -18.3869L49.8615 -64.1559L103.952 -64.1559L130.997 -18.3869L103.952 27.3818Z" fill="white"/>
<path d="M103.952 126.549L49.8615 126.549L22.8164 80.775L49.8615 35.0109L103.952 35.0109L130.997 80.775L103.952 126.549Z" fill="white"/>
<path d="M103.952 226.985L49.8615 226.985L22.8164 179.309L49.8615 131.634L103.952 131.634L130.997 179.309L103.952 226.985Z" fill="#ADE0DB"/>
<path d="M103.952 323.606L49.8615 323.606L22.8164 277.833L49.8615 232.069L103.952 232.069L130.997 277.833L103.952 323.606Z" fill="white"/>
<path d="M103.952 422.773L49.8615 422.773L22.8164 377.009L49.8615 331.235L103.952 331.235L130.997 377.009L103.952 422.773Z" fill="#1A8CA9"/>
<path d="M190.293 78.236L136.86 78.236L110.143 32.4717L136.86 -13.3017L190.293 -13.3017L217.02 32.4717L190.293 78.236Z" fill="white"/>
<path d="M190.293 176.13L136.86 176.13L110.143 129.725L136.86 83.3209L190.293 83.3209L217.02 129.725L190.293 176.13Z" fill="white"/>
<path d="M190.293 275.297L136.86 275.297L110.143 228.897L136.86 182.488L190.293 182.488L217.02 228.897L190.293 275.297Z" fill="white"/>
<path d="M190.293 371.919L136.86 371.919L110.143 326.15L136.86 280.381L190.293 280.381L217.02 326.15L190.293 371.919Z" fill="white"/>
<path d="M277.954 126.549L222.56 126.549L194.863 80.775L222.56 35.0109L277.954 35.0109L305.65 80.775L277.954 126.549Z" fill="#5F2A8D"/>
<path d="M277.954 226.985L222.56 226.985L194.863 179.309L222.56 131.634L277.954 131.634L305.65 179.309L277.954 226.985Z" fill="white"/>
<path d="M277.954 323.606L222.56 323.606L194.863 277.833L222.56 232.069L277.954 232.069L305.65 277.833L277.954 323.606Z" fill="white"/>
<path d="M277.954 422.773L222.56 422.773L194.863 377.004L222.56 331.235L277.954 331.235L305.65 377.004L277.954 422.773Z" fill="white"/>
<path d="M103.952 521.938L49.8615 521.938L22.8164 474.903L49.8615 427.858L103.952 427.858L130.997 474.903L103.952 521.938Z" fill="white"/>
<path d="M103.952 617.289L49.8615 617.289L22.8164 572.155L49.8615 527.022L103.952 527.022L130.997 572.155L103.952 617.289Z" fill="white"/>
<path d="M103.952 717.727L49.8615 717.727L22.8164 671.318L49.8615 624.918L103.952 624.918L130.997 671.318L103.952 717.727Z" fill="white"/>
<path d="M190.293 472.356L136.86 472.356L110.143 424.68L136.86 377.004L190.293 377.004L217.02 424.68L190.293 472.356Z" fill="white"/>
<path d="M190.293 568.979L136.86 568.979L110.143 523.205L136.86 477.441L190.293 477.441L217.02 523.205L190.293 568.979Z" fill="white"/>
<path d="M190.293 668.144L136.86 668.144L110.143 621.109L136.86 574.064L190.293 574.064L217.02 621.109L190.293 668.144Z" fill="#5F2A8D"/>
<path d="M190.293 766.037L136.86 766.037L110.143 719.628L136.86 673.228L190.293 673.228L217.02 719.628L190.293 766.037Z" fill="white"/>
<path d="M277.954 521.938L222.56 521.938L194.863 474.903L222.56 427.858L277.954 427.858L305.65 474.903L277.954 521.938Z" fill="white"/>
<path d="M277.954 617.289L222.56 617.289L194.863 572.155L222.56 527.022L277.954 527.022L305.65 572.155L277.954 617.289Z" fill="#382661"/>
<path d="M277.954 717.727L222.56 717.727L194.863 671.318L222.56 624.918L277.954 624.918L305.65 671.318L277.954 717.727Z" fill="white"/>
<path d="M277.954 814.349L222.56 814.349L194.863 768.58L222.56 722.812L277.954 722.812L305.65 768.58L277.954 814.349Z" fill="white"/>
<path d="M103.952 814.349L49.8615 814.349L22.8164 768.58L49.8615 722.812L103.952 722.812L130.997 768.58L103.952 814.349Z" fill="white"/>
<path d="M103.952 913.516L49.8615 913.516L22.8164 867.742L49.8615 821.978L103.952 821.978L130.997 867.742L103.952 913.516Z" fill="#2C7BBD"/>
<path d="M103.952 1013.95L49.8615 1013.95L22.8164 966.277L49.8615 918.601L103.952 918.601L130.997 966.277L103.952 1013.95Z" fill="white"/>
<path d="M190.293 865.203L136.86 865.203L110.143 819.439L136.86 773.666L190.293 773.666L217.02 819.439L190.293 865.203Z" fill="white"/>
<path d="M190.293 963.097L136.86 963.097L110.143 916.693L136.86 870.288L190.293 870.288L217.02 916.693L190.293 963.097Z" fill="#2C7BBD"/>
<path d="M190.293 1062.26L136.86 1062.26L110.143 1015.86L136.86 969.455L190.293 969.455L217.02 1015.86L190.293 1062.26Z" fill="white"/>
<path d="M277.954 913.516L222.56 913.516L194.863 867.742L222.56 821.978L277.954 821.978L305.65 867.742L277.954 913.516Z" fill="white"/>
<path d="M277.954 1013.95L222.56 1013.95L194.863 966.277L222.56 918.601L277.954 918.601L305.65 966.277L277.954 1013.95Z" fill="white"/>
</g>
<defs>
<clipPath id="clip0_234_1969">
<rect width="255" height="999" fill="white"/>
</clipPath>
</defs>
</svg>
