<svg width="182" height="711" viewBox="0 0 182 711" fill="none" xmlns="http://www.w3.org/2000/svg">
<g clip-path="url(#clip0_188_1443)">
<rect width="181.421" height="710.745" fill="#0E1923"/>
<path d="M197.751 19.4809L158.341 19.4809L138.636 -13.0815L158.341 -45.6442L197.751 -45.6442L217.456 -13.0815L197.751 19.4809Z" fill="white"/>
<path d="M73.9566 19.4809L35.4738 19.4809L16.2324 -13.0815L35.4738 -45.6441L73.9566 -45.6441L93.198 -13.0815L73.9566 19.4809Z" fill="white"/>
<path d="M73.9566 90.0338L35.4738 90.0338L16.2324 57.4679L35.4738 24.9087L73.9566 24.9087L93.198 57.4679L73.9566 90.0338Z" fill="white"/>
<path d="M73.9566 161.49L35.4738 161.49L16.2324 127.571L35.4738 93.6515L73.9566 93.6515L93.198 127.571L73.9566 161.49Z" fill="#ADE0DB"/>
<path d="M73.9566 230.232L35.4738 230.232L16.2324 197.666L35.4738 165.107L73.9566 165.107L93.198 197.666L73.9566 230.232Z" fill="white"/>
<path d="M73.9566 300.785L35.4738 300.785L16.2324 268.225L35.4738 235.659L73.9566 235.659L93.198 268.225L73.9566 300.785Z" fill="#1A8CA9"/>
<path d="M135.385 55.6614L97.3693 55.6614L78.3613 23.1021L97.3693 -9.46362L135.385 -9.46363L154.4 23.1021L135.385 55.6614Z" fill="white"/>
<path d="M135.385 125.309L97.3693 125.309L78.3613 92.2939L97.3693 59.2792L135.385 59.2792L154.4 92.2939L135.385 125.309Z" fill="white"/>
<path d="M135.385 195.862L97.3693 195.862L78.3613 162.85L97.3693 129.832L135.385 129.832L154.4 162.85L135.385 195.862Z" fill="white"/>
<path d="M135.385 264.604L97.3693 264.604L78.3613 232.042L97.3693 199.479L135.385 199.479L154.4 232.042L135.385 264.604Z" fill="white"/>
<path d="M197.751 90.0338L158.341 90.0338L138.636 57.4679L158.341 24.9087L197.751 24.9087L217.456 57.4679L197.751 90.0338Z" fill="#5F2A8D"/>
<path d="M197.751 161.49L158.341 161.49L138.636 127.571L158.341 93.6515L197.751 93.6515L217.456 127.571L197.751 161.49Z" fill="white"/>
<path d="M197.751 230.232L158.341 230.232L138.636 197.666L158.341 165.107L197.751 165.107L217.456 197.666L197.751 230.232Z" fill="white"/>
<path d="M197.751 300.785L158.341 300.785L138.636 268.222L158.341 235.659L197.751 235.659L217.456 268.222L197.751 300.785Z" fill="white"/>
<path d="M73.9566 371.336L35.4738 371.336L16.2324 337.873L35.4738 304.402L73.9566 304.402L93.198 337.873L73.9566 371.336Z" fill="white"/>
<path d="M73.9566 439.174L35.4738 439.174L16.2324 407.064L35.4738 374.953L73.9566 374.953L93.198 407.064L73.9566 439.174Z" fill="white"/>
<path d="M73.9566 510.632L35.4738 510.632L16.2324 477.614L35.4738 444.602L73.9566 444.602L93.198 477.614L73.9566 510.632Z" fill="white"/>
<path d="M135.385 336.06L97.3693 336.06L78.3613 302.141L97.3693 268.222L135.385 268.222L154.4 302.141L135.385 336.06Z" fill="white"/>
<path d="M135.385 404.804L97.3693 404.804L78.3613 372.238L97.3693 339.679L135.385 339.679L154.4 372.238L135.385 404.804Z" fill="white"/>
<path d="M135.385 475.356L97.3693 475.356L78.3613 441.892L97.3693 408.422L135.385 408.422L154.4 441.892L135.385 475.356Z" fill="#5F2A8D"/>
<path d="M135.385 545.002L97.3693 545.002L78.3613 511.984L97.3693 478.973L135.385 478.973L154.4 511.984L135.385 545.002Z" fill="white"/>
<path d="M197.751 371.336L158.341 371.336L138.636 337.873L158.341 304.402L197.751 304.402L217.456 337.873L197.751 371.336Z" fill="white"/>
<path d="M197.751 439.174L158.341 439.174L138.636 407.064L158.341 374.953L197.751 374.953L217.456 407.064L197.751 439.174Z" fill="#382661"/>
<path d="M197.751 510.632L158.341 510.632L138.636 477.614L158.341 444.602L197.751 444.602L217.456 477.614L197.751 510.632Z" fill="white"/>
<path d="M197.751 579.374L158.341 579.374L138.636 546.812L158.341 514.249L197.751 514.249L217.456 546.812L197.751 579.374Z" fill="white"/>
<path d="M73.9566 579.374L35.4738 579.374L16.2324 546.812L35.4738 514.249L73.9566 514.249L93.198 546.812L73.9566 579.374Z" fill="white"/>
<path d="M73.9566 649.927L35.4738 649.927L16.2324 617.361L35.4738 584.802L73.9566 584.802L93.198 617.361L73.9566 649.927Z" fill="#2C7BBD"/>
<path d="M73.9566 721.383L35.4738 721.383L16.2324 687.464L35.4738 653.545L73.9566 653.545L93.198 687.464L73.9566 721.383Z" fill="white"/>
<path d="M135.385 615.555L97.3693 615.555L78.3613 582.995L97.3693 550.43L135.385 550.43L154.4 582.995L135.385 615.555Z" fill="white"/>
<path d="M135.385 685.202L97.3693 685.202L78.3613 652.187L97.3693 619.172L135.385 619.172L154.4 652.187L135.385 685.202Z" fill="#2C7BBD"/>
<path d="M135.385 755.755L97.3693 755.755L78.3613 722.743L97.3693 689.725L135.385 689.725L154.4 722.743L135.385 755.755Z" fill="white"/>
<path d="M197.751 649.927L158.341 649.927L138.636 617.361L158.341 584.802L197.751 584.802L217.456 617.361L197.751 649.927Z" fill="white"/>
<path d="M197.751 721.383L158.341 721.383L138.636 687.464L158.341 653.545L197.751 653.545L217.456 687.464L197.751 721.383Z" fill="white"/>
</g>
<defs>
<clipPath id="clip0_188_1443">
<rect width="181.421" height="710.745" fill="white"/>
</clipPath>
</defs>
</svg>
