<svg width="815" height="743" viewBox="0 0 815 743" fill="none" xmlns="http://www.w3.org/2000/svg">
<rect width="814.618" height="742.761" fill="#0E1923"/>
<path d="M0 52.3185V0H814.618V33.1399C796.112 33.6697 789.793 61.5901 792.437 89.405C795.741 111.922 791.115 162.916 795.08 168.876C801.69 178.148 799.971 190.466 798.385 194.704C796.799 198.943 790.057 204.506 783.184 201.327C776.31 198.148 778.117 175.278 779.879 164.24L783.184 130.465C783.845 121.414 784.109 97.4845 779.879 74.173C775.65 50.8615 759.391 49.6694 753.443 54.9675C742.868 62.9146 730.751 105.961 724.362 132.452C720.397 144.372 698.851 161.061 678.759 148.346C653.645 132.452 660.915 104.637 647.035 94.0408C624.332 76.7079 612.007 94.703 610.685 100.001C609.298 105.561 603.195 144.814 601.432 164.24C600.833 170.849 591.77 178.341 587.696 187.877C583.621 197.413 589.393 222.69 592.789 234.137C597.033 249.178 598.318 254.002 596.335 259.963C590.519 272.678 580.269 268.683 578.924 262.517C576.943 253.435 581.64 244.07 581.188 238.394C580.735 232.718 575.34 219.568 572.699 213.703C567.412 199.398 564.37 191.851 561.947 183.904C555.999 171.321 545.255 170.201 530.714 164.24C519.082 159.472 515.293 137.971 514.853 127.816C513.266 109.273 502.736 97.5728 497.669 94.0408C490.839 89.405 476.123 85.299 471.893 105.961C467.663 126.624 456.912 131.348 452.066 131.127C432.899 127.816 442.152 131.79 424.307 107.948C410.031 88.8752 398.532 98.6766 394.566 105.961C383.991 127.154 390.224 148.748 386.635 150.995C376.06 157.618 380.467 180.797 378.704 194.042L376.721 228.479L378.704 284.771C379.365 297.354 375.532 317.487 378.704 323.845C381.876 330.202 382.009 340.07 374.739 343.05C363.107 347.818 361.08 334.882 361.52 327.818L362.842 303.315V264.904C361.961 243.491 360.463 198.28 361.52 188.744C362.578 179.207 357.995 163.578 355.572 156.955L345.658 134.439C343.235 129.141 338.917 116.69 341.032 109.273C343.147 101.855 339.71 94.703 333.762 91.3917C320.544 85.5639 314.595 98.6766 302.699 98.6766C293.182 99.7362 291.243 126.05 291.463 139.074V236.426C290.935 245.433 282.267 249.009 282.871 255.632C283.224 259.494 285.268 268.096 277.584 269.539C267.01 271.526 268.992 250.996 269.653 245.036C270.182 240.268 262.163 229.142 261.722 220.532C260.665 165.962 247.843 153.644 241.895 149.671C221.406 139.074 206.205 149.671 202.24 154.306C197.607 159.722 190.343 180.797 189.683 200.664V276.824C189.683 282.785 186.378 298.679 188.361 303.315C189.019 304.855 190.564 310.158 190.343 313.249C189.683 319.65 185.056 322.709 175.142 319.871C170.08 318.422 170.145 312.004 173.16 305.964C174.481 303.315 177.786 298.679 177.786 298.679C181.091 294.705 174.481 267.332 173.821 258.281C173.16 240.4 170.516 225.83 167.872 220.532C157.959 198.015 128.878 209.936 122.93 221.857C116.036 235.672 111.034 246.36 108.39 260.93C105.746 275.5 108.39 308.613 108.39 313.911C108.39 318.149 109.271 327.597 109.712 331.792C110.373 336.428 113.149 338.812 113.677 345.699C114.206 352.587 112.356 356.295 111.034 358.282C109.492 360.49 103.631 364.507 97.8154 360.269C91.9993 356.03 92.7484 346.141 93.8499 341.726C96.4935 334.838 96.7139 313.248 96.4936 303.315L95.8326 258.281C95.8326 237.089 90.1047 217 86.5798 209.274C81.9534 200.223 71.6432 179.34 67.4133 168.214C63.1834 157.088 62.126 147.684 62.126 144.372C60.1432 125.167 54.8559 137.088 52.2123 119.869C39.6549 111.922 33.0457 121.856 33.7067 133.114L34.3676 162.253C34.3676 168.214 35.4045 177.914 34.3676 179.472C30.4021 185.433 35.0285 192.055 35.6894 198.678C35.9063 200.851 35.7927 209.781 34.3676 211.923C29.0802 219.87 18.678 217.883 17.1838 209.274C16.3026 204.197 15.0689 192.055 17.1838 184.108C19.2987 176.161 16.3026 148.125 14.5401 135.101C13.6589 127.374 12.0286 108.081 12.5574 92.7163C13.0861 77.3519 4.4061 59.3826 0 52.3185Z" fill="white"/>
</svg>
