<svg width="699" height="393" viewBox="0 0 699 393" fill="none" xmlns="http://www.w3.org/2000/svg">
<g clip-path="url(#clip0_234_2196)">
<rect width="699" height="393" fill="#0E1923"/>
<path d="M-58 200.555H64.5653C65.4508 200.555 66.1997 201.21 66.3175 202.088L80.6309 308.703C80.9084 310.77 83.9104 310.736 84.1403 308.662L108.939 85.0442C109.168 82.9761 112.16 82.9342 112.447 84.9949L132.708 230.346C132.949 232.077 135.286 232.446 136.049 230.874L150.287 201.551C150.583 200.942 151.201 200.555 151.878 200.555H169.361C170.053 200.555 170.682 200.151 170.969 199.521L183.875 171.267C184.471 169.964 186.288 169.873 187.01 171.11L203.684 199.678C204.001 200.221 204.583 200.555 205.211 200.555H279.911C280.797 200.555 281.546 201.21 281.664 202.088L295.977 308.703C296.255 310.77 299.256 310.736 299.486 308.662L324.285 85.0442C324.514 82.9761 327.506 82.9342 327.793 84.9949L348.054 230.346C348.295 232.077 350.632 232.446 351.395 230.874L365.633 201.551C365.929 200.942 366.547 200.555 367.224 200.555H384.707C385.399 200.555 386.028 200.151 386.315 199.521L399.221 171.267C399.817 169.964 401.634 169.873 402.356 171.11L419.031 199.678C419.347 200.221 419.929 200.555 420.557 200.555H495.257C496.143 200.555 496.892 201.21 497.01 202.088L511.323 308.703C511.601 310.77 514.603 310.736 514.832 308.662L539.631 85.0442C539.86 82.9761 542.852 82.9342 543.139 84.9949L563.4 230.346C563.641 232.077 565.978 232.446 566.741 230.874L580.979 201.551C581.275 200.942 581.893 200.555 582.57 200.555H600.053C600.745 200.555 601.374 200.151 601.661 199.521L614.567 171.267C615.163 169.964 616.98 169.873 617.702 171.11L634.377 199.678C634.693 200.221 635.275 200.555 635.904 200.555H759" stroke="white" stroke-width="2.49912"/>
</g>
<rect x="1.25" y="1.25" width="696.5" height="390.5" stroke="#2C7BBD" stroke-width="2.5"/>
<defs>
<clipPath id="clip0_234_2196">
<rect width="699" height="393" fill="white"/>
</clipPath>
</defs>
</svg>
