<svg width="717" height="393" viewBox="0 0 717 393" fill="none" xmlns="http://www.w3.org/2000/svg">
<g clip-path="url(#clip0_234_2316)">
<rect width="717" height="393" fill="#0E1923"/>
<path d="M23 366V293H29.6667V326.182L43 319.546L63.0001 329.5V366H56.3334V332.818L43 326.182L29.6667 332.818V366H23Z" fill="white"/>
<path d="M104 256.286L117.333 249.572V229.429L104 222.714L90.6667 229.429V249.572L104 256.286ZM104 263L84 252.929V226.071L104 216L124 226.071V252.929L104 263Z" fill="white"/>
<path d="M124 340V293H130.667V299.714L144 293L164 303.071V340H157.333V306.429L144 299.714L130.667 306.429V340H124Z" fill="white"/>
<path d="M184 220L164 209.929V183.071L184 173L204 183.071V196.5H184V189.786H197.333V186.429L184 179.714L170.667 186.429V206.572L184 213.286L197.333 206.572L204 209.929L184 220Z" fill="white"/>
<path d="M245 329V322.364L258.333 315.727V295.818L245 302.455L225 292.5V256H231.667V289.182L245 295.818L258.333 289.182V256H265V319.046L245 329Z" fill="white"/>
<path d="M436 103.364L449.333 96.7277V76.8185L436 70.1821L422.667 76.8185V96.7277L436 103.364ZM436 110L416 100.046V37.0002H422.667V70.1821L436 63.5458L456 73.5003V100.046L436 110Z" fill="white"/>
<path d="M501 227L481 216.929V190.071L501 180L521 190.071V203.5H501V196.786H514.333V193.429L501 186.714L487.667 193.429V213.572L501 220.286L514.333 213.572L521 216.929L501 227Z" fill="white"/>
<path d="M596 363L576 352.929V326.071L596 316L616 326.071V339.5H596V332.786H609.333V329.429L596 322.714L582.667 329.429V349.572L596 356.286L609.333 349.572L616 352.929L596 363Z" fill="white"/>
</g>
<rect x="1.25" y="1.25" width="714.5" height="390.5" stroke="#2C7BBD" stroke-width="2.5"/>
<defs>
<clipPath id="clip0_234_2316">
<rect width="717" height="393" fill="white"/>
</clipPath>
</defs>
</svg>
