<svg width="1366" height="122" viewBox="0 0 1366 122" fill="none" xmlns="http://www.w3.org/2000/svg">
<path d="M351.226 46.2448L379.684 46.2448L393.913 23.4757L379.684 0.711425L351.226 0.711424L336.996 23.4757L351.226 46.2448Z" fill="white"/>
<path d="M440.692 46.2448L468.794 46.2448L482.846 23.4757L468.794 0.711425L440.692 0.711424L426.64 23.4757L440.692 46.2448Z" fill="white"/>
<path d="M531.046 46.2448L559.149 46.2448L573.2 23.478L559.149 0.711425L531.046 0.711424L516.995 23.478L531.046 46.2448Z" fill="white"/>
<path d="M621.579 46.2448L650.037 46.2448L664.267 23.478L650.037 0.711425L621.579 0.711424L607.35 23.478L621.579 46.2448Z" fill="white"/>
<path d="M711.935 46.2448L740.393 46.2448L754.622 23.4757L740.393 0.711425L711.935 0.711424L697.705 23.4757L711.935 46.2448Z" fill="white"/>
<path d="M801.4 46.2448L829.502 46.2448L843.554 23.4757L829.502 0.711425L801.4 0.711424L787.349 23.4757L801.4 46.2448Z" fill="white"/>
<path d="M82.2949 46.9563L110.753 46.9563L124.982 24.1896L110.753 1.42297L82.2949 1.42297L68.0657 24.1896L82.2949 46.9563Z" fill="white"/>
<path d="M171.938 46.9563L200.397 46.9563L214.626 24.1873L200.397 1.42297L171.938 1.42297L157.709 24.1873L171.938 46.9563Z" fill="white"/>
<path d="M261.405 46.9563L289.507 46.9563L303.559 24.1873L289.507 1.42297L261.405 1.42297L247.353 24.1873L261.405 46.9563Z" fill="white"/>
<path d="M396.407 71.1458L424.151 71.1458L438.023 48.0233L424.151 24.901L396.407 24.901L382.53 48.0233L396.407 71.1458Z" fill="white"/>
<path d="M486.229 71.1458L514.329 71.1458L528.379 48.0233L514.329 24.901L486.229 24.901L472.174 48.0233L486.229 71.1458Z" fill="white"/>
<path d="M576.046 71.1458L604.504 71.1458L618.733 48.0257L604.504 24.901L576.046 24.901L561.817 48.0257L576.046 71.1458Z" fill="white"/>
<path d="M666.935 71.1458L695.038 71.1458L709.089 48.0257L695.038 24.901L666.935 24.901L652.884 48.0257L666.935 71.1458Z" fill="white"/>
<path d="M757.116 71.1458L784.86 71.1458L798.732 48.0233L784.86 24.901L757.116 24.901L743.239 48.0233L757.116 71.1458Z" fill="white"/>
<path d="M36.0508 71.8572L64.5091 71.8572L78.7383 48.7371L64.5091 25.6124L36.0508 25.6124L21.8216 48.7371L36.0508 71.8572Z" fill="white"/>
<path d="M126.939 71.8572L155.041 71.8572L169.093 48.7371L155.041 25.6124L126.939 25.6124L112.888 48.7371L126.939 71.8572Z" fill="white"/>
<path d="M217.12 71.8572L244.864 71.8572L258.736 48.7348L244.864 25.6124L217.12 25.6124L203.243 48.7348L217.12 71.8572Z" fill="white"/>
<path d="M306.23 71.8572L334.33 71.8572L348.38 48.7348L334.33 25.6124L306.23 25.6124L292.175 48.7348L306.23 71.8572Z" fill="white"/>
<path d="M351.226 96.7582L379.684 96.7582L393.913 72.9242L379.684 49.0905L351.226 49.0905L336.996 72.9242L351.226 96.7582Z" fill="white"/>
<path d="M440.692 96.7582L468.794 96.7582L482.846 72.9242L468.794 49.0905L440.692 49.0905L426.64 72.9242L440.692 96.7582Z" fill="white"/>
<path d="M531.046 96.7582L559.149 96.7582L573.2 72.9218L559.149 49.0905L531.046 49.0905L516.995 72.9218L531.046 96.7582Z" fill="white"/>
<path d="M621.579 96.7582L650.037 96.7582L664.267 72.9218L650.037 49.0905L621.579 49.0905L607.35 72.9218L621.579 96.7582Z" fill="white"/>
<path d="M711.935 96.7582L740.393 96.7582L754.622 72.9242L740.393 49.0905L711.935 49.0905L697.705 72.9242L711.935 96.7582Z" fill="white"/>
<path d="M801.4 96.7582L829.502 96.7582L843.554 72.9242L829.502 49.0905L801.4 49.0905L787.349 72.9242L801.4 96.7582Z" fill="white"/>
<path d="M82.2949 97.4697L110.753 97.4697L124.982 73.6334L110.753 49.802L82.2949 49.802L68.0657 73.6334L82.2949 97.4697Z" fill="white"/>
<path d="M171.938 97.4697L200.397 97.4697L214.626 73.6358L200.397 49.802L171.938 49.802L157.709 73.6358L171.938 97.4697Z" fill="white"/>
<path d="M261.405 97.4697L289.507 97.4697L303.559 73.6358L289.507 49.802L261.405 49.802L247.353 73.6358L261.405 97.4697Z" fill="white"/>
<path d="M396.407 120.948L424.151 120.948L438.023 97.8278L424.151 74.703L396.407 74.703L382.53 97.8278L396.407 120.948Z" fill="white"/>
<path d="M486.229 120.948L514.329 120.948L528.379 97.8278L514.329 74.703L486.229 74.703L472.174 97.8278L486.229 120.948Z" fill="white"/>
<path d="M576.046 120.948L604.504 120.948L618.733 97.8253L604.504 74.703L576.046 74.703L561.817 97.8253L576.046 120.948Z" fill="white"/>
<path d="M666.935 120.948L695.038 120.948L709.089 97.8253L695.038 74.703L666.935 74.703L652.884 97.8253L666.935 120.948Z" fill="white"/>
<path d="M757.116 120.948L784.86 120.948L798.732 97.8278L784.86 74.703L757.116 74.703L743.239 97.8278L757.116 120.948Z" fill="white"/>
<path d="M36.0508 121.659L64.5091 121.659L78.7383 98.5368L64.5091 75.4144L36.0508 75.4144L21.8216 98.5368L36.0508 121.659Z" fill="white"/>
<path d="M126.939 121.659L155.041 121.659L169.093 98.5368L155.041 75.4144L126.939 75.4144L112.888 98.5368L126.939 121.659Z" fill="white"/>
<path d="M217.12 121.659L244.864 121.659L258.736 98.5392L244.864 75.4144L217.12 75.4144L203.243 98.5392L217.12 121.659Z" fill="white"/>
<path d="M306.23 121.659L334.33 121.659L348.38 98.5392L334.33 75.4144L306.23 75.4144L292.175 98.5392L306.23 121.659Z" fill="white"/>
<path d="M893.354 46.2448L921.813 46.2448L936.042 23.12L921.813 -5.89063e-07L893.354 -1.76719e-06L879.125 23.12L893.354 46.2448Z" fill="white"/>
<path d="M847.11 71.1458L875.569 71.1458L889.798 48.3767L875.569 25.6124L847.11 25.6124L832.881 48.3767L847.11 71.1458Z" fill="white"/>
<path d="M982.821 46.2448L1010.92 46.2448L1024.97 23.12L1010.92 -5.81699e-07L982.821 -1.7451e-06L968.769 23.12L982.821 46.2448Z" fill="white"/>
<path d="M1254.06 46.2448L1282.52 46.2448L1296.75 23.12L1282.52 -5.89063e-07L1254.06 -1.76719e-06L1239.83 23.12L1254.06 46.2448Z" fill="white"/>
<path d="M1028.36 71.1458L1056.46 71.1458L1070.51 48.0233L1056.46 24.901L1028.36 24.901L1014.3 48.0233L1028.36 71.1458Z" fill="white"/>
<path d="M1118.17 71.1458L1146.63 71.1458L1160.86 48.0257L1146.63 24.901L1118.17 24.901L1103.95 48.0257L1118.17 71.1458Z" fill="white"/>
<path d="M1209.06 71.1458L1237.17 71.1458L1251.22 48.0257L1237.17 24.901L1209.06 24.901L1195.01 48.0257L1209.06 71.1458Z" fill="white"/>
<path d="M1299.07 71.1458L1326.46 71.1458L1340.15 48.0233L1326.46 24.901L1299.07 24.901L1285.37 48.0233L1299.07 71.1458Z" fill="white"/>
<path d="M893.354 96.7582L921.813 96.7582L936.042 72.5686L921.813 48.379L893.354 48.379L879.125 72.5685L893.354 96.7582Z" fill="white"/>
<path d="M982.821 96.7582L1010.92 96.7582L1024.97 72.5686L1010.92 48.379L982.821 48.379L968.769 72.5685L982.821 96.7582Z" fill="white"/>
<path d="M1072.64 96.7582L1101.1 96.7582L1115.33 72.5661L1101.1 48.379L1072.64 48.379L1058.41 72.5661L1072.64 96.7582Z" fill="white"/>
<path d="M1163.71 96.7582L1192.17 96.7582L1206.4 72.5661L1192.17 48.379L1163.71 48.379L1149.48 72.5661L1163.71 96.7582Z" fill="white"/>
<path d="M1254.06 96.7582L1282.52 96.7582L1296.75 72.5686L1282.52 48.379L1254.06 48.379L1239.83 72.5685L1254.06 96.7582Z" fill="white"/>
<path d="M938.358 120.236L965.747 120.236L979.441 97.1162L965.747 73.9915L938.358 73.9915L924.659 97.1162L938.358 120.236Z" fill="white"/>
<path d="M847.292 120.236L874.681 120.236L888.375 97.1162L874.681 73.9915L847.292 73.9915L833.593 97.1162L847.292 120.236Z" fill="white"/>
<path d="M351.226 46.2448L379.684 46.2448L393.913 23.4757L379.684 0.711425L351.226 0.711424L336.996 23.4757L351.226 46.2448Z" fill="white"/>
<path d="M440.692 46.2448L468.794 46.2448L482.846 23.4757L468.794 0.711425L440.692 0.711424L426.64 23.4757L440.692 46.2448Z" fill="white"/>
<path d="M531.046 46.2448L559.149 46.2448L573.2 23.478L559.149 0.711425L531.046 0.711424L516.995 23.478L531.046 46.2448Z" fill="white"/>
<path d="M621.579 46.2448L650.037 46.2448L664.267 23.478L650.037 0.711425L621.579 0.711424L607.35 23.478L621.579 46.2448Z" fill="#7CCEC6"/>
<path d="M711.935 46.2448L740.393 46.2448L754.622 23.4757L740.393 0.711425L711.935 0.711424L697.705 23.4757L711.935 46.2448Z" fill="white"/>
<path d="M801.4 46.2448L829.502 46.2448L843.554 23.4757L829.502 0.711425L801.4 0.711424L787.349 23.4757L801.4 46.2448Z" fill="white"/>
<path d="M1.71039e-06 46.9563L19.1537 46.9563L33.2051 24.1896L19.1537 1.42297L3.8147e-06 1.42297L2.76255e-06 24.1896L1.71039e-06 46.9563Z" fill="#5F2A8D"/>
<path d="M82.2949 46.9563L110.753 46.9563L124.982 24.1896L110.753 1.42297L82.2949 1.42297L68.0657 24.1896L82.2949 46.9563Z" fill="white"/>
<path d="M171.938 46.9563L200.397 46.9563L214.626 24.1873L200.397 1.42297L171.938 1.42297L157.709 24.1873L171.938 46.9563Z" fill="white"/>
<path d="M261.405 46.9563L289.507 46.9563L303.559 24.1873L289.507 1.42297L261.405 1.42297L247.353 24.1873L261.405 46.9563Z" fill="white"/>
<path d="M396.407 71.1458L424.151 71.1458L438.023 48.0233L424.151 24.901L396.407 24.901L382.53 48.0233L396.407 71.1458Z" fill="white"/>
<path d="M486.229 71.1458L514.329 71.1458L528.379 48.0233L514.329 24.901L486.229 24.901L472.174 48.0233L486.229 71.1458Z" fill="#7CCEC6"/>
<path d="M576.046 71.1458L604.504 71.1458L618.733 48.0257L604.504 24.901L576.046 24.901L561.817 48.0257L576.046 71.1458Z" fill="#7CCEC6"/>
<path d="M666.935 71.1458L695.038 71.1458L709.089 48.0257L695.038 24.901L666.935 24.901L652.884 48.0257L666.935 71.1458Z" fill="white"/>
<path d="M757.116 71.1458L784.86 71.1458L798.732 48.0233L784.86 24.901L757.116 24.901L743.239 48.0233L757.116 71.1458Z" fill="white"/>
<path d="M36.0508 71.8572L64.5091 71.8572L78.7383 48.7371L64.5091 25.6124L36.0508 25.6124L21.8216 48.7371L36.0508 71.8572Z" fill="#2C7BBD"/>
<path d="M126.939 71.8572L155.041 71.8572L169.093 48.7371L155.041 25.6124L126.939 25.6124L112.888 48.7371L126.939 71.8572Z" fill="#1A8CA9"/>
<path d="M217.12 71.8572L244.864 71.8572L258.736 48.7348L244.864 25.6124L217.12 25.6124L203.243 48.7348L217.12 71.8572Z" fill="white"/>
<path d="M306.23 71.8572L334.33 71.8572L348.38 48.7348L334.33 25.6124L306.23 25.6124L292.175 48.7348L306.23 71.8572Z" fill="white"/>
<path d="M351.226 96.7582L379.684 96.7582L393.913 72.9242L379.684 49.0905L351.226 49.0905L336.996 72.9242L351.226 96.7582Z" fill="white"/>
<path d="M440.692 96.7582L468.794 96.7582L482.846 72.9242L468.794 49.0905L440.692 49.0905L426.64 72.9242L440.692 96.7582Z" fill="white"/>
<path d="M531.046 96.7582L559.149 96.7582L573.2 72.9218L559.149 49.0905L531.046 49.0905L516.995 72.9218L531.046 96.7582Z" fill="white"/>
<path d="M621.579 96.7582L650.037 96.7582L664.267 72.9218L650.037 49.0905L621.579 49.0905L607.35 72.9218L621.579 96.7582Z" fill="white"/>
<path d="M711.935 96.7582L740.393 96.7582L754.622 72.9242L740.393 49.0905L711.935 49.0905L697.705 72.9242L711.935 96.7582Z" fill="#5F2A8D"/>
<path d="M801.051 96.6677L829.154 96.6677L843.205 72.8338L829.154 49L801.051 49L787 72.8338L801.051 96.6677Z" fill="white"/>
<path d="M-2.20295e-06 97.4697L19.1537 97.4697L33.2051 73.6334L19.1537 49.802L0 49.802L-1.10136e-06 73.6334L-2.20295e-06 97.4697Z" fill="#7CCEC6"/>
<path d="M82.2949 97.4697L110.753 97.4697L124.982 73.6334L110.753 49.802L82.2949 49.802L68.0657 73.6334L82.2949 97.4697Z" fill="white"/>
<path d="M171.938 97.4697L200.397 97.4697L214.626 73.6358L200.397 49.802L171.938 49.802L157.709 73.6358L171.938 97.4697Z" fill="#5F2A8D"/>
<path d="M261.405 97.4697L289.507 97.4697L303.559 73.6358L289.507 49.802L261.405 49.802L247.353 73.6358L261.405 97.4697Z" fill="white"/>
<path d="M396.407 120.948L424.151 120.948L438.023 97.8278L424.151 74.703L396.407 74.703L382.53 97.8278L396.407 120.948Z" fill="#2C7BBD"/>
<path d="M486.229 120.948L514.329 120.948L528.379 97.8278L514.329 74.703L486.229 74.703L472.174 97.8278L486.229 120.948Z" fill="white"/>
<path d="M576.046 120.948L604.504 120.948L618.733 97.8253L604.504 74.703L576.046 74.703L561.817 97.8253L576.046 120.948Z" fill="#7CCEC6"/>
<path d="M666.935 120.948L695.038 120.948L709.089 97.8253L695.038 74.703L666.935 74.703L652.884 97.8253L666.935 120.948Z" fill="white"/>
<path d="M757.116 120.948L784.86 120.948L798.732 97.8278L784.86 74.703L757.116 74.703L743.239 97.8278L757.116 120.948Z" fill="#2C7BBD"/>
<path d="M36.0508 121.659L64.5091 121.659L78.7383 98.5368L64.5091 75.4144L36.0508 75.4144L21.8216 98.5368L36.0508 121.659Z" fill="white"/>
<path d="M126.939 121.659L155.041 121.659L169.093 98.5368L155.041 75.4144L126.939 75.4144L112.888 98.5368L126.939 121.659Z" fill="white"/>
<path d="M217.12 121.659L244.864 121.659L258.736 98.5392L244.864 75.4144L217.12 75.4144L203.243 98.5392L217.12 121.659Z" fill="white"/>
<path d="M306.23 121.659L334.33 121.659L348.38 98.5392L334.33 75.4144L306.23 75.4144L292.175 98.5392L306.23 121.659Z" fill="#7CCEC6"/>
<path d="M893.354 46.2448L921.813 46.2448L936.042 23.4757L921.813 0.711425L893.354 0.711424L879.125 23.4757L893.354 46.2448Z" fill="white"/>
<path d="M847.11 71.1458L875.569 71.1458L889.798 48.3767L875.569 25.6124L847.11 25.6124L832.881 48.3767L847.11 71.1458Z" fill="#5F2A8D"/>
<path d="M982.821 46.2448L1010.92 46.2448L1024.97 23.4757L1010.92 0.711425L982.821 0.711424L968.769 23.4757L982.821 46.2448Z" fill="white"/>
<path d="M1073.18 46.2448L1101.28 46.2448L1115.33 23.478L1101.28 0.711425L1073.18 0.711424L1059.12 23.478L1073.18 46.2448Z" fill="#2C7BBD"/>
<path d="M1163.71 46.2448L1192.17 46.2448L1206.4 23.478L1192.17 0.711425L1163.71 0.711424L1149.48 23.478L1163.71 46.2448Z" fill="#7CCEC6"/>
<path d="M1254.06 46.2448L1282.52 46.2448L1296.75 23.4757L1282.52 0.711425L1254.06 0.711424L1239.83 23.4757L1254.06 46.2448Z" fill="white"/>
<path d="M1343.53 46.2448L1366 46.2448L1366 23.4757L1366 0.711426L1343.53 0.711427L1329.48 23.4757L1343.53 46.2448Z" fill="white"/>
<path d="M938.536 71.1457L966.28 71.1457L980.152 48.0232L966.28 24.9009L938.536 24.9009L924.659 48.0232L938.536 71.1457Z" fill="#1A8CA9"/>
<path d="M1028.36 71.1458L1056.46 71.1458L1070.51 48.0233L1056.46 24.901L1028.36 24.901L1014.3 48.0233L1028.36 71.1458Z" fill="white"/>
<path d="M1118.17 71.1458L1146.63 71.1458L1160.86 48.0257L1146.63 24.901L1118.17 24.901L1103.95 48.0257L1118.17 71.1458Z" fill="white"/>
<path d="M1209.06 71.1458L1237.17 71.1458L1251.22 48.0257L1237.17 24.901L1209.06 24.901L1195.01 48.0257L1209.06 71.1458Z" fill="#5F2A8D"/>
<path d="M1299.24 71.1458L1326.99 71.1458L1340.86 48.0233L1326.99 24.901L1299.24 24.901L1285.37 48.0233L1299.24 71.1458Z" fill="white"/>
<path d="M893.354 96.7582L921.813 96.7582L936.042 72.9242L921.813 49.0905L893.354 49.0905L879.125 72.9242L893.354 96.7582Z" fill="white"/>
<path d="M982.821 96.7582L1010.92 96.7582L1024.97 72.9242L1010.92 49.0905L982.821 49.0905L968.769 72.9242L982.821 96.7582Z" fill="white"/>
<path d="M1073.18 96.7582L1101.28 96.7582L1115.33 72.9218L1101.28 49.0905L1073.18 49.0905L1059.12 72.9218L1073.18 96.7582Z" fill="white"/>
<path d="M1163.71 96.7582L1192.17 96.7582L1206.4 72.9218L1192.17 49.0905L1163.71 49.0905L1149.48 72.9218L1163.71 96.7582Z" fill="white"/>
<path d="M1254.06 96.7582L1282.52 96.7582L1296.75 72.9242L1282.52 49.0905L1254.06 49.0905L1239.83 72.9242L1254.06 96.7582Z" fill="white"/>
<path d="M1343.53 96.7582L1366 96.7582L1366 75.1644L1366 49.0905L1343.53 49.0905L1329.48 72.9243L1343.53 96.7582Z" fill="#7CCEC6"/>
<path d="M938.536 120.948L966.28 120.948L980.152 97.8278L966.28 74.703L938.536 74.703L924.659 97.8278L938.536 120.948Z" fill="white"/>
<path d="M846.758 120.236L874.503 120.236L888.375 97.1162L874.503 73.9915L846.758 73.9915L832.881 97.1162L846.758 120.236Z" fill="white"/>
<path d="M1027.65 120.948L1055.75 120.948L1069.8 97.8276L1055.75 74.7029L1027.65 74.7029L1013.59 97.8276L1027.65 120.948Z" fill="#5F2A8D"/>
<path d="M1118.17 120.948L1146.63 120.948L1160.86 97.8253L1146.63 74.703L1118.17 74.703L1103.95 97.8253L1118.17 120.948Z" fill="white"/>
<path d="M1209.06 120.236L1237.17 120.236L1251.22 97.1137L1237.17 73.9913L1209.06 73.9913L1195.01 97.1137L1209.06 120.236Z" fill="#7CCEC6"/>
<path d="M1299.24 120.236L1326.99 120.236L1340.86 97.1161L1326.99 73.9913L1299.24 73.9913L1285.37 97.1161L1299.24 120.236Z" fill="#2C7BBD"/>
</svg>
