<svg width="1367" height="96" viewBox="0 0 1367 96" fill="none" xmlns="http://www.w3.org/2000/svg">
<path d="M39.2592 20.5333L67.3618 20.5333L80.0508 0L65.5508 0L52.0508 7.48197e-07L38.0508 1.68622e-07L26.0508 -3.28157e-07L39.2592 20.5333Z" fill="white"/>
<path d="M129.259 20.5333L157.362 20.5333L170.051 0L155.551 0L142.051 7.48197e-07L128.051 1.68622e-07L116.051 -3.28157e-07L129.259 20.5333Z" fill="white"/>
<path d="M0.0507829 46L21.6878 46.1459L35.917 23.0258L21.5 -5.96052e-07L0.0507812 0L-1.10915e-06 24L0.0507829 46Z" fill="#5F2A8D"/>
<path d="M84.1683 46.1459L112.271 46.1459L126.322 23.0258L112.051 -5.90036e-07L84.1815 -1.43988e-09L70.1171 23.0258L84.1683 46.1459Z" fill="#7CCEC6"/>
<path d="M174.349 46.1459L202.094 46.1459L215.966 23.0235L202.142 3.06318e-09L174.051 -5.72236e-07L160.472 23.0235L174.349 46.1459Z" fill="#2C7BBD"/>
<path d="M219.259 20.5333L247.362 20.5333L260.051 0L245.551 0L232.051 7.48197e-07L218.051 1.68622e-07L206.051 -3.28157e-07L219.259 20.5333Z" fill="white"/>
<path d="M263.459 46.1459L291.559 46.1459L305.609 23.0235L291.551 -5.81234e-07L263.399 0L249.404 23.0235L263.459 46.1459Z" fill="white"/>
<path d="M308.259 20.5333L336.362 20.5333L349.051 0L334.551 0L321.051 7.48197e-07L307.051 1.68622e-07L295.051 -3.28157e-07L308.259 20.5333Z" fill="white"/>
<path d="M353.636 45.4345L381.381 45.4345L395.253 22.312L382.051 -5.45826e-07L353.275 -9.38368e-09L339.759 22.312L353.636 45.4345Z" fill="#5F2A8D"/>
<path d="M398.259 20.5333L426.362 20.5333L439.051 0L424.551 0L411.051 7.48197e-07L397.051 1.68622e-07L385.051 -3.28157e-07L398.259 20.5333Z" fill="white"/>
<path d="M443.457 45.4345L471.557 45.4345L485.607 22.312L472.051 -5.60482e-07L443.457 -2.40399e-08L429.402 22.312L443.457 45.4345Z" fill="white"/>
<path d="M488.259 20.5333L516.362 20.5333L529.051 0L514.551 0L501.051 7.48197e-07L487.051 1.68622e-07L475.051 -3.28157e-07L488.259 20.5333Z" fill="white"/>
<path d="M533.275 45.4345L561.734 45.4345L575.963 22.3144L562.051 0L533.275 -1.14794e-06L519.046 22.3144L533.275 45.4345Z" fill="white"/>
<path d="M578.809 20.5333L607.267 20.5333L620.051 0L604.551 -3.05914e-07L581.551 7.91464e-07L566.551 1.70923e-07L578.809 20.5333Z" fill="#2C7BBD"/>
<path d="M624.164 45.4345L652.267 45.4345L666.318 22.3144L652.267 -1.42642e-08L624.164 -1.17698e-06L610.113 22.3144L624.164 45.4345Z" fill="white"/>
<path d="M669.259 20.5333L697.362 20.5333L710.051 0L695.551 0L682.051 7.48197e-07L668.051 1.68622e-07L656.051 -3.28157e-07L669.259 20.5333Z" fill="white"/>
<path d="M714.344 45.4345L742.089 45.4345L755.961 22.312L742.089 -5.7353e-07L714.344 2.25162e-08L700.467 22.312L714.344 45.4345Z" fill="#7CCEC6"/>
<path d="M759.259 20.5333L787.362 20.5333L800.051 0L785.551 0L772.051 7.48197e-07L758.051 1.68622e-07L746.051 -3.28157e-07L759.259 20.5333Z" fill="white"/>
<path d="M804.34 45.4342L832.798 45.4342L847.027 22.6652L832.801 -1.18304e-10L804.551 -5.88958e-07L790.111 22.6652L804.34 45.4342Z" fill="white"/>
<path d="M850.585 20.5333L879.043 20.5333L891.551 0L876.551 -6.20974e-07L864.551 -2.52832e-06L853.551 3.34215e-07L838.051 -3.07457e-07L850.585 20.5333Z" fill="#5F2A8D"/>
<path d="M895.766 45.4342L923.511 45.4342L937.383 22.3118L924.051 -5.51923e-07L895.051 -1.54808e-08L881.889 22.3118L895.766 45.4342Z" fill="white"/>
<path d="M940.259 20.5333L968.362 20.5333L981.051 0L966.551 0L953.051 7.48197e-07L939.051 1.68622e-07L927.051 -3.28157e-07L940.259 20.5333Z" fill="white"/>
<path d="M985.587 45.4342L1013.69 45.4342L1027.74 22.3118L1014.05 -5.66598e-07L985.051 2.94482e-08L971.532 22.3118L985.587 45.4342Z" fill="#7CCEC6"/>
<path d="M1030.26 20.5333L1058.36 20.5333L1071.05 0L1056.55 0L1043.05 7.48197e-07L1029.05 1.68622e-07L1017.05 -3.28157e-07L1030.26 20.5333Z" fill="white"/>
<path d="M1075.41 45.4342L1103.86 45.4342L1118.09 22.3141L1104.55 -5.60615e-07L1074.84 -2.41731e-08L1061.18 22.3141L1075.41 45.4342Z" fill="#2C7BBD"/>
<path d="M1121.26 20.5333L1149.36 20.5333L1162.05 0L1147.55 0L1134.05 7.48197e-07L1120.05 1.68622e-07L1108.05 -3.28157e-07L1121.26 20.5333Z" fill="white"/>
<path d="M1166.29 45.4342L1194.4 45.4342L1208.45 22.3141L1194.55 -5.7529e-07L1166.17 2.07564e-08L1152.24 22.3141L1166.29 45.4342Z" fill="white"/>
<path d="M1212.26 20.5333L1240.36 20.5333L1253.05 0L1238.55 0L1225.05 7.48197e-07L1211.05 1.68622e-07L1199.05 -3.28157e-07L1212.26 20.5333Z" fill="white"/>
<path d="M1256.47 45.4342L1284.22 45.4342L1298.09 22.3118L1284.55 -1.18491e-08L1256.05 -1.09698e-06L1242.6 22.3118L1256.47 45.4342Z" fill="#7CCEC6"/>
<path d="M1300.76 20.5333L1328.86 20.5333L1341.55 0L1327.05 0L1313.55 7.48197e-07L1299.55 1.68622e-07L1287.55 -3.28157e-07L1300.76 20.5333Z" fill="white"/>
<path d="M1344.87 45.4342L1366.05 45.4342L1366.05 22.3118L1366.05 0L1344.87 -1.75055e-08L1330.82 22.3118L1344.87 45.4342Z" fill="#2C7BBD"/>
<path d="M308.455 71.0469L336.913 71.0469L351.143 47.2129L336.913 23.3791L308.455 23.3791L294.226 47.2129L308.455 71.0469Z" fill="white"/>
<path d="M397.92 71.0469L426.023 71.0469L440.074 47.2129L426.023 23.3791L397.92 23.3791L383.869 47.2129L397.92 71.0469Z" fill="white"/>
<path d="M488.276 71.0469L516.378 71.0469L530.43 47.2105L516.378 23.3791L488.276 23.3791L474.224 47.2105L488.276 71.0469Z" fill="#1A8CA9"/>
<path d="M578.809 71.0469L607.267 71.0469L621.496 47.2105L607.267 23.3791L578.809 23.3791L564.579 47.2105L578.809 71.0469Z" fill="white"/>
<path d="M669.164 71.0469L697.622 71.0469L711.852 47.2129L697.622 23.3791L669.164 23.3791L654.935 47.2129L669.164 71.0469Z" fill="white"/>
<path d="M758.629 71.0469L786.732 71.0469L800.783 47.2129L786.732 23.3791L758.629 23.3791L744.578 47.2129L758.629 71.0469Z" fill="white"/>
<path d="M850.585 71.0469L879.043 71.0469L893.272 47.2129L879.043 23.3791L850.585 23.3791L836.356 47.2129L850.585 71.0469Z" fill="white"/>
<path d="M940.05 71.0469L968.153 71.0469L982.204 47.2129L968.153 23.3791L940.05 23.3791L925.999 47.2129L940.05 71.0469Z" fill="white"/>
<path d="M1030.41 71.0469L1058.51 71.0469L1072.56 47.2105L1058.51 23.3791L1030.41 23.3791L1016.35 47.2105L1030.41 71.0469Z" fill="#7CCEC6"/>
<path d="M1120.94 71.0469L1149.4 71.0469L1163.63 47.2105L1149.4 23.3791L1120.94 23.3791L1106.71 47.2105L1120.94 71.0469Z" fill="white"/>
<path d="M1211.29 71.0469L1239.75 71.0469L1253.98 47.2129L1239.75 23.3791L1211.29 23.3791L1197.06 47.2129L1211.29 71.0469Z" fill="#1A8CA9"/>
<path d="M1300.76 71.0469L1328.86 71.0469L1342.91 47.2129L1328.86 23.3791L1300.76 23.3791L1286.71 47.2129L1300.76 71.0469Z" fill="white"/>
<path d="M39.5244 71.7583L67.9828 71.7583L82.2119 47.9219L67.9828 24.0906L39.5244 24.0906L25.2952 47.9219L39.5244 71.7583Z" fill="white"/>
<path d="M129.168 71.7583L157.626 71.7583L171.855 47.9244L157.626 24.0906L129.168 24.0906L114.939 47.9244L129.168 71.7583Z" fill="white"/>
<path d="M218.634 71.7583L246.737 71.7583L260.788 47.9244L246.737 24.0906L218.634 24.0906L204.583 47.9244L218.634 71.7583Z" fill="#7CCEC6"/>
<path d="M803.988 94.5248L831.732 94.5248L845.604 71.4048L831.732 48.28L803.988 48.28L790.111 71.4048L803.988 94.5248Z" fill="#7CCEC6"/>
<path d="M353.636 95.2362L381.381 95.2362L395.253 72.1162L381.381 48.9915L353.636 48.9915L339.759 72.1162L353.636 95.2362Z" fill="white"/>
<path d="M443.457 95.2362L471.557 95.2362L485.607 72.1162L471.557 48.9915L443.457 48.9915L429.402 72.1162L443.457 95.2362Z" fill="white"/>
<path d="M533.275 95.2362L561.734 95.2362L575.963 72.1138L561.734 48.9915L533.275 48.9915L519.046 72.1138L533.275 95.2362Z" fill="#7CCEC6"/>
<path d="M624.164 95.2362L652.267 95.2362L666.318 72.1138L652.267 48.9915L624.164 48.9915L610.113 72.1138L624.164 95.2362Z" fill="white"/>
<path d="M714.344 95.2362L742.089 95.2362L755.961 72.1162L742.089 48.9915L714.344 48.9915L700.467 72.1162L714.344 95.2362Z" fill="white"/>
<path d="M895.766 95.2362L923.511 95.2362L937.383 72.1162L923.511 48.9915L895.766 48.9915L881.889 72.1162L895.766 95.2362Z" fill="white"/>
<path d="M985.587 95.2362L1013.69 95.2362L1027.74 72.1162L1013.69 48.9915L985.587 48.9915L971.532 72.1162L985.587 95.2362Z" fill="#7CCEC6"/>
<path d="M1075.41 95.2362L1103.86 95.2362L1118.09 72.1138L1103.86 48.9915L1075.41 48.9915L1061.18 72.1138L1075.41 95.2362Z" fill="white"/>
<path d="M1166.29 95.2362L1194.4 95.2362L1208.45 72.1138L1194.4 48.9915L1166.29 48.9915L1152.24 72.1138L1166.29 95.2362Z" fill="white"/>
<path d="M1256.47 95.2362L1284.22 95.2362L1298.09 72.1162L1284.22 48.9915L1256.47 48.9915L1242.6 72.1162L1256.47 95.2362Z" fill="white"/>
<path d="M1344.87 95.2362L1366.05 95.2362L1366.05 72.1162L1366.05 48.9915L1344.87 48.9915L1330.82 72.1162L1344.87 95.2362Z" fill="white"/>
<path d="M0.0507791 95.9479L21.7386 95.9479L35.9678 72.8255L21.7386 49.7031L0.0507812 49.7031L0.0507802 72.5L0.0507791 95.9479Z" fill="#7CCEC6"/>
<path d="M84.1683 95.9479L112.271 95.9479L126.322 72.8255L112.271 49.7031L84.1683 49.7031L70.1171 72.8255L84.1683 95.9479Z" fill="white"/>
<path d="M174.349 95.9479L202.094 95.9479L215.966 72.8279L202.094 49.7031L174.349 49.7031L160.472 72.8279L174.349 95.9479Z" fill="white"/>
<path d="M263.459 95.9479L291.559 95.9479L305.609 72.8279L291.559 49.7031L263.459 49.7031L249.404 72.8279L263.459 95.9479Z" fill="white"/>
</svg>
