<svg width="1921" height="135" viewBox="0 0 1921 135" fill="none" xmlns="http://www.w3.org/2000/svg">
<path d="M181.684 28.861L221.184 28.861L239.02 0L218.639 0L199.664 1.05164e-06L179.986 2.3701e-07L163.119 -4.61246e-07L181.684 28.861Z" fill="white"/>
<path d="M55.1843 28.861L94.6843 28.861L112.52 0L92.1388 0L73.1636 1.05164e-06L53.4857 2.3701e-07L36.6189 -4.61246e-07L55.1843 28.861Z" fill="white"/>
<path d="M813.555 28.861L853.555 28.861L871.523 0L849.737 -4.29983e-07L817.409 1.11246e-06L796.326 2.40244e-07L813.555 28.861Z" fill="#2C7BBD"/>
<path d="M497.06 63.8612L536.056 63.8612L555.555 31.3611L536.998 -7.67194e-07L496.552 -1.31894e-08L477.554 31.3611L497.06 63.8612Z" fill="#5F2A8D"/>
<path d="M623.31 63.8612L662.806 63.8612L682.555 31.3611L663.5 -7.87795e-07L623.31 -3.37899e-08L603.554 31.3611L623.31 63.8612Z" fill="white"/>
<path d="M749.555 63.8612L789.555 63.8612L809.555 31.3644L790 0L749.555 -1.61351e-06L729.554 31.3644L749.555 63.8612Z" fill="white"/>
<path d="M877.305 63.8612L916.805 63.8612L936.555 31.3644L916.805 -2.00493e-08L877.305 -1.65432e-06L857.554 31.3644L877.305 63.8612Z" fill="white"/>
<path d="M1004.06 63.8612L1043.06 63.8612L1062.55 31.3611L1043.06 -8.06136e-07L1004.06 3.1648e-08L984.554 31.3611L1004.06 63.8612Z" fill="#7CCEC6"/>
<path d="M-0.000975752 65L30.0546 64.8612L50.0547 32.3643L29.7906 -8.37791e-07L-0.000972748 -8.37791e-07L-0.000974342 34.5L-0.000975752 65Z" fill="#5F2A8D"/>
<path d="M118.305 64.8612L157.805 64.8612L177.555 32.3643L157.495 -8.29335e-07L118.323 -2.02405e-09L98.5545 32.3643L118.305 64.8612Z" fill="#7CCEC6"/>
<path d="M245.06 64.8612L284.056 64.8612L303.555 32.361L284.124 4.30551e-09L244.64 -8.04316e-07L225.554 32.361L245.06 64.8612Z" fill="#2C7BBD"/>
<path d="M370.31 64.8612L409.806 64.8612L429.555 32.361L409.794 -8.16964e-07L370.226 -1.24972e-10L350.554 32.361L370.31 64.8612Z" fill="white"/>
<path d="M433.555 99.8612L473.555 99.8613L493.555 66.3611L473.555 32.8611L433.555 32.8611L413.554 66.3611L433.555 99.8612Z" fill="white"/>
<path d="M559.305 99.8612L598.805 99.8613L618.555 66.3611L598.805 32.8611L559.305 32.8611L539.554 66.3611L559.305 99.8612Z" fill="white"/>
<path d="M686.305 99.8612L725.805 99.8612L745.555 66.3577L725.805 32.8611L686.305 32.8611L666.554 66.3577L686.305 99.8612Z" fill="#1A8CA9"/>
<path d="M813.555 99.8612L853.555 99.8612L873.555 66.3577L853.555 32.8611L813.555 32.8611L793.554 66.3577L813.555 99.8612Z" fill="white"/>
<path d="M940.555 99.8612L980.555 99.8613L1000.55 66.3611L980.555 32.8611L940.555 32.8611L920.554 66.3611L940.555 99.8612Z" fill="white"/>
<path d="M1066.3 99.8612L1105.8 99.8613L1125.55 66.3611L1105.8 32.8611L1066.3 32.8611L1046.55 66.3611L1066.3 99.8612Z" fill="white"/>
<path d="M55.5546 100.861L95.5547 100.861L115.555 67.3577L95.5547 33.8611L55.5546 33.8611L35.5545 67.3577L55.5546 100.861Z" fill="white"/>
<path d="M181.555 100.861L221.555 100.861L241.555 67.3611L221.555 33.8611L181.555 33.8611L161.554 67.3611L181.555 100.861Z" fill="white"/>
<path d="M307.305 100.861L346.805 100.861L366.555 67.3611L346.805 33.8611L307.305 33.8611L287.554 67.3611L307.305 100.861Z" fill="#7CCEC6"/>
<path d="M497.06 133.861L536.056 133.861L555.555 101.364L536.056 68.8608L497.06 68.8608L477.554 101.364L497.06 133.861Z" fill="white"/>
<path d="M623.31 133.861L662.806 133.861L682.555 101.364L662.806 68.8608L623.31 68.8608L603.554 101.364L623.31 133.861Z" fill="white"/>
<path d="M749.555 133.861L789.555 133.861L809.555 101.361L789.555 68.8608L749.555 68.8608L729.554 101.361L749.555 133.861Z" fill="#7CCEC6"/>
<path d="M877.305 133.861L916.805 133.861L936.555 101.361L916.805 68.8608L877.305 68.8608L857.554 101.361L877.305 133.861Z" fill="white"/>
<path d="M1004.06 133.861L1043.06 133.861L1062.55 101.364L1043.06 68.8608L1004.06 68.8608L984.554 101.364L1004.06 133.861Z" fill="white"/>
<path d="M0.0709395 134.861L30.5546 134.861L50.5547 102.361L30.5546 69.8611L0.0709425 69.8611L0.070941 101.904L0.0709395 134.861Z" fill="#7CCEC6"/>
<path d="M118.305 134.861L157.805 134.861L177.555 102.361L157.805 69.8611L118.305 69.8611L98.5545 102.361L118.305 134.861Z" fill="white"/>
<path d="M245.06 134.861L284.056 134.861L303.555 102.364L284.056 69.8611L245.06 69.8611L225.554 102.364L245.06 134.861Z" fill="white"/>
<path d="M370.31 134.861L409.806 134.861L429.555 102.364L409.806 69.8611L370.31 69.8611L350.554 102.364L370.31 134.861Z" fill="white"/>
<path d="M1195.56 28.861L1235.56 28.861L1253.14 0L1232.05 -8.7282e-07L1215.19 -3.55373e-06L1199.73 4.69762e-07L1177.94 -4.32152e-07L1195.56 28.861Z" fill="#5F2A8D"/>
<path d="M1130.55 63.8608L1170.55 63.8608L1190.55 31.8574L1170.56 -1.66214e-10L1130.85 -8.2782e-07L1110.55 31.8574L1130.55 63.8608Z" fill="white"/>
<path d="M1828.31 28.861L1867.81 28.861L1885.64 0L1865.26 0L1846.28 1.05164e-06L1826.61 2.3701e-07L1809.74 -4.61246e-07L1828.31 28.861Z" fill="white"/>
<path d="M1703.91 28.861L1743.41 28.861L1761.25 0L1740.87 0L1721.89 1.05164e-06L1702.22 2.3701e-07L1685.35 -4.61246e-07L1703.91 28.861Z" fill="white"/>
<path d="M1576 28.861L1615.5 28.861L1633.34 0L1612.96 0L1593.98 1.05164e-06L1574.31 2.3701e-07L1557.44 -4.61246e-07L1576 28.861Z" fill="white"/>
<path d="M1448.1 28.861L1487.6 28.861L1505.43 0L1485.05 0L1466.08 1.05164e-06L1446.4 2.3701e-07L1429.53 -4.61246e-07L1448.1 28.861Z" fill="white"/>
<path d="M1321.6 28.861L1361.1 28.861L1378.93 0L1358.55 0L1339.58 1.05164e-06L1319.9 2.3701e-07L1303.03 -4.61246e-07L1321.6 28.861Z" fill="white"/>
<path d="M1067.19 28.861L1106.69 28.861L1124.53 0L1104.15 0L1085.17 1.05164e-06L1065.49 2.3701e-07L1048.63 -4.61246e-07L1067.19 28.861Z" fill="white"/>
<path d="M940.688 28.861L980.188 28.861L998.023 0L977.643 0L958.668 1.05164e-06L938.99 2.3701e-07L922.123 -4.61246e-07L940.688 28.861Z" fill="white"/>
<path d="M686.282 28.861L725.782 28.861L743.617 0L723.236 0L704.261 1.05164e-06L684.583 2.3701e-07L667.717 -4.61246e-07L686.282 28.861Z" fill="white"/>
<path d="M559.782 28.861L599.282 28.861L617.117 0L596.736 0L577.761 1.05164e-06L558.083 2.3701e-07L541.217 -4.61246e-07L559.782 28.861Z" fill="white"/>
<path d="M433.282 28.861L472.782 28.861L490.617 0L470.236 0L451.261 1.05164e-06L431.583 2.3701e-07L414.717 -4.61246e-07L433.282 28.861Z" fill="white"/>
<path d="M308.184 28.861L347.684 28.861L365.52 0L345.139 0L326.164 1.05164e-06L306.486 2.3701e-07L289.619 -4.61246e-07L308.184 28.861Z" fill="white"/>
<path d="M1259.06 63.8609L1298.06 63.8609L1317.55 31.3607L1298.82 -7.75764e-07L1258.05 -2.17594e-08L1239.55 31.3607L1259.06 63.8609Z" fill="white"/>
<path d="M1385.31 63.8609L1424.81 63.8609L1444.55 31.3607L1425.32 -7.96392e-07L1384.56 4.13912e-08L1365.55 31.3607L1385.31 63.8609Z" fill="#7CCEC6"/>
<path d="M1511.55 63.8609L1551.55 63.8609L1571.55 31.364L1552.52 -7.87982e-07L1510.75 -3.39769e-08L1491.55 31.364L1511.55 63.8609Z" fill="#2C7BBD"/>
<path d="M1639.3 63.8609L1678.8 63.8609L1698.55 31.364L1679.02 -8.08609e-07L1639.13 2.91743e-08L1619.55 31.364L1639.3 63.8609Z" fill="white"/>
<path d="M1766.06 63.8609L1805.06 63.8609L1824.55 31.3607L1805.52 -1.66547e-08L1765.46 -1.54187e-06L1746.55 31.3607L1766.06 63.8609Z" fill="#7CCEC6"/>
<path d="M1890.31 63.8609L1920.08 63.8609L1920.08 31.3607L1920.08 0L1890.31 -2.46052e-08L1870.56 31.3607L1890.31 63.8609Z" fill="#2C7BBD"/>
<path d="M1195.55 99.8612L1235.55 99.8613L1255.55 66.3611L1235.55 32.8611L1195.55 32.8611L1175.55 66.3611L1195.55 99.8612Z" fill="white"/>
<path d="M1321.3 99.8612L1360.8 99.8613L1380.55 66.3611L1360.8 32.8611L1321.3 32.8611L1301.55 66.3611L1321.3 99.8612Z" fill="white"/>
<path d="M1448.3 99.8612L1487.8 99.8612L1507.55 66.3577L1487.8 32.8611L1448.3 32.8611L1428.55 66.3577L1448.3 99.8612Z" fill="#7CCEC6"/>
<path d="M1575.55 99.8612L1615.55 99.8612L1635.55 66.3577L1615.55 32.8611L1575.55 32.8611L1555.55 66.3577L1575.55 99.8612Z" fill="white"/>
<path d="M1702.55 99.8612L1742.55 99.8613L1762.55 66.3611L1742.55 32.8611L1702.55 32.8611L1682.55 66.3611L1702.55 99.8612Z" fill="#1A8CA9"/>
<path d="M1828.3 99.8612L1867.8 99.8613L1887.55 66.3611L1867.8 32.8611L1828.3 32.8611L1808.55 66.3611L1828.3 99.8612Z" fill="white"/>
<path d="M1259.06 133.861L1298.06 133.861L1317.55 101.364L1298.06 68.8608L1259.06 68.8608L1239.55 101.364L1259.06 133.861Z" fill="white"/>
<path d="M1130.06 132.861L1169.06 132.861L1188.55 100.364L1169.06 67.8608L1130.06 67.8608L1110.55 100.364L1130.06 132.861Z" fill="#7CCEC6"/>
<path d="M1385.31 133.861L1424.81 133.861L1444.55 101.364L1424.81 68.8608L1385.31 68.8608L1365.55 101.364L1385.31 133.861Z" fill="#7CCEC6"/>
<path d="M1511.55 133.861L1551.55 133.861L1571.55 101.361L1551.55 68.8608L1511.55 68.8608L1491.55 101.361L1511.55 133.861Z" fill="white"/>
<path d="M1639.3 133.861L1678.8 133.861L1698.55 101.361L1678.8 68.8608L1639.3 68.8608L1619.55 101.361L1639.3 133.861Z" fill="white"/>
<path d="M1766.06 133.861L1805.06 133.861L1824.55 101.364L1805.06 68.8608L1766.06 68.8608L1746.55 101.364L1766.06 133.861Z" fill="white"/>
<path d="M1890.31 133.861L1920.08 133.861L1920.08 101.364L1920.08 68.8608L1890.31 68.8608L1870.56 101.364L1890.31 133.861Z" fill="white"/>
<path d="M181.684 28.861L221.184 28.861L239.02 0L218.639 0L199.664 1.05164e-06L179.986 2.3701e-07L163.119 -4.61246e-07L181.684 28.861Z" fill="white"/>
<path d="M55.1803 28.861L94.6804 28.861L112.516 0L92.1349 0L73.1597 1.05164e-06L53.4818 2.3701e-07L36.615 -4.61246e-07L55.1803 28.861Z" fill="white"/>
<path d="M813.555 28.861L853.555 28.861L871.523 0L849.737 -4.29983e-07L817.409 1.11246e-06L796.326 2.40244e-07L813.555 28.861Z" fill="#2C7BBD"/>
<path d="M497.06 63.8612L536.056 63.8612L555.555 31.3611L536.998 -7.67194e-07L496.552 -1.31894e-08L477.554 31.3611L497.06 63.8612Z" fill="#5F2A8D"/>
<path d="M623.31 63.8612L662.806 63.8612L682.555 31.3611L663.5 -7.87795e-07L623.31 -3.37899e-08L603.554 31.3611L623.31 63.8612Z" fill="white"/>
<path d="M749.555 63.8612L789.555 63.8612L809.555 31.3644L790 0L749.555 -1.61351e-06L729.554 31.3644L749.555 63.8612Z" fill="white"/>
<path d="M877.305 63.8612L916.805 63.8612L936.555 31.3644L916.805 -2.00493e-08L877.305 -1.65432e-06L857.554 31.3644L877.305 63.8612Z" fill="white"/>
<path d="M1004.06 63.8612L1043.06 63.8612L1062.55 31.3611L1043.06 -8.06136e-07L1004.06 3.1648e-08L984.554 31.3611L1004.06 63.8612Z" fill="#7CCEC6"/>
<path d="M118.305 64.8612L157.805 64.8612L177.555 32.3643L157.495 -8.29335e-07L118.323 -2.02405e-09L98.5545 32.3643L118.305 64.8612Z" fill="#7CCEC6"/>
<path d="M245.06 64.8612L284.056 64.8612L303.555 32.361L284.124 4.30551e-09L244.64 -8.04316e-07L225.554 32.361L245.06 64.8612Z" fill="#2C7BBD"/>
<path d="M370.31 64.8612L409.806 64.8612L429.555 32.361L409.794 -8.16964e-07L370.226 -1.24972e-10L350.554 32.361L370.31 64.8612Z" fill="white"/>
<path d="M433.555 99.8612L473.555 99.8613L493.555 66.3611L473.555 32.8611L433.555 32.8611L413.554 66.3611L433.555 99.8612Z" fill="white"/>
<path d="M559.305 99.8612L598.805 99.8613L618.555 66.3611L598.805 32.8611L559.305 32.8611L539.554 66.3611L559.305 99.8612Z" fill="white"/>
<path d="M686.305 99.8612L725.805 99.8612L745.555 66.3577L725.805 32.8611L686.305 32.8611L666.554 66.3577L686.305 99.8612Z" fill="#1A8CA9"/>
<path d="M813.555 99.8612L853.555 99.8612L873.555 66.3577L853.555 32.8611L813.555 32.8611L793.554 66.3577L813.555 99.8612Z" fill="white"/>
<path d="M940.555 99.8612L980.555 99.8613L1000.55 66.3611L980.555 32.8611L940.555 32.8611L920.554 66.3611L940.555 99.8612Z" fill="white"/>
<path d="M1066.3 99.8612L1105.8 99.8613L1125.55 66.3611L1105.8 32.8611L1066.3 32.8611L1046.55 66.3611L1066.3 99.8612Z" fill="white"/>
<path d="M55.5546 100.861L95.5547 100.861L115.555 67.3577L95.5547 33.8611L55.5546 33.8611L35.5545 67.3577L55.5546 100.861Z" fill="white"/>
<path d="M181.555 100.861L221.555 100.861L241.555 67.3611L221.555 33.8611L181.555 33.8611L161.554 67.3611L181.555 100.861Z" fill="white"/>
<path d="M307.305 100.861L346.805 100.861L366.555 67.3611L346.805 33.8611L307.305 33.8611L287.554 67.3611L307.305 100.861Z" fill="#7CCEC6"/>
<path d="M497.06 133.861L536.056 133.861L555.555 101.364L536.056 68.8608L497.06 68.8608L477.554 101.364L497.06 133.861Z" fill="white"/>
<path d="M623.31 133.861L662.806 133.861L682.555 101.364L662.806 68.8608L623.31 68.8608L603.554 101.364L623.31 133.861Z" fill="white"/>
<path d="M749.555 133.861L789.555 133.861L809.555 101.361L789.555 68.8608L749.555 68.8608L729.554 101.361L749.555 133.861Z" fill="#7CCEC6"/>
<path d="M877.305 133.861L916.805 133.861L936.555 101.361L916.805 68.8608L877.305 68.8608L857.554 101.361L877.305 133.861Z" fill="white"/>
<path d="M1004.06 133.861L1043.06 133.861L1062.55 101.364L1043.06 68.8608L1004.06 68.8608L984.554 101.364L1004.06 133.861Z" fill="white"/>
<path d="M0.0709395 134.861L30.5546 134.861L50.5547 102.361L30.5546 69.8611L0.0709425 69.8611L0.070941 101.904L0.0709395 134.861Z" fill="#7CCEC6"/>
<path d="M118.305 134.861L157.805 134.861L177.555 102.361L157.805 69.8611L118.305 69.8611L98.5545 102.361L118.305 134.861Z" fill="white"/>
<path d="M245.06 134.861L284.056 134.861L303.555 102.364L284.056 69.8611L245.06 69.8611L225.554 102.364L245.06 134.861Z" fill="white"/>
<path d="M370.31 134.861L409.806 134.861L429.555 102.364L409.806 69.8611L370.31 69.8611L350.554 102.364L370.31 134.861Z" fill="white"/>
<path d="M1195.56 28.861L1235.56 28.861L1253.14 0L1232.05 -8.7282e-07L1215.19 -3.55373e-06L1199.73 4.69762e-07L1177.94 -4.32152e-07L1195.56 28.861Z" fill="#5F2A8D"/>
<path d="M1130.55 63.8608L1170.55 63.8608L1190.55 31.8574L1170.56 -1.66214e-10L1130.85 -8.2782e-07L1110.55 31.8574L1130.55 63.8608Z" fill="white"/>
<path d="M1828.31 28.861L1867.81 28.861L1885.64 0L1865.26 0L1846.28 1.05164e-06L1826.61 2.3701e-07L1809.74 -4.61246e-07L1828.31 28.861Z" fill="white"/>
<path d="M1703.91 28.861L1743.41 28.861L1761.25 0L1740.87 0L1721.89 1.05164e-06L1702.22 2.3701e-07L1685.35 -4.61246e-07L1703.91 28.861Z" fill="white"/>
<path d="M1576 28.861L1615.5 28.861L1633.34 0L1612.96 0L1593.98 1.05164e-06L1574.31 2.3701e-07L1557.44 -4.61246e-07L1576 28.861Z" fill="white"/>
<path d="M1448.1 28.861L1487.6 28.861L1505.43 0L1485.05 0L1466.08 1.05164e-06L1446.4 2.3701e-07L1429.53 -4.61246e-07L1448.1 28.861Z" fill="white"/>
<path d="M1321.6 28.861L1361.1 28.861L1378.93 0L1358.55 0L1339.58 1.05164e-06L1319.9 2.3701e-07L1303.03 -4.61246e-07L1321.6 28.861Z" fill="white"/>
<path d="M1067.19 28.861L1106.69 28.861L1124.53 0L1104.15 0L1085.17 1.05164e-06L1065.49 2.3701e-07L1048.63 -4.61246e-07L1067.19 28.861Z" fill="white"/>
<path d="M940.688 28.861L980.188 28.861L998.023 0L977.643 0L958.668 1.05164e-06L938.99 2.3701e-07L922.123 -4.61246e-07L940.688 28.861Z" fill="white"/>
<path d="M686.282 28.861L725.782 28.861L743.617 0L723.236 0L704.261 1.05164e-06L684.583 2.3701e-07L667.717 -4.61246e-07L686.282 28.861Z" fill="white"/>
<path d="M559.782 28.861L599.282 28.861L617.117 0L596.736 0L577.761 1.05164e-06L558.083 2.3701e-07L541.217 -4.61246e-07L559.782 28.861Z" fill="white"/>
<path d="M433.278 28.861L472.778 28.861L490.613 0L470.233 0L451.257 1.05164e-06L431.579 2.3701e-07L414.713 -4.61246e-07L433.278 28.861Z" fill="white"/>
<path d="M308.184 28.861L347.684 28.861L365.52 0L345.139 0L326.164 1.05164e-06L306.486 2.3701e-07L289.619 -4.61246e-07L308.184 28.861Z" fill="white"/>
<path d="M1259.06 63.8609L1298.06 63.8609L1317.55 31.3607L1298.82 -7.75764e-07L1258.05 -2.17594e-08L1239.55 31.3607L1259.06 63.8609Z" fill="white"/>
<path d="M1385.31 63.8609L1424.81 63.8609L1444.55 31.3607L1425.32 -7.96392e-07L1384.56 4.13912e-08L1365.55 31.3607L1385.31 63.8609Z" fill="#7CCEC6"/>
<path d="M1511.55 63.8609L1551.55 63.8609L1571.55 31.364L1552.52 -7.87982e-07L1510.75 -3.39769e-08L1491.55 31.364L1511.55 63.8609Z" fill="#2C7BBD"/>
<path d="M1639.3 63.8609L1678.8 63.8609L1698.55 31.364L1679.02 -8.08609e-07L1639.13 2.91743e-08L1619.55 31.364L1639.3 63.8609Z" fill="white"/>
<path d="M1766.06 63.8609L1805.06 63.8609L1824.55 31.3607L1805.52 -1.66547e-08L1765.46 -1.54187e-06L1746.55 31.3607L1766.06 63.8609Z" fill="#7CCEC6"/>
<path d="M1890.31 63.8609L1920.08 63.8609L1920.08 31.3607L1920.08 0L1890.31 -2.46052e-08L1870.56 31.3607L1890.31 63.8609Z" fill="#2C7BBD"/>
<path d="M1195.55 99.8612L1235.55 99.8613L1255.55 66.3611L1235.55 32.8611L1195.55 32.8611L1175.55 66.3611L1195.55 99.8612Z" fill="white"/>
<path d="M1321.3 99.8612L1360.8 99.8613L1380.55 66.3611L1360.8 32.8611L1321.3 32.8611L1301.55 66.3611L1321.3 99.8612Z" fill="white"/>
<path d="M1448.3 99.8612L1487.8 99.8612L1507.55 66.3577L1487.8 32.8611L1448.3 32.8611L1428.55 66.3577L1448.3 99.8612Z" fill="#7CCEC6"/>
<path d="M1575.55 99.8612L1615.55 99.8612L1635.55 66.3577L1615.55 32.8611L1575.55 32.8611L1555.55 66.3577L1575.55 99.8612Z" fill="white"/>
<path d="M1702.55 99.8612L1742.55 99.8613L1762.55 66.3611L1742.55 32.8611L1702.55 32.8611L1682.55 66.3611L1702.55 99.8612Z" fill="#1A8CA9"/>
<path d="M1828.3 99.8612L1867.8 99.8613L1887.55 66.3611L1867.8 32.8611L1828.3 32.8611L1808.55 66.3611L1828.3 99.8612Z" fill="white"/>
<path d="M1259.06 133.861L1298.06 133.861L1317.55 101.364L1298.06 68.8608L1259.06 68.8608L1239.55 101.364L1259.06 133.861Z" fill="white"/>
<path d="M1130.06 132.861L1169.06 132.861L1188.55 100.364L1169.06 67.8608L1130.06 67.8608L1110.55 100.364L1130.06 132.861Z" fill="#7CCEC6"/>
<path d="M1385.31 133.861L1424.81 133.861L1444.55 101.364L1424.81 68.8608L1385.31 68.8608L1365.55 101.364L1385.31 133.861Z" fill="#7CCEC6"/>
<path d="M1511.55 133.861L1551.55 133.861L1571.55 101.361L1551.55 68.8608L1511.55 68.8608L1491.55 101.361L1511.55 133.861Z" fill="white"/>
<path d="M1639.3 133.861L1678.8 133.861L1698.55 101.361L1678.8 68.8608L1639.3 68.8608L1619.55 101.361L1639.3 133.861Z" fill="white"/>
<path d="M1766.06 133.861L1805.06 133.861L1824.55 101.364L1805.06 68.8608L1766.06 68.8608L1746.55 101.364L1766.06 133.861Z" fill="white"/>
<path d="M1890.31 133.861L1920.08 133.861L1920.08 101.364L1920.08 68.8608L1890.31 68.8608L1870.56 101.364L1890.31 133.861Z" fill="white"/>
</svg>
