<svg width="1920" height="171" viewBox="0 0 1920 171" fill="none" xmlns="http://www.w3.org/2000/svg">
<path d="M493.672 65.0002L533.672 65.0002L553.672 32.9967L533.672 0.999999L493.672 0.999998L473.672 32.9967L493.672 65.0002Z" fill="white"/>
<path d="M619.422 65.0002L658.922 65.0002L678.672 32.9967L658.922 0.999999L619.422 0.999998L599.672 32.9967L619.422 65.0002Z" fill="white"/>
<path d="M746.422 65.0002L785.922 65.0002L805.672 33L785.922 0.999999L746.422 0.999998L726.672 33L746.422 65.0002Z" fill="white"/>
<path d="M873.672 65.0002L913.672 65.0002L933.672 33L913.672 0.999999L873.672 0.999998L853.672 33L873.672 65.0002Z" fill="white"/>
<path d="M1000.67 65.0002L1040.67 65.0002L1060.67 32.9967L1040.67 0.999999L1000.67 0.999998L980.672 32.9967L1000.67 65.0002Z" fill="white"/>
<path d="M1126.42 65.0002L1165.92 65.0002L1185.67 32.9967L1165.92 0.999999L1126.42 0.999998L1106.67 32.9967L1126.42 65.0002Z" fill="white"/>
<path d="M115.672 66.0002L155.672 66.0002L175.672 34L155.672 2L115.672 2L95.6717 34L115.672 66.0002Z" fill="white"/>
<path d="M241.672 66.0002L281.672 66.0002L301.672 33.9967L281.672 2L241.672 2L221.672 33.9967L241.672 66.0002Z" fill="white"/>
<path d="M367.422 66.0002L406.922 66.0002L426.672 33.9967L406.922 2L367.422 2L347.672 33.9967L367.422 66.0002Z" fill="white"/>
<path d="M557.177 100L596.173 100L615.672 67.5L596.173 35L557.177 35L537.672 67.5L557.177 100Z" fill="white"/>
<path d="M683.427 100L722.924 100L742.672 67.5L722.924 35L683.427 35L663.672 67.5L683.427 100Z" fill="white"/>
<path d="M809.672 100L849.672 100L869.672 67.5033L849.672 35L809.672 35L789.672 67.5033L809.672 100Z" fill="white"/>
<path d="M937.422 100L976.922 100L996.672 67.5033L976.922 35L937.422 35L917.672 67.5033L937.422 100Z" fill="white"/>
<path d="M1064.18 100L1103.17 100L1122.67 67.5L1103.17 35L1064.18 35L1044.67 67.5L1064.18 100Z" fill="white"/>
<path d="M50.6718 101L90.6718 101L110.672 68.5033L90.6718 36L50.6718 36L30.6717 68.5033L50.6718 101Z" fill="white"/>
<path d="M178.422 101L217.922 101L237.672 68.5033L217.922 36L178.422 36L158.672 68.5033L178.422 101Z" fill="white"/>
<path d="M305.177 101L344.173 101L363.672 68.5L344.173 36L305.177 36L285.672 68.5L305.177 101Z" fill="white"/>
<path d="M430.427 101L469.924 101L489.672 68.5L469.924 36L430.427 36L410.672 68.5L430.427 101Z" fill="white"/>
<path d="M493.672 136L533.672 136L553.672 102.5L533.672 68.9998L493.672 68.9998L473.672 102.5L493.672 136Z" fill="white"/>
<path d="M619.422 136L658.922 136L678.672 102.5L658.922 68.9998L619.422 68.9998L599.672 102.5L619.422 136Z" fill="white"/>
<path d="M746.422 136L785.922 136L805.672 102.496L785.922 68.9998L746.422 68.9998L726.672 102.496L746.422 136Z" fill="white"/>
<path d="M873.672 136L913.672 136L933.672 102.496L913.672 68.9998L873.672 68.9998L853.672 102.496L873.672 136Z" fill="white"/>
<path d="M1000.67 136L1040.67 136L1060.67 102.5L1040.67 68.9998L1000.67 68.9998L980.672 102.5L1000.67 136Z" fill="white"/>
<path d="M1126.42 136L1165.92 136L1185.67 102.5L1165.92 68.9998L1126.42 68.9998L1106.67 102.5L1126.42 136Z" fill="white"/>
<path d="M115.672 137L155.672 137L175.672 103.497L155.672 70L115.672 70L95.6717 103.497L115.672 137Z" fill="white"/>
<path d="M241.672 137L281.672 137L301.672 103.5L281.672 70L241.672 70L221.672 103.5L241.672 137Z" fill="white"/>
<path d="M367.422 137L406.922 137L426.672 103.5L406.922 70L367.422 70L347.672 103.5L367.422 137Z" fill="white"/>
<path d="M557.177 170L596.173 170L615.672 137.503L596.173 105L557.177 105L537.672 137.503L557.177 170Z" fill="white"/>
<path d="M683.427 170L722.924 170L742.672 137.503L722.924 105L683.427 105L663.672 137.503L683.427 170Z" fill="white"/>
<path d="M809.672 170L849.672 170L869.672 137.5L849.672 105L809.672 105L789.672 137.5L809.672 170Z" fill="white"/>
<path d="M937.422 170L976.922 170L996.672 137.5L976.922 105L937.422 105L917.672 137.5L937.422 170Z" fill="white"/>
<path d="M1064.18 170L1103.17 170L1122.67 137.503L1103.17 105L1064.18 105L1044.67 137.503L1064.18 170Z" fill="white"/>
<path d="M50.6718 171L90.6718 171L110.672 138.5L90.6718 106L50.6718 106L30.6717 138.5L50.6718 171Z" fill="white"/>
<path d="M178.422 171L217.922 171L237.672 138.5L217.922 106L178.422 106L158.672 138.5L178.422 171Z" fill="white"/>
<path d="M305.177 171L344.173 171L363.672 138.503L344.173 106L305.177 106L285.672 138.503L305.177 171Z" fill="white"/>
<path d="M430.427 171L469.924 171L489.672 138.503L469.924 106L430.427 106L410.672 138.503L430.427 171Z" fill="white"/>
<path d="M1255.67 65.0002L1295.67 65.0002L1315.67 32.4967L1295.67 -8.27967e-07L1255.67 -2.4839e-06L1235.67 32.4967L1255.67 65.0002Z" fill="white"/>
<path d="M1190.67 100L1230.67 100L1250.67 67.9967L1230.67 36L1190.67 36L1170.67 67.9967L1190.67 100Z" fill="white"/>
<path d="M1381.42 65.0002L1420.92 65.0002L1440.67 32.4967L1420.92 -8.17617e-07L1381.42 -2.45285e-06L1361.67 32.4967L1381.42 65.0002Z" fill="white"/>
<path d="M1762.67 65.0002L1802.67 65.0002L1822.67 32.4967L1802.67 -8.27967e-07L1762.67 -2.4839e-06L1742.67 32.4967L1762.67 65.0002Z" fill="white"/>
<path d="M1445.43 100L1484.92 100L1504.67 67.5L1484.92 35L1445.43 35L1425.67 67.5L1445.43 100Z" fill="white"/>
<path d="M1571.67 100L1611.67 100L1631.67 67.5033L1611.67 35L1571.67 35L1551.67 67.5033L1571.67 100Z" fill="white"/>
<path d="M1699.42 100L1738.92 100L1758.67 67.5033L1738.92 35L1699.42 35L1679.67 67.5033L1699.42 100Z" fill="white"/>
<path d="M1825.92 100L1864.42 100L1883.67 67.5L1864.42 35L1825.92 35L1806.67 67.5L1825.92 100Z" fill="white"/>
<path d="M1255.67 136L1295.67 136L1315.67 102L1295.67 68L1255.67 68L1235.67 102L1255.67 136Z" fill="white"/>
<path d="M1381.42 136L1420.92 136L1440.67 102L1420.92 68L1381.42 68L1361.67 102L1381.42 136Z" fill="white"/>
<path d="M1507.67 136L1547.67 136L1567.67 101.997L1547.67 68L1507.67 68L1487.67 101.997L1507.67 136Z" fill="white"/>
<path d="M1635.67 136L1675.67 136L1695.67 101.997L1675.67 68L1635.67 68L1615.67 101.997L1635.67 136Z" fill="white"/>
<path d="M1762.67 136L1802.67 136L1822.67 102L1802.67 68L1762.67 68L1742.67 102L1762.67 136Z" fill="white"/>
<path d="M1318.93 169L1357.42 169L1376.67 136.503L1357.42 104L1318.93 104L1299.67 136.503L1318.93 169Z" fill="white"/>
<path d="M1190.93 169L1229.42 169L1248.67 136.503L1229.42 104L1190.93 104L1171.67 136.503L1190.93 169Z" fill="white"/>
<path d="M493.672 65.0002L533.672 65.0002L553.672 32.9967L533.672 0.999999L493.672 0.999998L473.672 32.9967L493.672 65.0002Z" fill="white"/>
<path d="M619.422 65.0002L658.922 65.0002L678.672 32.9967L658.922 0.999999L619.422 0.999998L599.672 32.9967L619.422 65.0002Z" fill="white"/>
<path d="M746.422 65.0002L785.922 65.0002L805.672 33L785.922 0.999999L746.422 0.999998L726.672 33L746.422 65.0002Z" fill="white"/>
<path d="M873.672 65.0002L913.672 65.0002L933.672 33L913.672 0.999999L873.672 0.999998L853.672 33L873.672 65.0002Z" fill="#7CCEC6"/>
<path d="M1000.67 65.0002L1040.67 65.0002L1060.67 32.9967L1040.67 0.999999L1000.67 0.999998L980.672 32.9967L1000.67 65.0002Z" fill="white"/>
<path d="M1126.42 65.0002L1165.92 65.0002L1185.67 32.9967L1165.92 0.999999L1126.42 0.999998L1106.67 32.9967L1126.42 65.0002Z" fill="white"/>
<path d="M-9.02588e-05 66.0002L26.9218 66.0002L46.6719 34L26.9218 2L-8.73011e-05 2L-8.87799e-05 34L-9.02588e-05 66.0002Z" fill="#5F2A8D"/>
<path d="M115.672 66.0002L155.672 66.0002L175.672 34L155.672 2L115.672 2L95.6717 34L115.672 66.0002Z" fill="white"/>
<path d="M241.672 66.0002L281.672 66.0002L301.672 33.9967L281.672 2L241.672 2L221.672 33.9967L241.672 66.0002Z" fill="white"/>
<path d="M367.422 66.0002L406.922 66.0002L426.672 33.9967L406.922 2L367.422 2L347.672 33.9967L367.422 66.0002Z" fill="white"/>
<path d="M557.177 100L596.173 100L615.672 67.5L596.173 35L557.177 35L537.672 67.5L557.177 100Z" fill="white"/>
<path d="M683.427 100L722.924 100L742.672 67.5L722.924 35L683.427 35L663.672 67.5L683.427 100Z" fill="#7CCEC6"/>
<path d="M809.672 100L849.672 100L869.672 67.5033L849.672 35L809.672 35L789.672 67.5033L809.672 100Z" fill="#7CCEC6"/>
<path d="M937.422 100L976.922 100L996.672 67.5033L976.922 35L937.422 35L917.672 67.5033L937.422 100Z" fill="white"/>
<path d="M1064.18 100L1103.17 100L1122.67 67.5L1103.17 35L1064.18 35L1044.67 67.5L1064.18 100Z" fill="white"/>
<path d="M50.6718 101L90.6718 101L110.672 68.5033L90.6718 36L50.6718 36L30.6717 68.5033L50.6718 101Z" fill="#2C7BBD"/>
<path d="M178.422 101L217.922 101L237.672 68.5033L217.922 36L178.422 36L158.672 68.5033L178.422 101Z" fill="#1A8CA9"/>
<path d="M305.177 101L344.173 101L363.672 68.5L344.173 36L305.177 36L285.672 68.5L305.177 101Z" fill="white"/>
<path d="M430.427 101L469.924 101L489.672 68.5L469.924 36L430.427 36L410.672 68.5L430.427 101Z" fill="white"/>
<path d="M493.672 136L533.672 136L553.672 102.5L533.672 68.9998L493.672 68.9998L473.672 102.5L493.672 136Z" fill="white"/>
<path d="M619.422 136L658.922 136L678.672 102.5L658.922 68.9998L619.422 68.9998L599.672 102.5L619.422 136Z" fill="white"/>
<path d="M746.422 136L785.922 136L805.672 102.496L785.922 68.9998L746.422 68.9998L726.672 102.496L746.422 136Z" fill="white"/>
<path d="M873.672 136L913.672 136L933.672 102.496L913.672 68.9998L873.672 68.9998L853.672 102.496L873.672 136Z" fill="white"/>
<path d="M1000.67 136L1040.67 136L1060.67 102.5L1040.67 68.9998L1000.67 68.9998L980.672 102.5L1000.67 136Z" fill="#5F2A8D"/>
<path d="M1125.93 135.873L1165.43 135.873L1185.18 102.373L1165.43 68.8728L1125.93 68.8728L1106.18 102.373L1125.93 135.873Z" fill="white"/>
<path d="M-9.97176e-05 137L26.9218 137L46.6719 103.497L26.9218 70L-9.66212e-05 70L-9.81693e-05 103.497L-9.97176e-05 137Z" fill="#7CCEC6"/>
<path d="M115.672 137L155.672 137L175.672 103.497L155.672 70L115.672 70L95.6717 103.497L115.672 137Z" fill="white"/>
<path d="M241.672 137L281.672 137L301.672 103.5L281.672 70L241.672 70L221.672 103.5L241.672 137Z" fill="#5F2A8D"/>
<path d="M367.422 137L406.922 137L426.672 103.5L406.922 70L367.422 70L347.672 103.5L367.422 137Z" fill="white"/>
<path d="M557.177 170L596.173 170L615.672 137.503L596.173 105L557.177 105L537.672 137.503L557.177 170Z" fill="#2C7BBD"/>
<path d="M683.427 170L722.924 170L742.672 137.503L722.924 105L683.427 105L663.672 137.503L683.427 170Z" fill="white"/>
<path d="M809.672 170L849.672 170L869.672 137.5L849.672 105L809.672 105L789.672 137.5L809.672 170Z" fill="#7CCEC6"/>
<path d="M937.422 170L976.922 170L996.672 137.5L976.922 105L937.422 105L917.672 137.5L937.422 170Z" fill="white"/>
<path d="M1064.18 170L1103.17 170L1122.67 137.503L1103.17 105L1064.18 105L1044.67 137.503L1064.18 170Z" fill="#2C7BBD"/>
<path d="M50.6718 171L90.6718 171L110.672 138.5L90.6718 106L50.6718 106L30.6717 138.5L50.6718 171Z" fill="white"/>
<path d="M178.422 171L217.922 171L237.672 138.5L217.922 106L178.422 106L158.672 138.5L178.422 171Z" fill="white"/>
<path d="M305.177 171L344.173 171L363.672 138.503L344.173 106L305.177 106L285.672 138.503L305.177 171Z" fill="white"/>
<path d="M430.427 171L469.924 171L489.672 138.503L469.924 106L430.427 106L410.672 138.503L430.427 171Z" fill="#7CCEC6"/>
<path d="M1255.67 65.0002L1295.67 65.0002L1315.67 32.9967L1295.67 0.999999L1255.67 0.999998L1235.67 32.9967L1255.67 65.0002Z" fill="white"/>
<path d="M1190.67 100L1230.67 100L1250.67 67.9967L1230.67 36L1190.67 36L1170.67 67.9967L1190.67 100Z" fill="#5F2A8D"/>
<path d="M1381.42 65.0002L1420.92 65.0002L1440.67 32.9967L1420.92 0.999999L1381.42 0.999998L1361.67 32.9967L1381.42 65.0002Z" fill="white"/>
<path d="M1508.42 65.0002L1547.92 65.0002L1567.67 33L1547.92 0.999999L1508.42 0.999998L1488.67 33L1508.42 65.0002Z" fill="#2C7BBD"/>
<path d="M1635.67 65.0002L1675.67 65.0002L1695.67 33L1675.67 0.999999L1635.67 0.999998L1615.67 33L1635.67 65.0002Z" fill="#7CCEC6"/>
<path d="M1762.67 65.0002L1802.67 65.0002L1822.67 32.9967L1802.67 0.999999L1762.67 0.999998L1742.67 32.9967L1762.67 65.0002Z" fill="white"/>
<path d="M1888.42 65.0002L1920.01 65.0002L1920.01 32.9967L1920.01 1L1888.42 1L1868.67 32.9967L1888.42 65.0002Z" fill="white"/>
<path d="M1319.17 99.9999L1358.17 99.9999L1377.67 67.4998L1358.17 34.9998L1319.17 34.9998L1299.67 67.4998L1319.17 99.9999Z" fill="#1A8CA9"/>
<path d="M1445.43 100L1484.92 100L1504.67 67.5L1484.92 35L1445.43 35L1425.67 67.5L1445.43 100Z" fill="white"/>
<path d="M1571.67 100L1611.67 100L1631.67 67.5033L1611.67 35L1571.67 35L1551.67 67.5033L1571.67 100Z" fill="white"/>
<path d="M1699.42 100L1738.92 100L1758.67 67.5033L1738.92 35L1699.42 35L1679.67 67.5033L1699.42 100Z" fill="#5F2A8D"/>
<path d="M1826.18 100L1865.17 100L1884.67 67.5L1865.17 35L1826.18 35L1806.67 67.5L1826.18 100Z" fill="white"/>
<path d="M1255.67 136L1295.67 136L1315.67 102.5L1295.67 68.9998L1255.67 68.9998L1235.67 102.5L1255.67 136Z" fill="white"/>
<path d="M1381.42 136L1420.92 136L1440.67 102.5L1420.92 68.9998L1381.42 68.9998L1361.67 102.5L1381.42 136Z" fill="white"/>
<path d="M1508.42 136L1547.92 136L1567.67 102.496L1547.92 68.9998L1508.42 68.9998L1488.67 102.496L1508.42 136Z" fill="white"/>
<path d="M1635.67 136L1675.67 136L1695.67 102.496L1675.67 68.9998L1635.67 68.9998L1615.67 102.496L1635.67 136Z" fill="white"/>
<path d="M1762.67 136L1802.67 136L1822.67 102.5L1802.67 68.9998L1762.67 68.9998L1742.67 102.5L1762.67 136Z" fill="white"/>
<path d="M1888.42 136L1920.01 136L1920.01 105.648L1920.01 68.9998L1888.42 68.9998L1868.67 102.5L1888.42 136Z" fill="#7CCEC6"/>
<path d="M1319.17 170L1358.17 170L1377.67 137.503L1358.17 105L1319.17 105L1299.67 137.503L1319.17 170Z" fill="white"/>
<path d="M1190.18 169L1229.17 169L1248.67 136.503L1229.17 104L1190.18 104L1170.67 136.503L1190.18 169Z" fill="white"/>
<path d="M1444.43 170L1483.92 170L1503.67 137.503L1483.92 105L1444.43 105L1424.67 137.503L1444.43 170Z" fill="#5F2A8D"/>
<path d="M1571.67 170L1611.67 170L1631.67 137.5L1611.67 105L1571.67 105L1551.67 137.5L1571.67 170Z" fill="white"/>
<path d="M1699.42 169L1738.92 169L1758.67 136.5L1738.92 104L1699.42 104L1679.67 136.5L1699.42 169Z" fill="#7CCEC6"/>
<path d="M1826.18 169L1865.17 169L1884.67 136.503L1865.17 104L1826.18 104L1806.67 136.503L1826.18 169Z" fill="#2C7BBD"/>
</svg>
