<svg width="411" height="393" viewBox="0 0 411 393" fill="none" xmlns="http://www.w3.org/2000/svg">
<g clip-path="url(#clip0_234_2199)">
<rect width="411.001" height="393.001" fill="white"/>
<path d="M21.5001 -41L52.2441 -23.25V12.2501L21.5001 30.0002L-9.24389 12.2501V-23.25L21.5001 -41Z" fill="#7CCEC6"/>
<path d="M223.5 -42L254.244 -24.25V11.2501L223.5 29.0002L192.756 11.2501V-24.25L223.5 -42Z" fill="#1A8CA9"/>
<path d="M291.5 -41L322.244 -23.25V12.2501L291.5 30.0002L260.756 12.2501V-23.25L291.5 -41Z" fill="#4855A2"/>
<path d="M324.5 17L355.244 34.75V70.2501L324.5 88.0002L293.756 70.2501V34.75L324.5 17Z" fill="#2C7BBD"/>
<path d="M358.5 -41L389.244 -23.25V12.2501L358.5 30.0002L327.756 12.2501V-23.25L358.5 -41Z" fill="#382661"/>
<path d="M426.5 -42L457.244 -24.25V11.2501L426.5 29.0002L395.756 11.2501V-24.25L426.5 -42Z" fill="#382661"/>
<path d="M-11.4999 134L19.2441 151.75V187.25L-11.4999 205L-42.2439 187.25V151.75L-11.4999 134Z" fill="#4855A2"/>
<path d="M21.5001 192L52.2441 209.75V245.25L21.5001 263L-9.24389 245.25V209.75L21.5001 192Z" fill="#4855A2"/>
<path d="M55.5001 134L86.2441 151.75V187.25L55.5001 205L24.7561 187.25V151.75L55.5001 134Z" fill="#5F2A8D"/>
<path d="M-11.4999 17L19.2441 34.75V70.2501L-11.4999 88.0002L-42.2439 70.2501V34.75L-11.4999 17Z" fill="#2C7BBD"/>
<path d="M22.5001 75.0001L53.2441 92.7502V128.25L22.5001 146L-8.24389 128.25V92.7502L22.5001 75.0001Z" fill="#2C7BBD"/>
<path d="M55.5001 17L86.2441 34.75V70.2501L55.5001 88.0002L24.7561 70.2501V34.75L55.5001 17Z" fill="#5F2A8D"/>
<path d="M89.5001 75.0001L120.244 92.7502V128.25L89.5001 146L58.7561 128.25V92.7502L89.5001 75.0001Z" fill="#4855A2"/>
<path d="M122.5 134L153.244 151.75V187.25L122.5 205L91.7561 187.25V151.75L122.5 134Z" fill="#382661"/>
<path d="M156.5 75.0001L187.244 92.7502V128.25L156.5 146L125.756 128.25V92.7502L156.5 75.0001Z" fill="#2C7BBD"/>
<path d="M89.5001 -42L120.244 -24.25V11.2501L89.5001 29.0002L58.7561 11.2501V-24.25L89.5001 -42Z" fill="#7CCEC6"/>
<path d="M123.5 17L154.244 34.75V70.2501L123.5 88.0002L92.7561 70.2501V34.75L123.5 17Z" fill="#1A8CA9"/>
<path d="M156.5 -42L187.244 -24.25V11.2501L156.5 29.0002L125.756 11.2501V-24.25L156.5 -42Z" fill="#5F2A8D"/>
<path d="M190.5 134L221.244 151.75V187.25L190.5 205L159.756 187.25V151.75L190.5 134Z" fill="#2C7BBD"/>
<path d="M223.5 192L254.244 209.75V245.25L223.5 263L192.756 245.25V209.75L223.5 192Z" fill="#2C7BBD"/>
<path d="M257.5 134L288.244 151.75V187.25L257.5 205L226.756 187.25V151.75L257.5 134Z" fill="#5F2A8D"/>
<path d="M190.5 17L221.244 34.75V70.2501L190.5 88.0002L159.756 70.2501V34.75L190.5 17Z" fill="#5F2A8D"/>
<path d="M224.5 75.0001L255.244 92.7502V128.25L224.5 146L193.756 128.25V92.7502L224.5 75.0001Z" fill="#1A8CA9"/>
<path d="M257.5 17L288.244 34.75V70.2501L257.5 88.0002L226.756 70.2501V34.75L257.5 17Z" fill="#382661"/>
<path d="M291.5 192L322.244 209.75V245.25L291.5 263L260.756 245.25V209.75L291.5 192Z" fill="#382661"/>
<path d="M324.5 251L355.244 268.75V304.25L324.5 322L293.756 304.25V268.75L324.5 251Z" fill="#5F2A8D"/>
<path d="M358.5 192L389.244 209.75V245.25L358.5 263L327.756 245.25V209.75L358.5 192Z" fill="#5F2A8D"/>
<path d="M291.5 75.0001L322.244 92.7502V128.25L291.5 146L260.756 128.25V92.7502L291.5 75.0001Z" fill="#4855A2"/>
<path d="M325.5 134L356.244 151.75V187.25L325.5 205L294.756 187.25V151.75L325.5 134Z" fill="#2C7BBD"/>
<path d="M358.5 75.0001L389.244 92.7502V128.25L358.5 146L327.756 128.25V92.7502L358.5 75.0001Z" fill="#5F2A8D"/>
<path d="M392.5 134L423.244 151.75V187.25L392.5 205L361.756 187.25V151.75L392.5 134Z" fill="#2C7BBD"/>
<path d="M426.5 192L457.244 209.75V245.25L426.5 263L395.756 245.25V209.75L426.5 192Z" fill="#4855A2"/>
<path d="M392.5 17L423.244 34.75V70.2501L392.5 88.0002L361.756 70.2501V34.75L392.5 17Z" fill="#382661"/>
<path d="M426.5 75.0001L457.244 92.7502V128.25L426.5 146L395.756 128.25V92.7502L426.5 75.0001Z" fill="#7CCEC6"/>
<path d="M-11.4999 368L19.2441 385.75V421.25L-11.4999 439L-42.2439 421.25V385.75L-11.4999 368Z" fill="#4855A2"/>
<path d="M55.5001 368L86.2441 385.75V421.25L55.5001 439L24.7561 421.25V385.75L55.5001 368Z" fill="#7CCEC6"/>
<path d="M-11.4999 251L19.2441 268.75V304.25L-11.4999 322L-42.2439 304.25V268.75L-11.4999 251Z" fill="#382661"/>
<path d="M22.5001 310L53.2441 327.75V363.25L22.5001 381L-8.24389 363.25V327.75L22.5001 310Z" fill="#1A8CA9"/>
<path d="M55.5001 251L86.2441 268.75V304.25L55.5001 322L24.7561 304.25V268.75L55.5001 251Z" fill="#382661"/>
<path d="M89.5001 310L120.244 327.75V363.25L89.5001 381L58.7561 363.25V327.75L89.5001 310Z" fill="#382661"/>
<path d="M122.5 368L153.244 385.75V421.25L122.5 439L91.7561 421.25V385.75L122.5 368Z" fill="#1A8CA9"/>
<path d="M156.5 310L187.244 327.75V363.25L156.5 381L125.756 363.25V327.75L156.5 310Z" fill="#4855A2"/>
<path d="M89.5001 193L120.244 210.75V246.25L89.5001 264L58.7561 246.25V210.75L89.5001 193Z" fill="#1A8CA9"/>
<path d="M123.5 251L154.244 268.75V304.25L123.5 322L92.7561 304.25V268.75L123.5 251Z" fill="#2C7BBD"/>
<path d="M156.5 193L187.244 210.75V246.25L156.5 264L125.756 246.25V210.75L156.5 193Z" fill="#7CCEC6"/>
<path d="M190.5 368L221.244 385.75V421.25L190.5 439L159.756 421.25V385.75L190.5 368Z" fill="#5F2A8D"/>
<path d="M257.5 368L288.244 385.75V421.25L257.5 439L226.756 421.25V385.75L257.5 368Z" fill="#5F2A8D"/>
<path d="M190.5 251L221.244 268.75V304.25L190.5 322L159.756 304.25V268.75L190.5 251Z" fill="#7CCEC6"/>
<path d="M224.5 309L255.244 326.75V362.25L224.5 380L193.756 362.25V326.75L224.5 309Z" fill="#5F2A8D"/>
<path d="M257.5 251L288.244 268.75V304.25L257.5 322L226.756 304.25V268.75L257.5 251Z" fill="#382661"/>
<path d="M291.5 310L322.244 327.75V363.25L291.5 381L260.756 363.25V327.75L291.5 310Z" fill="#7CCEC6"/>
<path d="M325.5 368L356.244 385.75V421.25L325.5 439L294.756 421.25V385.75L325.5 368Z" fill="#7CCEC6"/>
<path d="M358.5 310L389.244 327.75V363.25L358.5 381L327.756 363.25V327.75L358.5 310Z" fill="#382661"/>
<path d="M392.5 368L423.244 385.75V421.25L392.5 439L361.756 421.25V385.75L392.5 368Z" fill="#7CCEC6"/>
<path d="M392.5 251L423.244 268.75V304.25L392.5 322L361.756 304.25V268.75L392.5 251Z" fill="#1A8CA9"/>
<path d="M426.5 309L457.244 326.75V362.25L426.5 380L395.756 362.25V326.75L426.5 309Z" fill="#7CCEC6"/>
</g>
<defs>
<clipPath id="clip0_234_2199">
<rect width="411.001" height="393.001" fill="white"/>
</clipPath>
</defs>
</svg>
