<svg width="2128" height="437" viewBox="0 0 2128 437" fill="none" xmlns="http://www.w3.org/2000/svg">
<path d="M218.001 0.333374L406.795 109.334V327.334L218.001 436.334L29.2065 327.334V109.334L218.001 0.333374Z" fill="#0E1923"/>
<path d="M218.001 0.333374L406.795 109.334V327.334L218.001 436.334L29.2065 327.334V109.334L218.001 0.333374Z" fill="#0E1923"/>
<path d="M40 156.333L40 116.128L68.0001 100.333" stroke="white" stroke-width="6.66667"/>
<path d="M397.334 279L397.334 319.205L368.001 335" stroke="white" stroke-width="6.66667"/>
<path d="M640.001 0.333374L828.795 109.334V327.334L640.001 436.334L451.207 327.334V109.334L640.001 0.333374Z" fill="#0E1923"/>
<path d="M462 156.333L462 116.128L491 100.333" stroke="white" stroke-width="6.66667"/>
<path d="M818.955 279.581L818.955 319.579L790.385 335.292" stroke="white" stroke-width="6.66667"/>
<path d="M1077 0.333374L1265.79 109.334V327.334L1077 436.334L888.207 327.334V109.334L1077 0.333374Z" fill="#0E1923"/>
<path d="M897.332 156.333L897.332 116.128L926.665 100.333" stroke="white" stroke-width="6.66667"/>
<path d="M1254.67 276.333L1254.67 315.581L1226.67 331" stroke="white" stroke-width="6.66667"/>
<path d="M1909.5 0.333374L2098.73 109.334V327.334L1909.5 436.334L1720.27 327.334V109.334L1909.5 0.333374Z" fill="#0E1923"/>
<path d="M1731 155.333L1731 115.846L1760 100.333" stroke="white" stroke-width="6.66667"/>
<path d="M190.618 209.927L261.656 241.909L239.887 290.26C231.056 309.877 207.994 318.62 188.378 309.788C168.761 300.957 160.018 277.895 168.85 258.278L190.618 209.927ZM192.808 205.064L214.576 156.712C223.408 137.095 246.47 128.353 266.086 137.184C285.703 146.016 294.446 169.077 285.614 188.694L263.845 237.046L192.808 205.064Z" fill="white" stroke="black" stroke-width="5.33333"/>
<path d="M190.311 209.765L261.131 241.649L239.236 290.282C230.432 309.838 207.44 318.554 187.884 309.75C168.327 300.945 159.611 277.954 168.416 258.397L190.311 209.765ZM192.5 204.902L214.395 156.27C223.199 136.713 246.191 127.997 265.747 136.802C285.304 145.606 294.02 168.598 285.215 188.154L263.32 236.786L192.5 204.902Z" fill="#5F2A8D" stroke="black" stroke-width="5.33333"/>
<path d="M612.311 205.765L683.131 237.649L661.236 286.282C652.432 305.838 629.44 314.554 609.884 305.75C590.327 296.945 581.611 273.954 590.416 254.397L612.311 205.765ZM614.5 200.902L636.395 152.27C645.199 132.713 668.191 123.997 687.747 132.802C707.304 141.606 716.02 164.598 707.215 184.154L685.32 232.786L614.5 200.902Z" fill="#7CCEC6" stroke="black" stroke-width="5.33333"/>
<path d="M1040.31 209.765L1111.13 241.649L1089.24 290.282C1080.43 309.838 1057.44 318.554 1037.88 309.75C1018.33 300.945 1009.61 277.954 1018.42 258.397L1040.31 209.765ZM1042.5 204.902L1064.39 156.27C1073.2 136.713 1096.19 127.997 1115.75 136.802C1135.3 145.606 1144.02 168.598 1135.22 188.154L1113.32 236.786L1042.5 204.902Z" fill="#1A8CA9" stroke="black" stroke-width="5.33333"/>
<path d="M1872.31 209.765L1943.13 241.649L1921.24 290.282C1912.43 309.838 1889.44 318.554 1869.88 309.75C1850.33 300.945 1841.61 277.954 1850.42 258.397L1872.31 209.765ZM1874.5 204.902L1896.39 156.27C1905.2 136.713 1928.19 127.997 1947.75 136.802C1967.3 145.606 1976.02 168.598 1967.22 188.154L1945.32 236.786L1874.5 204.902Z" fill="#2C7BBD" stroke="black" stroke-width="5.33333"/>
<path d="M1493.28 0.776367L1682.08 109.777V327.777L1493.28 436.777L1304.49 327.777V109.777L1493.28 0.776367Z" fill="#0E1923"/>
<path d="M1315.28 156.776L1315.28 116.571L1343.28 100.776" stroke="white" stroke-width="6.66667"/>
<path d="M1672.62 276.776L1672.62 316.024L1643.28 331.443" stroke="white" stroke-width="6.66667"/>
<path d="M2087.33 277L2087.33 316.248L2058 331.667" stroke="white" stroke-width="6.66667"/>
<path d="M1457.59 214.208L1528.41 246.093L1506.52 294.725C1497.71 314.281 1474.72 322.997 1455.17 314.193C1435.61 305.388 1426.89 282.397 1435.7 262.84L1457.59 214.208ZM1459.78 209.345L1481.68 160.713C1490.48 141.156 1513.47 132.44 1533.03 141.245C1552.58 150.049 1561.3 173.041 1552.5 192.597L1530.6 241.229L1459.78 209.345Z" fill="#4855A2" stroke="black" stroke-width="5.33333"/>
</svg>
