<svg width="769" height="700" viewBox="0 0 769 700" fill="none" xmlns="http://www.w3.org/2000/svg">
<rect x="0.639832" width="767.72" height="700" fill="#0E1923"/>
<path d="M0.639832 49.3065V0H768.36V31.232C750.92 31.7313 744.965 58.0444 747.456 84.2579C750.57 105.478 746.21 153.537 749.948 159.154C756.176 167.892 754.557 179.501 753.062 183.495C751.567 187.49 745.214 192.732 738.736 189.736C732.258 186.741 733.961 165.187 735.622 154.785L738.736 122.954C739.359 114.424 739.608 91.8724 735.622 69.9029C731.635 47.9334 716.313 46.81 710.707 51.803C700.741 59.2926 689.322 99.8613 683.301 124.827C679.564 136.061 659.258 151.789 640.323 139.806C616.654 124.827 623.506 98.613 610.426 88.6269C589.029 72.2918 577.414 89.251 576.168 94.2441C574.861 99.4836 569.109 136.477 567.448 154.785C566.883 161.013 558.342 168.074 554.502 177.061C550.662 186.048 556.102 209.87 559.302 220.657C563.302 234.833 564.512 239.379 562.644 244.997C557.163 256.98 547.503 253.215 546.235 247.404C544.369 238.845 548.795 230.019 548.369 224.669C547.942 219.32 542.858 206.928 540.369 201.4C535.386 187.919 532.519 180.806 530.235 173.316C524.63 161.458 514.504 160.402 500.801 154.785C489.839 150.291 486.268 130.028 485.852 120.458C484.358 102.982 474.433 91.9556 469.658 88.6269C463.222 84.2579 449.352 80.3883 445.366 99.8613C441.38 119.334 431.248 123.786 426.68 123.578C408.617 120.458 417.337 124.202 400.52 101.734C387.066 83.7586 376.228 92.9958 372.491 99.8613C362.525 119.834 368.398 140.184 365.016 142.302C355.051 148.544 359.203 170.388 357.542 182.871L355.673 215.326L357.542 268.377C358.165 280.236 354.552 299.209 357.542 305.201C360.532 311.193 360.656 320.492 353.805 323.301C342.842 327.795 340.932 315.603 341.348 308.946L342.593 285.853V249.653C341.763 229.473 340.351 186.865 341.348 177.878C342.344 168.89 338.026 154.161 335.742 147.919L326.399 126.699C324.115 121.706 320.045 109.972 322.039 102.982C324.032 95.9916 320.793 89.251 315.187 86.1303C302.73 80.638 297.124 92.9958 285.912 92.9958C276.943 93.9944 275.116 118.793 275.324 131.068V222.815C274.825 231.304 266.657 234.674 267.226 240.915C267.559 244.555 269.485 252.662 262.244 254.022C252.278 255.894 254.146 236.546 254.769 230.929C255.267 226.435 247.71 215.95 247.295 207.836C246.298 156.408 234.215 144.799 228.609 141.054C209.3 131.068 194.974 141.054 191.237 145.423C186.871 150.527 180.025 170.388 179.402 189.112V260.888C179.402 266.505 176.288 281.484 178.157 285.853C178.777 287.304 180.233 292.302 180.025 295.215C179.402 301.248 175.042 304.131 165.699 301.456C160.928 300.09 160.99 294.042 163.831 288.349C165.076 285.853 168.191 281.484 168.191 281.484C171.305 277.739 165.076 251.942 164.454 243.412C163.831 226.56 161.339 212.829 158.848 207.836C149.505 186.616 122.099 197.85 116.493 209.085C109.996 222.105 105.281 232.177 102.79 245.908C100.298 259.639 102.79 290.846 102.79 295.839C102.79 299.833 103.62 308.738 104.036 312.691C104.658 317.059 107.274 319.306 107.773 325.797C108.271 332.288 106.527 335.783 105.281 337.656C103.828 339.736 98.3052 343.523 92.824 339.528C87.3428 335.534 88.0487 326.213 89.0868 322.053C91.5783 315.562 91.7859 295.215 91.5783 285.853L90.9554 243.412C90.9554 223.44 85.5572 204.508 82.2353 197.226C77.8752 188.696 68.1585 169.015 64.1722 158.53C60.1858 148.044 59.1892 139.182 59.1892 136.061C57.3206 117.961 52.3377 129.196 49.8462 112.968C38.0118 105.478 31.7831 114.84 32.406 125.451L33.0289 152.913C33.0289 158.53 34.0061 167.671 33.0289 169.14C29.2917 174.757 33.6517 180.999 34.2746 187.24C34.479 189.288 34.3719 197.704 33.0289 199.723C28.0459 207.212 18.2426 205.34 16.8343 197.226C16.0039 192.441 14.8412 180.999 16.8343 173.509C18.8275 166.019 16.0039 139.598 14.3429 127.323C13.5124 120.042 11.976 101.858 12.4743 87.3786C12.9726 72.8987 4.79227 55.9639 0.639832 49.3065Z" fill="white"/>
</svg>
