<svg width="2131" height="437" viewBox="0 0 2131 437" fill="none" xmlns="http://www.w3.org/2000/svg">
<path d="M218.001 0.333374L406.795 109.334V327.334L218.001 436.334L29.2065 327.334V109.334L218.001 0.333374Z" fill="#0E1923"/>
<path d="M218.001 0.333374L406.795 109.334V327.334L218.001 436.334L29.2065 327.334V109.334L218.001 0.333374Z" fill="#0E1923"/>
<path d="M40.334 157.214L40.334 117.009L68.3341 101.214" stroke="white" stroke-width="6.66667"/>
<path d="M398 281.333L398 321.538L369 337.333" stroke="white" stroke-width="6.66667"/>
<path d="M640.001 0.333374L828.795 109.334V327.334L640.001 436.334L451.207 327.334V109.334L640.001 0.333374Z" fill="#0E1923"/>
<path d="M462 156.334L462 116.128L491 100.333" stroke="white" stroke-width="6.66667"/>
<path d="M819 279.333L819 319.538L790 335.333" stroke="white" stroke-width="6.66667"/>
<path d="M1077 0.333374L1265.79 109.334V327.334L1077 436.334L888.207 327.334V109.334L1077 0.333374Z" fill="#0E1923"/>
<path d="M898 156.334L898 116.128L927 100.333" stroke="white" stroke-width="6.66667"/>
<path d="M1255 282.333L1255 321.821L1227 337.333" stroke="white" stroke-width="6.66667"/>
<path d="M1498 0.333374L1686.79 109.334V327.334L1498 436.334L1309.21 327.334V109.334L1498 0.333374Z" fill="#0E1923"/>
<path d="M1320 156.334L1320 116.128L1348 100.333" stroke="white" stroke-width="6.66667"/>
<path d="M1678 282.333L1678 321.821L1649 337.333" stroke="white" stroke-width="6.66667"/>
<path d="M1912.5 0.333374L2101.73 109.334V327.334L1912.5 436.334L1723.27 327.334V109.334L1912.5 0.333374Z" fill="#0E1923"/>
<path d="M1734 155.334L1734 115.846L1763 100.333" stroke="white" stroke-width="6.66667"/>
<path d="M2091 280.333L2091 319.821L2063 335.333" stroke="white" stroke-width="6.66667"/>
<rect width="77.0002" height="81.0002" transform="matrix(0.865867 0.500274 -0.499726 0.866183 634 144.333)" fill="#4855A2"/>
<path d="M548.51 309.471L562.97 317.842M599.363 338.909L587.554 332.073M587.554 332.073L615.519 283.693L590.936 269.462M587.554 332.073L562.97 317.842M546.348 243.652L568.642 256.557M660.588 309.783L636.246 295.691M590.936 269.462L562.97 317.842M590.936 269.462L568.642 256.557M590.936 269.462L636.246 295.691M568.642 256.557L594.381 212.028M636.246 295.691L649.324 273.066M653.027 153.14L634.589 142.467L594.381 212.028M653.027 153.14L667.218 128.589L683.366 137.937M653.027 153.14L685.323 171.835M685.323 171.835L702.194 181.602L688.281 205.671M685.323 171.835L699.514 147.285L683.366 137.937M683.366 137.937L706.879 97.2594M688.281 205.671L673.338 197.021M688.281 205.671L673.811 230.704M673.811 230.704L658.868 222.054M673.811 230.704L661.985 251.163M649.324 273.066L632.453 263.3M649.324 273.066L661.985 251.163M594.381 212.028L661.985 251.163" stroke="white" stroke-width="6.66667"/>
<rect width="77.0002" height="81.0002" transform="matrix(0.866083 0.4999 -0.5001 0.865968 1070 146.333)" fill="#2C7BBD"/>
<path d="M984.419 311.401L998.883 319.766M1035.29 340.817L1023.47 333.986M1023.47 333.986L1051.46 285.618L1026.87 271.398M1023.47 333.986L998.883 319.766M982.271 245.607L1004.57 258.502M1096.54 311.688L1072.19 297.608M1026.87 271.398L998.883 319.766M1026.87 271.398L1004.57 258.502M1026.87 271.398L1072.19 297.608M1004.57 258.502L1030.33 213.985M1072.19 297.608L1085.28 274.988M1089.01 155.106L1070.57 144.441L1030.33 213.985M1089.01 155.106L1103.21 130.562L1119.36 139.902M1089.01 155.106L1121.31 173.788M1121.31 173.788L1138.19 183.547L1124.26 207.61M1121.31 173.788L1135.51 149.243L1119.36 139.902M1119.36 139.902L1142.89 99.2348M1124.26 207.61L1109.32 198.967M1124.26 207.61L1109.78 232.636M1109.78 232.636L1094.84 223.993M1109.78 232.636L1097.95 253.09M1085.28 274.988L1068.4 265.229M1085.28 274.988L1097.95 253.09M1030.33 213.985L1097.95 253.09" stroke="white" stroke-width="6.66667"/>
<rect width="77.0002" height="81.0002" transform="matrix(0.866083 0.4999 -0.5001 0.865968 1496 144.334)" fill="#7CCEC6"/>
<path d="M1410.42 309.401L1424.88 317.766M1461.29 338.817L1449.47 331.986M1449.47 331.986L1477.46 283.618L1452.87 269.398M1449.47 331.986L1424.88 317.766M1408.27 243.607L1430.57 256.502M1522.54 309.688L1498.19 295.608M1452.87 269.398L1424.88 317.766M1452.87 269.398L1430.57 256.502M1452.87 269.398L1498.19 295.608M1430.57 256.502L1456.33 211.985M1498.19 295.608L1511.28 272.988M1515.01 153.106L1496.57 142.441L1456.33 211.985M1515.01 153.106L1529.21 128.562L1545.36 137.902M1515.01 153.106L1547.31 171.788M1547.31 171.788L1564.19 181.547L1550.26 205.61M1547.31 171.788L1561.51 147.243L1545.36 137.902M1545.36 137.902L1568.89 97.2348M1550.26 205.61L1535.32 196.967M1550.26 205.61L1535.78 230.636M1535.78 230.636L1520.84 221.993M1535.78 230.636L1523.95 251.09M1511.28 272.988L1494.4 263.229M1511.28 272.988L1523.95 251.09M1456.33 211.985L1523.95 251.09" stroke="white" stroke-width="6.66667"/>
<rect width="77.0002" height="81.0002" transform="matrix(0.866083 0.4999 -0.5001 0.865968 220.715 144)" fill="#1A8CA9"/>
<path d="M135.134 309.068L149.598 317.433M186 338.484L174.188 331.653M174.188 331.653L202.174 283.285L177.584 269.065M174.188 331.653L149.598 317.433M132.986 243.273L155.285 256.169M247.254 309.355L222.906 295.274M177.584 269.065L149.598 317.433M177.584 269.065L155.285 256.169M177.584 269.065L222.906 295.274M155.285 256.169L181.043 211.652M222.906 295.274L235.994 272.655M239.724 152.773L221.282 142.108L181.043 211.652M239.724 152.773L253.926 128.228L270.078 137.569M239.724 152.773L272.028 171.454M272.028 171.454L288.903 181.213L274.979 205.277M272.028 171.454L286.229 146.909L270.078 137.569M270.078 137.569L293.608 96.9014M274.979 205.277L260.033 196.633M274.979 205.277L260.499 230.303M260.499 230.303L245.552 221.659M260.499 230.303L248.664 250.757M235.994 272.655L219.119 262.896M235.994 272.655L248.664 250.757M181.043 211.652L248.664 250.757" stroke="white" stroke-width="6.66667"/>
<rect width="77.0002" height="81.0002" transform="matrix(0.865868 0.500273 -0.499727 0.866183 1907 144.333)" fill="#5F2A8D"/>
<path d="M1821.51 309.471L1835.97 317.842M1872.36 338.909L1860.55 332.073M1860.55 332.073L1888.52 283.693L1863.94 269.462M1860.55 332.073L1835.97 317.842M1819.35 243.651L1841.64 256.557M1933.59 309.782L1909.25 295.691M1863.94 269.462L1835.97 317.842M1863.94 269.462L1841.64 256.557M1863.94 269.462L1909.25 295.691M1841.64 256.557L1867.38 212.028M1909.25 295.691L1922.32 273.066M1926.03 153.14L1907.59 142.467L1867.38 212.028M1926.03 153.14L1940.22 128.589L1956.37 137.937M1926.03 153.14L1958.32 171.835M1958.32 171.835L1975.19 181.602L1961.28 205.671M1958.32 171.835L1972.51 147.284L1956.37 137.937M1956.37 137.937L1979.88 97.2593M1961.28 205.671L1946.34 197.021M1961.28 205.671L1946.81 230.703M1946.81 230.703L1931.87 222.053M1946.81 230.703L1934.98 251.163M1922.32 273.066L1905.45 263.3M1922.32 273.066L1934.98 251.163M1867.38 212.028L1934.98 251.163" stroke="white" stroke-width="6.66667"/>
</svg>
