<svg width="311" height="311" viewBox="0 0 311 311" fill="none" xmlns="http://www.w3.org/2000/svg">
<path d="M155.454 0L290.08 77.549V232.647L155.454 310.196L20.8268 232.647V77.549L155.454 0Z" fill="#0E1923"/>
<path d="M28.459 110.276L28.459 82.1824L49.0913 71.1457" stroke="white" stroke-width="4.74304"/>
<path d="M282.448 199.208L282.448 227.301L262.527 238.338" stroke="white" stroke-width="4.74304"/>
<rect width="54.7823" height="57.6281" transform="matrix(0.865868 0.500273 -0.499727 0.866183 151.54 102.45)" fill="#5F2A8D"/>
<path d="M90.7178 219.938L101.006 225.894M126.898 240.882L118.496 236.018M118.496 236.018L138.392 201.598L120.902 191.473M118.496 236.018L101.006 225.894M89.18 173.11L105.041 182.292M170.457 220.16L153.138 210.134M120.902 191.473L101.006 225.894M120.902 191.473L105.041 182.292M120.902 191.473L153.138 210.134M105.041 182.292L123.353 150.612M153.138 210.134L162.443 194.037M165.077 108.715L151.96 101.122L123.353 150.612M165.077 108.715L175.174 91.2485L186.662 97.8989M165.077 108.715L188.054 122.016M188.054 122.016L200.057 128.964L190.159 146.089M188.054 122.016L198.151 104.549L186.662 97.8989M186.662 97.8989L203.391 68.9586M190.159 146.089L179.528 139.935M190.159 146.089L179.864 163.898M179.864 163.898L169.233 157.744M179.864 163.898L171.451 178.454M162.443 194.037L150.44 187.089M162.443 194.037L171.451 178.454M123.353 150.612L171.451 178.454" stroke="white" stroke-width="4.74304"/>
</svg>
