<svg width="311" height="311" viewBox="0 0 311 311" fill="none" xmlns="http://www.w3.org/2000/svg">
<path d="M155.098 0L289.417 77.549V232.647L155.098 310.196L20.7792 232.647V77.549L155.098 0Z" fill="#0E1923"/>
<path d="M28.458 110.987L28.458 82.3831L49.0903 71.1458" stroke="white" stroke-width="4.74304"/>
<path d="M282.448 198.496L282.448 227.1L261.816 238.338" stroke="white" stroke-width="4.74304"/>
<rect width="54.7823" height="57.6281" transform="matrix(0.865867 0.500274 -0.499726 0.866183 150.829 102.45)" fill="#4855A2"/>
<path d="M90.006 219.938L100.294 225.894M126.186 240.882L117.784 236.018M117.784 236.018L137.68 201.598L120.19 191.473M117.784 236.018L100.294 225.894M88.4682 173.11L104.329 182.292M169.745 220.16L152.427 210.134M120.19 191.473L100.294 225.894M120.19 191.473L104.329 182.292M120.19 191.473L152.427 210.134M104.329 182.292L122.641 150.612M152.427 210.134L161.731 194.037M164.365 108.715L151.248 101.122L122.641 150.612M164.365 108.715L174.462 91.2485L185.95 97.8989M164.365 108.715L187.342 122.016M187.342 122.016L199.345 128.964L189.447 146.089M187.342 122.016L197.439 104.549L185.95 97.8989M185.95 97.8989L202.679 68.9586M189.447 146.089L178.816 139.935M189.447 146.089L179.152 163.898M179.152 163.898L168.521 157.744M179.152 163.898L170.739 178.454M161.731 194.037L149.728 187.089M161.731 194.037L170.739 178.454M122.641 150.612L170.739 178.454" stroke="white" stroke-width="4.74304"/>
</svg>
