<svg width="311" height="311" viewBox="0 0 311 311" fill="none" xmlns="http://www.w3.org/2000/svg">
<path d="M155.098 0L289.417 77.549V232.647L155.098 310.196L20.7792 232.647V77.549L155.098 0Z" fill="#0E1923"/>
<path d="M283.159 199.919L283.159 228.524L262.527 239.761" stroke="white" stroke-width="4.74304"/>
<rect width="54.7823" height="57.6281" transform="matrix(0.866083 0.4999 -0.5001 0.865968 155.326 103.917)" fill="#1A8CA9"/>
<path d="M94.4395 221.355L104.73 227.306M130.629 242.283L122.225 237.423M122.225 237.423L142.135 203.012L124.641 192.895M122.225 237.423L104.73 227.306M92.9112 174.545L108.776 183.72M174.208 221.559L156.885 211.542M124.641 192.895L104.73 227.306M124.641 192.895L108.776 183.72M124.641 192.895L156.885 211.542M108.776 183.72L127.102 152.048M156.885 211.542L166.197 195.449M168.851 110.158L155.73 102.57L127.102 152.048M168.851 110.158L178.955 92.6955L190.446 99.341M168.851 110.158L191.833 123.449M191.833 123.449L203.839 130.392L193.933 147.512M191.833 123.449L201.937 105.986L190.446 99.341M190.446 99.341L207.187 70.4079M193.933 147.512L183.3 141.363M193.933 147.512L183.631 165.317M183.631 165.317L172.998 159.168M183.631 165.317L175.211 179.869M166.197 195.449L154.191 188.506M166.197 195.449L175.211 179.869M127.102 152.048L175.211 179.869" stroke="white" stroke-width="4.74304"/>
<path d="M29 110.842L29 82.2374L49.6323 71" stroke="white" stroke-width="4.74304"/>
</svg>
