<svg width="311" height="311" viewBox="0 0 311 311" fill="none" xmlns="http://www.w3.org/2000/svg">
<path d="M155.098 0L289.417 77.549V232.647L155.098 310.196L20.7792 232.647V77.549L155.098 0Z" fill="#0E1923"/>
<path d="M27.7471 110.987L27.7471 82.3831L48.3794 71.1458" stroke="white" stroke-width="4.74304"/>
<path d="M281.737 200.631L281.737 228.724L261.816 239.761" stroke="white" stroke-width="4.74304"/>
<rect width="54.7823" height="57.6281" transform="matrix(0.866083 0.4999 -0.5001 0.865968 150.116 103.873)" fill="#2C7BBD"/>
<path d="M89.2295 221.311L99.5203 227.262M125.419 242.239L117.015 237.379M117.015 237.379L136.925 202.968L119.431 192.851M117.015 237.379L99.5203 227.262M87.7012 174.501L103.566 183.676M168.998 221.516L151.676 211.498M119.431 192.851L99.5203 227.262M119.431 192.851L103.566 183.676M119.431 192.851L151.676 211.498M103.566 183.676L121.892 152.004M151.676 211.498L160.987 195.405M163.641 110.114L150.52 102.527L121.892 152.004M163.641 110.114L173.745 92.6517L185.236 99.2972M163.641 110.114L186.623 123.405M186.623 123.405L198.629 130.348L188.724 147.468M186.623 123.405L196.727 105.943L185.236 99.2972M185.236 99.2972L201.977 70.3641M188.724 147.468L178.09 141.319M188.724 147.468L178.421 165.273M178.421 165.273L167.788 159.124M178.421 165.273L170.001 179.826M160.987 195.405L148.981 188.462M160.987 195.405L170.001 179.826M121.892 152.004L170.001 179.826" stroke="white" stroke-width="4.74304"/>
</svg>
