<svg width="311" height="311" viewBox="0 0 311 311" fill="none" xmlns="http://www.w3.org/2000/svg">
<path d="M155.098 0L289.417 77.549V232.647L155.098 310.196L20.7792 232.647V77.549L155.098 0Z" fill="#0E1923"/>
<path d="M28.458 110.987L28.458 82.3831L48.3788 71.1457" stroke="white" stroke-width="4.74304"/>
<path d="M283.16 200.631L283.16 228.724L262.528 239.761" stroke="white" stroke-width="4.74304"/>
<rect width="54.7823" height="57.6281" transform="matrix(0.866083 0.4999 -0.5001 0.865968 153.675 102.45)" fill="#7CCEC6"/>
<path d="M92.7881 219.888L103.079 225.839M128.977 240.817L120.573 235.956M120.573 235.956L140.484 201.545L122.99 191.428M120.573 235.956L103.079 225.839M91.2598 173.078L107.125 182.253M172.557 220.093L155.234 210.075M122.99 191.428L103.079 225.839M122.99 191.428L107.125 182.253M122.99 191.428L155.234 210.075M107.125 182.253L125.451 150.581M155.234 210.075L164.546 193.982M167.199 108.691L154.079 101.104L125.451 150.581M167.199 108.691L177.303 91.2288L188.795 97.8743M167.199 108.691L190.182 121.982M190.182 121.982L202.188 128.925L192.282 146.046M190.182 121.982L200.286 104.52L188.795 97.8743M188.795 97.8743L205.536 68.9412M192.282 146.046L181.648 139.896M192.282 146.046L181.98 163.85M181.98 163.85L171.346 157.701M181.98 163.85L173.56 178.403M164.546 193.982L152.54 187.039M164.546 193.982L173.56 178.403M125.451 150.581L173.56 178.403" stroke="white" stroke-width="4.74304"/>
</svg>
