<svg width="311" height="311" viewBox="0 0 311 311" fill="none" xmlns="http://www.w3.org/2000/svg">
<path d="M155.098 0L289.417 77.549V232.647L155.098 310.196L20.7792 232.647V77.549L155.098 0Z" fill="#0E1923"/>
<path d="M27.2715 110.987L27.2715 82.383L48.1409 71.1456" stroke="white" stroke-width="4.74304"/>
<path d="M281.499 196.362L281.499 224.285L261.578 235.255" stroke="white" stroke-width="4.74304"/>
<path d="M128.995 149.002L179.38 171.686L163.803 206.286C157.539 220.199 141.182 226.4 127.268 220.136C113.355 213.872 107.153 197.515 113.417 183.601L128.995 149.002ZM130.552 145.542L146.13 110.942C152.394 97.0285 168.751 90.8274 182.664 97.0914C196.578 103.356 202.779 119.713 196.515 133.626L180.938 168.226L130.552 145.542Z" fill="#1A8CA9" stroke="black" stroke-width="3.79444"/>
</svg>
