<svg width="311" height="311" viewBox="0 0 311 311" fill="none" xmlns="http://www.w3.org/2000/svg">
<path d="M155.098 0L289.417 77.549V232.647L155.098 310.196L20.7792 232.647V77.549L155.098 0Z" fill="#0E1923"/>
<path d="M28.459 110.987L28.459 82.383L48.3798 71.1456" stroke="white" stroke-width="4.74304"/>
<path d="M282.686 196.362L282.686 224.285L261.816 235.255" stroke="white" stroke-width="4.74304"/>
<path d="M129.707 151.848L180.092 174.532L164.515 209.131C158.251 223.045 141.894 229.246 127.98 222.982C114.066 216.718 107.865 200.361 114.129 186.447L129.707 151.848ZM131.264 148.388L146.841 113.788C153.106 99.8744 169.463 93.6732 183.376 99.9373C197.29 106.201 203.491 122.559 197.227 136.472L181.65 171.072L131.264 148.388Z" fill="#4855A2" stroke="black" stroke-width="3.79444"/>
</svg>
