<svg width="311" height="311" viewBox="0 0 311 311" fill="none" xmlns="http://www.w3.org/2000/svg">
<path d="M155.098 0L289.417 77.549V232.647L155.098 310.196L20.7792 232.647V77.549L155.098 0Z" fill="#0E1923"/>
<path d="M28.459 110.987L28.459 82.383L48.3798 71.1456" stroke="white" stroke-width="4.74304"/>
<path d="M282.686 196.362L282.686 224.285L261.816 235.255" stroke="white" stroke-width="4.74304"/>
<path d="M130.428 149.761L180.814 172.445L165.237 207.045C158.973 220.959 142.615 227.16 128.702 220.896C114.788 214.632 108.587 198.274 114.851 184.361L130.428 149.761ZM131.986 146.301L147.563 111.702C153.827 97.788 170.184 91.5869 184.098 97.851C198.012 104.115 204.213 120.472 197.949 134.386L182.372 168.986L131.986 146.301Z" fill="#2C7BBD" stroke="black" stroke-width="3.79444"/>
</svg>
