<svg width="311" height="311" viewBox="0 0 311 311" fill="none" xmlns="http://www.w3.org/2000/svg">
<path d="M155.098 0L289.417 77.549V232.647L155.098 310.196L20.7792 232.647V77.549L155.098 0Z" fill="#0E1923"/>
<path d="M28.458 110.987L28.458 82.383L48.3788 71.1456" stroke="white" stroke-width="4.74304"/>
<path d="M282.686 198.259L282.686 226.863L261.816 238.101" stroke="white" stroke-width="4.74304"/>
<path d="M135.398 149.002L185.784 171.686L170.206 206.286C163.942 220.199 147.585 226.4 133.671 220.136C119.758 213.872 113.557 197.515 119.821 183.601L135.398 149.002ZM136.956 145.542L152.533 110.942C158.797 97.0285 175.154 90.8274 189.068 97.0914C202.981 103.356 209.183 119.713 202.919 133.626L187.341 168.226L136.956 145.542Z" fill="#5F2A8D" stroke="black" stroke-width="3.79444"/>
</svg>
