<svg width="311" height="311" viewBox="0 0 311 311" fill="none" xmlns="http://www.w3.org/2000/svg">
<path d="M155.098 0L289.417 77.549V232.647L155.098 310.196L20.7792 232.647V77.549L155.098 0Z" fill="#0E1923"/>
<path d="M28.459 110.987L28.459 82.383L49.0913 71.1456" stroke="white" stroke-width="4.74304"/>
<path d="M282.417 198.673L282.417 227.129L262.091 238.309" stroke="white" stroke-width="4.74304"/>
<path d="M135.398 146.156L185.784 168.84L170.206 203.44C163.942 217.353 147.585 223.555 133.671 217.29C119.758 211.026 113.557 194.669 119.821 180.756L135.398 146.156ZM136.956 142.696L152.533 108.096C158.797 94.1827 175.154 87.9815 189.068 94.2456C202.981 100.51 209.183 116.867 202.919 130.781L187.341 165.38L136.956 142.696Z" fill="#7CCEC6" stroke="black" stroke-width="3.79444"/>
</svg>
